<svg width="288" height="15" viewBox="0 0 288 15" fill="none" xmlns="http://www.w3.org/2000/svg">
<path d="M3 5.90909C3 5.36553 3.13258 4.87003 3.39773 4.42259C3.66288 3.97514 4.01918 3.61884 4.46662 3.35369C4.91406 3.08854 5.40956 2.95597 5.95312 2.95597C6.42377 2.95597 6.85795 3.05705 7.25568 3.25923C7.65672 3.46141 7.98816 3.73816 8.25 4.08949C8.51184 4.4375 8.67424 4.83191 8.73722 5.27273H7.53409C7.4678 4.93134 7.28385 4.65294 6.98224 4.4375C6.68063 4.21875 6.33759 4.10938 5.95312 4.10938C5.62169 4.10938 5.32008 4.19058 5.0483 4.35298C4.77652 4.51539 4.55942 4.73248 4.39702 5.00426C4.23461 5.27604 4.15341 5.57765 4.15341 5.90909C4.15341 6.24053 4.23461 6.54214 4.39702 6.81392C4.55942 7.0857 4.77652 7.30279 5.0483 7.4652C5.32008 7.6276 5.62169 7.70881 5.95312 7.70881C6.33759 7.70881 6.66241 7.60109 6.92756 7.38565C7.19602 7.1669 7.36506 6.88684 7.43466 6.54545H8.63778C8.57481 6.98627 8.42069 7.38234 8.17543 7.73366C7.93016 8.08168 7.61529 8.35677 7.23082 8.55895C6.84967 8.76113 6.42377 8.86222 5.95312 8.86222C5.40956 8.86222 4.91406 8.72964 4.46662 8.46449C4.01918 8.19934 3.66288 7.84304 3.39773 7.3956C3.13258 6.94815 3 6.45265 3 5.90909ZM5.90341 11.1591C5.18087 11.1591 4.50142 11.0232 3.86506 10.7514C3.23201 10.4796 2.67353 10.1035 2.18963 9.62287C1.70904 9.13897 1.3312 8.58049 1.05611 7.94744C0.784328 7.31439 0.650095 6.63494 0.653409 5.90909C0.656723 5.18324 0.794271 4.50379 1.06605 3.87074C1.34115 3.23769 1.71899 2.68087 2.19957 2.20028C2.68016 1.71638 3.23698 1.33854 3.87003 1.06676C4.50308 0.794981 5.18087 0.659091 5.90341 0.659091C6.62926 0.659091 7.30871 0.794981 7.94176 1.06676C8.57813 1.33854 9.13494 1.71638 9.61222 2.20028C10.0928 2.68087 10.469 3.23769 10.7408 3.87074C11.0125 4.50379 11.1501 5.18324 11.1534 5.90909C11.1567 6.63494 11.0225 7.31439 10.7507 7.94744C10.4789 8.58049 10.1027 9.13897 9.62216 9.62287C9.14157 10.1035 8.5831 10.4796 7.94673 10.7514C7.31037 11.0232 6.62926 11.1591 5.90341 11.1591ZM5.90341 10.0057C6.47017 10.0057 7.00213 9.89962 7.49929 9.6875C7.99645 9.47538 8.43229 9.18205 8.80682 8.80753C9.18134 8.433 9.47467 7.99882 9.68679 7.50497C9.89891 7.00781 10.0033 6.47751 10 5.91406C9.99669 5.3473 9.88897 4.81534 9.67685 4.31818C9.46473 3.82102 9.1714 3.38518 8.79688 3.01065C8.42235 2.63613 7.98816 2.3428 7.49432 2.13068C7.00047 1.91856 6.47017 1.8125 5.90341 1.8125C5.33996 1.8125 4.81132 1.91856 4.31747 2.13068C3.82363 2.3428 3.38944 2.63778 3.01491 3.01562C2.64039 3.39015 2.34541 3.82599 2.12997 4.32315C1.91785 4.817 1.81013 5.3473 1.80682 5.91406C1.8035 6.47419 1.90791 7.00284 2.12003 7.5C2.33215 7.99384 2.62547 8.42803 3 8.80256C3.37784 9.17708 3.81368 9.47206 4.30753 9.6875C4.80469 9.89962 5.33665 10.0057 5.90341 10.0057ZM17.302 11V10.1051L20.6628 6.42614C21.0572 5.99526 21.382 5.62074 21.6373 5.30256C21.8925 4.98106 22.0814 4.67945 22.204 4.39773C22.33 4.11269 22.3929 3.81439 22.3929 3.50284C22.3929 3.14489 22.3068 2.83499 22.1344 2.57315C21.9654 2.31132 21.7334 2.10914 21.4384 1.96662C21.1434 1.8241 20.812 1.75284 20.4441 1.75284C20.053 1.75284 19.7116 1.83404 19.4199 1.99645C19.1316 2.15554 18.9078 2.37926 18.7488 2.66761C18.593 2.95597 18.5151 3.29403 18.5151 3.68182H17.3418C17.3418 3.08523 17.4793 2.56155 17.7544 2.1108C18.0295 1.66004 18.4041 1.30871 18.878 1.05682C19.3553 0.804924 19.8906 0.678977 20.4838 0.678977C21.0804 0.678977 21.6091 0.804924 22.0698 1.05682C22.5305 1.30871 22.8917 1.64844 23.1536 2.07599C23.4154 2.50355 23.5463 2.97917 23.5463 3.50284C23.5463 3.87737 23.4784 4.24361 23.3425 4.60156C23.2099 4.9562 22.9779 5.35227 22.6465 5.78977C22.3184 6.22396 21.8626 6.75426 21.2793 7.38068L18.9924 9.8267V9.90625H23.7253V11H17.302ZM29.0996 11.1392C28.3506 11.1392 27.7125 10.9354 27.1855 10.5277C26.6586 10.1167 26.2559 9.52178 25.9775 8.7429C25.699 7.9607 25.5598 7.0161 25.5598 5.90909C25.5598 4.80871 25.699 3.86908 25.9775 3.0902C26.2592 2.308 26.6635 1.71141 27.1905 1.30043C27.7208 0.886126 28.3572 0.678977 29.0996 0.678977C29.842 0.678977 30.4767 0.886126 31.0037 1.30043C31.534 1.71141 31.9384 2.308 32.2168 3.0902C32.4985 3.86908 32.6394 4.80871 32.6394 5.90909C32.6394 7.0161 32.5002 7.9607 32.2218 8.7429C31.9434 9.52178 31.5407 10.1167 31.0137 10.5277C30.4867 10.9354 29.8487 11.1392 29.0996 11.1392ZM29.0996 10.0455C29.842 10.0455 30.4187 9.6875 30.8297 8.97159C31.2407 8.25568 31.4462 7.23485 31.4462 5.90909C31.4462 5.02746 31.3517 4.27675 31.1628 3.65696C30.9772 3.03717 30.7087 2.56487 30.3574 2.24006C30.0094 1.91525 29.5901 1.75284 29.0996 1.75284C28.3638 1.75284 27.7888 2.11577 27.3745 2.84162C26.9602 3.56416 26.753 4.58665 26.753 5.90909C26.753 6.79072 26.8458 7.53977 27.0314 8.15625C27.217 8.77273 27.4838 9.24171 27.8319 9.56321C28.1832 9.88471 28.6058 10.0455 29.0996 10.0455ZM34.5286 11V10.1051L37.8894 6.42614C38.2838 5.99526 38.6086 5.62074 38.8638 5.30256C39.119 4.98106 39.3079 4.67945 39.4306 4.39773C39.5565 4.11269 39.6195 3.81439 39.6195 3.50284C39.6195 3.14489 39.5333 2.83499 39.361 2.57315C39.1919 2.31132 38.9599 2.10914 38.665 1.96662C38.37 1.8241 38.0385 1.75284 37.6706 1.75284C37.2795 1.75284 36.9382 1.83404 36.6465 1.99645C36.3581 2.15554 36.1344 2.37926 35.9753 2.66761C35.8195 2.95597 35.7417 3.29403 35.7417 3.68182H34.5684C34.5684 3.08523 34.7059 2.56155 34.981 2.1108C35.2561 1.66004 35.6306 1.30871 36.1046 1.05682C36.5819 0.804924 37.1171 0.678977 37.7104 0.678977C38.307 0.678977 38.8356 0.804924 39.2963 1.05682C39.757 1.30871 40.1183 1.64844 40.3801 2.07599C40.642 2.50355 40.7729 2.97917 40.7729 3.50284C40.7729 3.87737 40.705 4.24361 40.5691 4.60156C40.4365 4.9562 40.2045 5.35227 39.873 5.78977C39.5449 6.22396 39.0892 6.75426 38.5059 7.38068L36.2189 9.8267V9.90625H40.9519V11H34.5286ZM43.0051 11V10.1051L46.3659 6.42614C46.7604 5.99526 47.0852 5.62074 47.3404 5.30256C47.5956 4.98106 47.7845 4.67945 47.9071 4.39773C48.0331 4.11269 48.0961 3.81439 48.0961 3.50284C48.0961 3.14489 48.0099 2.83499 47.8375 2.57315C47.6685 2.31132 47.4365 2.10914 47.1415 1.96662C46.8465 1.8241 46.5151 1.75284 46.1472 1.75284C45.7561 1.75284 45.4147 1.83404 45.123 1.99645C44.8347 2.15554 44.611 2.37926 44.4519 2.66761C44.2961 2.95597 44.2182 3.29403 44.2182 3.68182H43.0449C43.0449 3.08523 43.1825 2.56155 43.4576 2.1108C43.7327 1.66004 44.1072 1.30871 44.5811 1.05682C45.0584 0.804924 45.5937 0.678977 46.187 0.678977C46.7836 0.678977 47.3122 0.804924 47.7729 1.05682C48.2336 1.30871 48.5949 1.64844 48.8567 2.07599C49.1185 2.50355 49.2495 2.97917 49.2495 3.50284C49.2495 3.87737 49.1815 4.24361 49.0456 4.60156C48.9131 4.9562 48.681 5.35227 48.3496 5.78977C48.0215 6.22396 47.5658 6.75426 46.9824 7.38068L44.6955 9.8267V9.90625H49.4284V11H43.0051ZM55.5982 11V0.818182H59.0385C59.834 0.818182 60.4869 0.954072 60.9973 1.22585C61.5078 1.49432 61.8856 1.86387 62.1309 2.33452C62.3761 2.80516 62.4988 3.34044 62.4988 3.94034C62.4988 4.54025 62.3761 5.07221 62.1309 5.53622C61.8856 6.00024 61.5094 6.36482 61.0023 6.62997C60.4952 6.89181 59.8472 7.02273 59.0584 7.02273H56.2743V5.90909H59.0186C59.5622 5.90909 59.9997 5.82955 60.3311 5.67045C60.6659 5.51136 60.9078 5.28598 61.057 4.99432C61.2095 4.69934 61.2857 4.34801 61.2857 3.94034C61.2857 3.53267 61.2095 3.17637 61.057 2.87145C60.9045 2.56652 60.6609 2.3312 60.3262 2.16548C59.9914 1.99645 59.5489 1.91193 58.9988 1.91193H56.8311V11H55.5982ZM60.3908 6.42614L62.8965 11H61.4647L58.9988 6.42614H60.3908ZM67.5138 11.1591C66.7781 11.1591 66.1433 10.9967 65.6097 10.6719C65.0794 10.3438 64.6701 9.88636 64.3817 9.29972C64.0967 8.70975 63.9542 8.02367 63.9542 7.24148C63.9542 6.45928 64.0967 5.76989 64.3817 5.1733C64.6701 4.57339 65.0711 4.10606 65.5849 3.77131C66.1019 3.43324 66.7051 3.2642 67.3945 3.2642C67.7923 3.2642 68.185 3.33049 68.5728 3.46307C68.9606 3.59564 69.3136 3.81108 69.6317 4.10938C69.9499 4.40436 70.2035 4.79545 70.3924 5.28267C70.5813 5.76989 70.6758 6.36979 70.6758 7.08239V7.57955H64.7894V6.56534H69.4826C69.4826 6.13447 69.3964 5.75 69.2241 5.41193C69.055 5.07386 68.8131 4.80705 68.4982 4.61151C68.1867 4.41596 67.8188 4.31818 67.3945 4.31818C66.9272 4.31818 66.5228 4.43419 66.1815 4.66619C65.8434 4.89489 65.5832 5.19318 65.4009 5.56108C65.2186 5.92898 65.1275 6.32339 65.1275 6.74432V7.42045C65.1275 7.99716 65.2269 8.48603 65.4258 8.88707C65.628 9.2848 65.908 9.58807 66.266 9.79688C66.6239 10.0024 67.0399 10.1051 67.5138 10.1051C67.8221 10.1051 68.1005 10.062 68.3491 9.97585C68.601 9.88636 68.8181 9.75379 69.0004 9.57812C69.1826 9.39915 69.3235 9.17708 69.4229 8.91193L70.5565 9.23011C70.4371 9.61458 70.2366 9.95265 69.9549 10.2443C69.6732 10.5327 69.3252 10.758 68.9109 10.9205C68.4966 11.0795 68.0309 11.1591 67.5138 11.1591ZM74.1907 11L71.864 3.36364H73.0969L74.7475 9.21023H74.8271L76.4577 3.36364H77.7106L79.3214 9.19034H79.4009L81.0515 3.36364H82.2844L79.9577 11H78.8043L77.1339 5.13352H77.0146L75.3441 11H74.1907ZM86.0827 11.179C85.5988 11.179 85.1597 11.0878 84.7653 10.9055C84.3709 10.7199 84.0576 10.4531 83.8256 10.1051C83.5936 9.75379 83.4776 9.32955 83.4776 8.83239C83.4776 8.39489 83.5638 8.04025 83.7362 7.76847C83.9085 7.49337 84.1388 7.27794 84.4272 7.12216C84.7156 6.96638 85.0337 6.85038 85.3817 6.77415C85.7331 6.6946 86.0861 6.63163 86.4407 6.58523C86.9047 6.52557 87.2809 6.48082 87.5692 6.45099C87.8609 6.41785 88.073 6.36316 88.2056 6.28693C88.3415 6.2107 88.4094 6.07812 88.4094 5.8892V5.84943C88.4094 5.3589 88.2752 4.97775 88.0067 4.70597C87.7416 4.43419 87.3389 4.2983 86.7987 4.2983C86.2385 4.2983 85.7994 4.42093 85.4812 4.66619C85.163 4.91146 84.9393 5.1733 84.81 5.4517L83.6964 5.05398C83.8952 4.58996 84.1604 4.22869 84.4918 3.97017C84.8266 3.70833 85.1912 3.52604 85.5856 3.4233C85.9833 3.31723 86.3744 3.2642 86.7589 3.2642C87.0041 3.2642 87.2859 3.29403 87.604 3.35369C87.9255 3.41004 88.2354 3.5277 88.5337 3.70668C88.8353 3.88565 89.0856 4.15578 89.2844 4.51705C89.4833 4.87831 89.5827 5.36222 89.5827 5.96875V11H88.4094V9.96591H88.3498C88.2702 10.1316 88.1377 10.3089 87.9521 10.4979C87.7665 10.6868 87.5195 10.8475 87.2113 10.9801C86.9031 11.1127 86.5269 11.179 86.0827 11.179ZM86.2617 10.125C86.7257 10.125 87.1168 10.0339 87.435 9.85156C87.7565 9.66927 87.9985 9.43395 88.1609 9.1456C88.3266 8.85724 88.4094 8.55398 88.4094 8.2358V7.16193C88.3597 7.22159 88.2504 7.27628 88.0813 7.32599C87.9156 7.3724 87.7234 7.41383 87.5046 7.45028C87.2892 7.48343 87.0787 7.51326 86.8732 7.53977C86.671 7.56297 86.507 7.58286 86.381 7.59943C86.0761 7.6392 85.7911 7.70384 85.5259 7.79332C85.2641 7.8795 85.052 8.01042 84.8896 8.18608C84.7305 8.35843 84.6509 8.59375 84.6509 8.89205C84.6509 9.29972 84.8017 9.60795 85.1033 9.81676C85.4083 10.0223 85.7944 10.125 86.2617 10.125ZM91.7243 11V3.36364H92.8578V4.51705H92.9373C93.0765 4.1392 93.3284 3.83262 93.693 3.5973C94.0576 3.36198 94.4686 3.24432 94.926 3.24432C95.0121 3.24432 95.1199 3.24597 95.2491 3.24929C95.3784 3.2526 95.4761 3.25758 95.5424 3.2642V4.45739C95.5027 4.44744 95.4115 4.43253 95.269 4.41264C95.1298 4.38944 94.9823 4.37784 94.8265 4.37784C94.4553 4.37784 94.1239 4.45573 93.8322 4.61151C93.5439 4.76397 93.3152 4.97609 93.1461 5.24787C92.9804 5.51634 92.8975 5.82292 92.8975 6.16761V11H91.7243ZM99.5843 11.1591C98.948 11.1591 98.3862 10.9983 97.899 10.6768C97.4118 10.352 97.0306 9.89465 96.7555 9.30469C96.4804 8.71141 96.3429 8.01042 96.3429 7.2017C96.3429 6.39962 96.4804 5.7036 96.7555 5.11364C97.0306 4.52367 97.4134 4.06794 97.9039 3.74645C98.3945 3.42495 98.9612 3.2642 99.6042 3.2642C100.101 3.2642 100.494 3.34706 100.782 3.51278C101.074 3.67519 101.296 3.8608 101.449 4.0696C101.604 4.27509 101.725 4.44413 101.812 4.5767H101.911V0.818182H103.084V11H101.951V9.8267H101.812C101.725 9.96591 101.603 10.1416 101.444 10.3537C101.285 10.5625 101.058 10.7498 100.763 10.9155C100.468 11.0779 100.075 11.1591 99.5843 11.1591ZM99.7434 10.1051C100.214 10.1051 100.612 9.98248 100.937 9.73722C101.261 9.48864 101.508 9.1456 101.677 8.7081C101.846 8.26728 101.931 7.75852 101.931 7.18182C101.931 6.61174 101.848 6.11293 101.682 5.68537C101.517 5.2545 101.271 4.91974 100.947 4.68111C100.622 4.43916 100.221 4.31818 99.7434 4.31818C99.2463 4.31818 98.832 4.44579 98.5005 4.70099C98.1724 4.95289 97.9255 5.29593 97.7598 5.73011C97.5974 6.16098 97.5162 6.64489 97.5162 7.18182C97.5162 7.72538 97.599 8.21922 97.7647 8.66335C97.9338 9.10417 98.1824 9.45549 98.5105 9.71733C98.8419 9.97585 99.2529 10.1051 99.7434 10.1051ZM108.936 1.91193V0.818182H116.572V1.91193H113.371V11H112.138V1.91193H108.936ZM120.41 11.1591C119.675 11.1591 119.04 10.9967 118.506 10.6719C117.976 10.3438 117.567 9.88636 117.278 9.29972C116.993 8.70975 116.851 8.02367 116.851 7.24148C116.851 6.45928 116.993 5.76989 117.278 5.1733C117.567 4.57339 117.968 4.10606 118.481 3.77131C118.998 3.43324 119.602 3.2642 120.291 3.2642C120.689 3.2642 121.081 3.33049 121.469 3.46307C121.857 3.59564 122.21 3.81108 122.528 4.10938C122.846 4.40436 123.1 4.79545 123.289 5.28267C123.478 5.76989 123.572 6.36979 123.572 7.08239V7.57955H117.686V6.56534H122.379C122.379 6.13447 122.293 5.75 122.121 5.41193C121.952 5.07386 121.71 4.80705 121.395 4.61151C121.083 4.41596 120.715 4.31818 120.291 4.31818C119.824 4.31818 119.419 4.43419 119.078 4.66619C118.74 4.89489 118.48 5.19318 118.297 5.56108C118.115 5.92898 118.024 6.32339 118.024 6.74432V7.42045C118.024 7.99716 118.123 8.48603 118.322 8.88707C118.524 9.2848 118.805 9.58807 119.162 9.79688C119.52 10.0024 119.936 10.1051 120.41 10.1051C120.719 10.1051 120.997 10.062 121.246 9.97585C121.497 9.88636 121.715 9.75379 121.897 9.57812C122.079 9.39915 122.22 9.17708 122.319 8.91193L123.453 9.23011C123.334 9.61458 123.133 9.95265 122.851 10.2443C122.57 10.5327 122.222 10.758 121.807 10.9205C121.393 11.0795 120.927 11.1591 120.41 11.1591ZM127.604 11.179C127.12 11.179 126.681 11.0878 126.287 10.9055C125.892 10.7199 125.579 10.4531 125.347 10.1051C125.115 9.75379 124.999 9.32955 124.999 8.83239C124.999 8.39489 125.085 8.04025 125.258 7.76847C125.43 7.49337 125.66 7.27794 125.949 7.12216C126.237 6.96638 126.555 6.85038 126.903 6.77415C127.255 6.6946 127.608 6.63163 127.962 6.58523C128.426 6.52557 128.802 6.48082 129.091 6.45099C129.382 6.41785 129.595 6.36316 129.727 6.28693C129.863 6.2107 129.931 6.07812 129.931 5.8892V5.84943C129.931 5.3589 129.797 4.97775 129.528 4.70597C129.263 4.43419 128.86 4.2983 128.32 4.2983C127.76 4.2983 127.321 4.42093 127.003 4.66619C126.684 4.91146 126.461 5.1733 126.331 5.4517L125.218 5.05398C125.417 4.58996 125.682 4.22869 126.013 3.97017C126.348 3.70833 126.713 3.52604 127.107 3.4233C127.505 3.31723 127.896 3.2642 128.28 3.2642C128.526 3.2642 128.807 3.29403 129.126 3.35369C129.447 3.41004 129.757 3.5277 130.055 3.70668C130.357 3.88565 130.607 4.15578 130.806 4.51705C131.005 4.87831 131.104 5.36222 131.104 5.96875V11H129.931V9.96591H129.871C129.792 10.1316 129.659 10.3089 129.474 10.4979C129.288 10.6868 129.041 10.8475 128.733 10.9801C128.425 11.1127 128.048 11.179 127.604 11.179ZM127.783 10.125C128.247 10.125 128.638 10.0339 128.956 9.85156C129.278 9.66927 129.52 9.43395 129.682 9.1456C129.848 8.85724 129.931 8.55398 129.931 8.2358V7.16193C129.881 7.22159 129.772 7.27628 129.603 7.32599C129.437 7.3724 129.245 7.41383 129.026 7.45028C128.811 7.48343 128.6 7.51326 128.395 7.53977C128.193 7.56297 128.028 7.58286 127.903 7.59943C127.598 7.6392 127.313 7.70384 127.047 7.79332C126.786 7.8795 126.573 8.01042 126.411 8.18608C126.252 8.35843 126.172 8.59375 126.172 8.89205C126.172 9.29972 126.323 9.60795 126.625 9.81676C126.93 10.0223 127.316 10.125 127.783 10.125ZM136.348 11.1591C135.632 11.1591 135.016 10.9901 134.499 10.652C133.982 10.3139 133.584 9.84825 133.305 9.25497C133.027 8.66169 132.888 7.9839 132.888 7.22159C132.888 6.44602 133.03 5.7616 133.315 5.16832C133.604 4.57173 134.005 4.10606 134.518 3.77131C135.036 3.43324 135.639 3.2642 136.328 3.2642C136.865 3.2642 137.349 3.36364 137.78 3.5625C138.211 3.76136 138.564 4.03977 138.839 4.39773C139.114 4.75568 139.285 5.1733 139.351 5.65057H138.178C138.088 5.30256 137.889 4.99432 137.581 4.72585C137.276 4.45407 136.865 4.31818 136.348 4.31818C135.891 4.31818 135.49 4.4375 135.145 4.67614C134.804 4.91146 134.537 5.24455 134.344 5.67543C134.156 6.10298 134.061 6.60511 134.061 7.18182C134.061 7.77178 134.154 8.28551 134.339 8.72301C134.528 9.16051 134.794 9.50024 135.135 9.74219C135.48 9.98414 135.884 10.1051 136.348 10.1051C136.653 10.1051 136.93 10.0521 137.178 9.94602C137.427 9.83996 137.637 9.6875 137.81 9.48864C137.982 9.28977 138.105 9.05114 138.178 8.77273H139.351C139.285 9.22348 139.121 9.6295 138.859 9.99077C138.6 10.3487 138.257 10.6338 137.83 10.8459C137.405 11.0547 136.911 11.1591 136.348 11.1591ZM142.239 6.40625V11H141.066V0.818182H142.239V4.55682H142.339C142.518 4.16241 142.786 3.84919 143.144 3.61719C143.505 3.38187 143.986 3.2642 144.586 3.2642C145.106 3.2642 145.562 3.36861 145.953 3.57741C146.344 3.78291 146.647 4.09943 146.863 4.52699C147.082 4.95123 147.191 5.49148 147.191 6.14773V11H146.018V6.22727C146.018 5.62074 145.86 5.15175 145.545 4.82031C145.234 4.48556 144.801 4.31818 144.248 4.31818C143.863 4.31818 143.519 4.39938 143.214 4.56179C142.912 4.72419 142.674 4.96117 142.498 5.27273C142.326 5.58428 142.239 5.96212 142.239 6.40625ZM152.539 11.1591C151.803 11.1591 151.169 10.9967 150.635 10.6719C150.105 10.3438 149.695 9.88636 149.407 9.29972C149.122 8.70975 148.98 8.02367 148.98 7.24148C148.98 6.45928 149.122 5.76989 149.407 5.1733C149.695 4.57339 150.097 4.10606 150.61 3.77131C151.127 3.43324 151.731 3.2642 152.42 3.2642C152.818 3.2642 153.21 3.33049 153.598 3.46307C153.986 3.59564 154.339 3.81108 154.657 4.10938C154.975 4.40436 155.229 4.79545 155.418 5.28267C155.607 5.76989 155.701 6.36979 155.701 7.08239V7.57955H149.815V6.56534H154.508C154.508 6.13447 154.422 5.75 154.249 5.41193C154.08 5.07386 153.838 4.80705 153.524 4.61151C153.212 4.41596 152.844 4.31818 152.42 4.31818C151.953 4.31818 151.548 4.43419 151.207 4.66619C150.869 4.89489 150.609 5.19318 150.426 5.56108C150.244 5.92898 150.153 6.32339 150.153 6.74432V7.42045C150.153 7.99716 150.252 8.48603 150.451 8.88707C150.653 9.2848 150.933 9.58807 151.291 9.79688C151.649 10.0024 152.065 10.1051 152.539 10.1051C152.847 10.1051 153.126 10.062 153.374 9.97585C153.626 9.88636 153.843 9.75379 154.026 9.57812C154.208 9.39915 154.349 9.17708 154.448 8.91193L155.582 9.23011C155.463 9.61458 155.262 9.95265 154.98 10.2443C154.699 10.5327 154.351 10.758 153.936 10.9205C153.522 11.0795 153.056 11.1591 152.539 11.1591ZM157.486 11V3.36364H158.619V4.51705H158.699C158.838 4.1392 159.09 3.83262 159.455 3.5973C159.819 3.36198 160.23 3.24432 160.688 3.24432C160.774 3.24432 160.882 3.24597 161.011 3.24929C161.14 3.2526 161.238 3.25758 161.304 3.2642V4.45739C161.264 4.44744 161.173 4.43253 161.031 4.41264C160.892 4.38944 160.744 4.37784 160.588 4.37784C160.217 4.37784 159.886 4.45573 159.594 4.61151C159.306 4.76397 159.077 4.97609 158.908 5.24787C158.742 5.51634 158.659 5.82292 158.659 6.16761V11H157.486ZM162.675 11.0795C162.43 11.0795 162.219 10.9917 162.044 10.8161C161.868 10.6404 161.78 10.4299 161.78 10.1847C161.78 9.93939 161.868 9.72893 162.044 9.55327C162.219 9.3776 162.43 9.28977 162.675 9.28977C162.92 9.28977 163.131 9.3776 163.306 9.55327C163.482 9.72893 163.57 9.93939 163.57 10.1847C163.57 10.3471 163.529 10.4962 163.446 10.6321C163.366 10.768 163.258 10.8774 163.123 10.9602C162.99 11.0398 162.841 11.0795 162.675 11.0795ZM170.19 11H168.897L172.636 0.818182H173.908L177.647 11H176.354L173.312 2.42898H173.232L170.19 11ZM170.667 7.02273H175.877V8.11648H170.667V7.02273ZM180.247 0.818182V11H179.074V0.818182H180.247ZM183.569 0.818182V11H182.396V0.818182H183.569ZM189.656 11V3.36364H190.789V4.51705H190.869C191.008 4.1392 191.26 3.83262 191.625 3.5973C191.989 3.36198 192.4 3.24432 192.858 3.24432C192.944 3.24432 193.051 3.24597 193.181 3.24929C193.31 3.2526 193.408 3.25758 193.474 3.2642V4.45739C193.434 4.44744 193.343 4.43253 193.201 4.41264C193.061 4.38944 192.914 4.37784 192.758 4.37784C192.387 4.37784 192.056 4.45573 191.764 4.61151C191.475 4.76397 191.247 4.97609 191.078 5.24787C190.912 5.51634 190.829 5.82292 190.829 6.16761V11H189.656ZM194.865 11V3.36364H196.038V11H194.865ZM195.461 2.09091C195.233 2.09091 195.036 2.01302 194.87 1.85724C194.707 1.70147 194.626 1.5142 194.626 1.29545C194.626 1.0767 194.707 0.889441 194.87 0.733664C195.036 0.577888 195.233 0.5 195.461 0.5C195.69 0.5 195.886 0.577888 196.048 0.733664C196.214 0.889441 196.297 1.0767 196.297 1.29545C196.297 1.5142 196.214 1.70147 196.048 1.85724C195.886 2.01302 195.69 2.09091 195.461 2.09091ZM201.27 14.0227C200.703 14.0227 200.216 13.9498 199.808 13.804C199.4 13.6615 199.06 13.4725 198.789 13.2372C198.52 13.0052 198.306 12.7566 198.147 12.4915L199.082 11.8352C199.188 11.9744 199.322 12.1335 199.485 12.3125C199.647 12.4948 199.869 12.6522 200.151 12.7848C200.436 12.9207 200.809 12.9886 201.27 12.9886C201.886 12.9886 202.395 12.8395 202.796 12.5412C203.197 12.2429 203.397 11.7756 203.397 11.1392V9.58807H203.298C203.212 9.72727 203.089 9.89962 202.93 10.1051C202.774 10.3073 202.549 10.4879 202.254 10.647C201.962 10.8028 201.568 10.8807 201.071 10.8807C200.454 10.8807 199.901 10.7348 199.41 10.4432C198.923 10.1515 198.537 9.72727 198.252 9.17045C197.97 8.61364 197.829 7.9375 197.829 7.14205C197.829 6.35985 197.967 5.67874 198.242 5.09872C198.517 4.51539 198.9 4.06463 199.39 3.74645C199.881 3.42495 200.448 3.2642 201.091 3.2642C201.588 3.2642 201.982 3.34706 202.274 3.51278C202.569 3.67519 202.794 3.8608 202.95 4.0696C203.109 4.27509 203.232 4.44413 203.318 4.5767H203.437V3.36364H204.571V11.2188C204.571 11.875 204.422 12.4086 204.123 12.8196C203.828 13.2339 203.431 13.5372 202.93 13.7294C202.433 13.925 201.879 14.0227 201.27 14.0227ZM201.23 9.8267C201.7 9.8267 202.098 9.71899 202.423 9.50355C202.748 9.28812 202.995 8.97822 203.164 8.57386C203.333 8.16951 203.417 7.68561 203.417 7.12216C203.417 6.57197 203.334 6.08641 203.169 5.66548C203.003 5.24455 202.758 4.91477 202.433 4.67614C202.108 4.4375 201.707 4.31818 201.23 4.31818C200.733 4.31818 200.318 4.44413 199.987 4.69602C199.659 4.94792 199.412 5.28598 199.246 5.71023C199.084 6.13447 199.002 6.60511 199.002 7.12216C199.002 7.65246 199.085 8.12145 199.251 8.52912C199.42 8.93348 199.669 9.25166 199.997 9.48366C200.328 9.71236 200.739 9.8267 201.23 9.8267ZM207.892 6.40625V11H206.718V0.818182H207.892V4.55682H207.991C208.17 4.16241 208.439 3.84919 208.797 3.61719C209.158 3.38187 209.638 3.2642 210.238 3.2642C210.759 3.2642 211.214 3.36861 211.605 3.57741C211.997 3.78291 212.3 4.09943 212.515 4.52699C212.734 4.95123 212.843 5.49148 212.843 6.14773V11H211.67V6.22727C211.67 5.62074 211.513 5.15175 211.198 4.82031C210.886 4.48556 210.454 4.31818 209.9 4.31818C209.516 4.31818 209.171 4.39938 208.866 4.56179C208.565 4.72419 208.326 4.96117 208.15 5.27273C207.978 5.58428 207.892 5.96212 207.892 6.40625ZM218.311 3.36364V4.35795H214.354V3.36364H218.311ZM215.507 1.53409H216.68V8.8125C216.68 9.14394 216.728 9.39252 216.824 9.55824C216.924 9.72064 217.05 9.83002 217.202 9.88636C217.358 9.93939 217.522 9.96591 217.694 9.96591C217.824 9.96591 217.93 9.95928 218.013 9.94602C218.095 9.92945 218.162 9.91619 218.211 9.90625L218.45 10.9602C218.371 10.9901 218.26 11.0199 218.117 11.0497C217.974 11.0829 217.794 11.0994 217.575 11.0994C217.244 11.0994 216.919 11.0282 216.601 10.8857C216.286 10.7431 216.024 10.526 215.815 10.2344C215.61 9.94271 215.507 9.57481 215.507 9.13068V1.53409ZM225.348 5.07386L224.294 5.37216C224.228 5.1965 224.13 5.0258 224.001 4.86009C223.875 4.69105 223.703 4.55185 223.484 4.44247C223.265 4.3331 222.985 4.27841 222.644 4.27841C222.176 4.27841 221.787 4.38613 221.475 4.60156C221.167 4.81368 221.013 5.08381 221.013 5.41193C221.013 5.7036 221.119 5.93395 221.331 6.10298C221.543 6.27202 221.875 6.41288 222.325 6.52557L223.459 6.80398C224.142 6.9697 224.651 7.22325 224.985 7.56463C225.32 7.9027 225.487 8.33854 225.487 8.87216C225.487 9.30966 225.361 9.70076 225.11 10.0455C224.861 10.3902 224.513 10.6619 224.066 10.8608C223.618 11.0597 223.098 11.1591 222.504 11.1591C221.726 11.1591 221.081 10.9901 220.57 10.652C220.06 10.3139 219.737 9.82008 219.601 9.17045L220.715 8.89205C220.821 9.30303 221.021 9.61127 221.316 9.81676C221.615 10.0223 222.004 10.125 222.485 10.125C223.031 10.125 223.466 10.009 223.787 9.77699C224.112 9.54167 224.274 9.25994 224.274 8.93182C224.274 8.66667 224.182 8.4446 223.996 8.26562C223.81 8.08333 223.525 7.94744 223.141 7.85795L221.868 7.55966C221.169 7.39394 220.655 7.13707 220.327 6.78906C220.002 6.43774 219.84 5.99858 219.84 5.47159C219.84 5.04072 219.961 4.65956 220.203 4.32812C220.448 3.99669 220.781 3.73651 221.202 3.54758C221.626 3.35866 222.107 3.2642 222.644 3.2642C223.399 3.2642 223.993 3.42992 224.423 3.76136C224.858 4.0928 225.166 4.5303 225.348 5.07386ZM231.191 11V3.36364H232.325V4.51705H232.404C232.543 4.1392 232.795 3.83262 233.16 3.5973C233.524 3.36198 233.935 3.24432 234.393 3.24432C234.479 3.24432 234.587 3.24597 234.716 3.24929C234.845 3.2526 234.943 3.25758 235.009 3.2642V4.45739C234.969 4.44744 234.878 4.43253 234.736 4.41264C234.597 4.38944 234.449 4.37784 234.293 4.37784C233.922 4.37784 233.591 4.45573 233.299 4.61151C233.011 4.76397 232.782 4.97609 232.613 5.24787C232.447 5.51634 232.364 5.82292 232.364 6.16761V11H231.191ZM239.369 11.1591C238.634 11.1591 237.999 10.9967 237.465 10.6719C236.935 10.3438 236.526 9.88636 236.237 9.29972C235.952 8.70975 235.81 8.02367 235.81 7.24148C235.81 6.45928 235.952 5.76989 236.237 5.1733C236.526 4.57339 236.927 4.10606 237.44 3.77131C237.957 3.43324 238.561 3.2642 239.25 3.2642C239.648 3.2642 240.04 3.33049 240.428 3.46307C240.816 3.59564 241.169 3.81108 241.487 4.10938C241.805 4.40436 242.059 4.79545 242.248 5.28267C242.437 5.76989 242.531 6.36979 242.531 7.08239V7.57955H236.645V6.56534H241.338C241.338 6.13447 241.252 5.75 241.08 5.41193C240.911 5.07386 240.669 4.80705 240.354 4.61151C240.042 4.41596 239.674 4.31818 239.25 4.31818C238.783 4.31818 238.378 4.43419 238.037 4.66619C237.699 4.89489 237.439 5.19318 237.256 5.56108C237.074 5.92898 236.983 6.32339 236.983 6.74432V7.42045C236.983 7.99716 237.082 8.48603 237.281 8.88707C237.483 9.2848 237.763 9.58807 238.121 9.79688C238.479 10.0024 238.895 10.1051 239.369 10.1051C239.678 10.1051 239.956 10.062 240.205 9.97585C240.456 9.88636 240.674 9.75379 240.856 9.57812C241.038 9.39915 241.179 9.17708 241.278 8.91193L242.412 9.23011C242.293 9.61458 242.092 9.95265 241.81 10.2443C241.529 10.5327 241.181 10.758 240.766 10.9205C240.352 11.0795 239.886 11.1591 239.369 11.1591ZM249.725 5.07386L248.671 5.37216C248.605 5.1965 248.507 5.0258 248.378 4.86009C248.252 4.69105 248.08 4.55185 247.861 4.44247C247.642 4.3331 247.362 4.27841 247.021 4.27841C246.553 4.27841 246.164 4.38613 245.852 4.60156C245.544 4.81368 245.39 5.08381 245.39 5.41193C245.39 5.7036 245.496 5.93395 245.708 6.10298C245.92 6.27202 246.252 6.41288 246.702 6.52557L247.836 6.80398C248.519 6.9697 249.027 7.22325 249.362 7.56463C249.697 7.9027 249.864 8.33854 249.864 8.87216C249.864 9.30966 249.738 9.70076 249.487 10.0455C249.238 10.3902 248.89 10.6619 248.442 10.8608C247.995 11.0597 247.475 11.1591 246.881 11.1591C246.103 11.1591 245.458 10.9901 244.947 10.652C244.437 10.3139 244.114 9.82008 243.978 9.17045L245.092 8.89205C245.198 9.30303 245.398 9.61127 245.693 9.81676C245.991 10.0223 246.381 10.125 246.862 10.125C247.408 10.125 247.843 10.009 248.164 9.77699C248.489 9.54167 248.651 9.25994 248.651 8.93182C248.651 8.66667 248.558 8.4446 248.373 8.26562C248.187 8.08333 247.902 7.94744 247.518 7.85795L246.245 7.55966C245.546 7.39394 245.032 7.13707 244.704 6.78906C244.379 6.43774 244.217 5.99858 244.217 5.47159C244.217 5.04072 244.338 4.65956 244.58 4.32812C244.825 3.99669 245.158 3.73651 245.579 3.54758C246.003 3.35866 246.484 3.2642 247.021 3.2642C247.776 3.2642 248.37 3.42992 248.8 3.76136C249.235 4.0928 249.543 4.5303 249.725 5.07386ZM254.832 11.1591C254.096 11.1591 253.462 10.9967 252.928 10.6719C252.398 10.3438 251.988 9.88636 251.7 9.29972C251.415 8.70975 251.273 8.02367 251.273 7.24148C251.273 6.45928 251.415 5.76989 251.7 5.1733C251.988 4.57339 252.39 4.10606 252.903 3.77131C253.42 3.43324 254.023 3.2642 254.713 3.2642C255.111 3.2642 255.503 3.33049 255.891 3.46307C256.279 3.59564 256.632 3.81108 256.95 4.10938C257.268 4.40436 257.522 4.79545 257.711 5.28267C257.9 5.76989 257.994 6.36979 257.994 7.08239V7.57955H252.108V6.56534H256.801C256.801 6.13447 256.715 5.75 256.542 5.41193C256.373 5.07386 256.131 4.80705 255.817 4.61151C255.505 4.41596 255.137 4.31818 254.713 4.31818C254.246 4.31818 253.841 4.43419 253.5 4.66619C253.162 4.89489 252.902 5.19318 252.719 5.56108C252.537 5.92898 252.446 6.32339 252.446 6.74432V7.42045C252.446 7.99716 252.545 8.48603 252.744 8.88707C252.946 9.2848 253.226 9.58807 253.584 9.79688C253.942 10.0024 254.358 10.1051 254.832 10.1051C255.14 10.1051 255.419 10.062 255.667 9.97585C255.919 9.88636 256.136 9.75379 256.319 9.57812C256.501 9.39915 256.642 9.17708 256.741 8.91193L257.875 9.23011C257.756 9.61458 257.555 9.95265 257.273 10.2443C256.992 10.5327 256.644 10.758 256.229 10.9205C255.815 11.0795 255.349 11.1591 254.832 11.1591ZM259.779 11V3.36364H260.912V4.51705H260.992C261.131 4.1392 261.383 3.83262 261.748 3.5973C262.112 3.36198 262.523 3.24432 262.981 3.24432C263.067 3.24432 263.175 3.24597 263.304 3.24929C263.433 3.2526 263.531 3.25758 263.597 3.2642V4.45739C263.557 4.44744 263.466 4.43253 263.324 4.41264C263.184 4.38944 263.037 4.37784 262.881 4.37784C262.51 4.37784 262.179 4.45573 261.887 4.61151C261.599 4.76397 261.37 4.97609 261.201 5.24787C261.035 5.51634 260.952 5.82292 260.952 6.16761V11H259.779ZM271.465 3.36364L268.641 11H267.448L264.624 3.36364H265.896L268.004 9.44886H268.084L270.192 3.36364H271.465ZM275.942 11.1591C275.206 11.1591 274.571 10.9967 274.037 10.6719C273.507 10.3438 273.098 9.88636 272.809 9.29972C272.524 8.70975 272.382 8.02367 272.382 7.24148C272.382 6.45928 272.524 5.76989 272.809 5.1733C273.098 4.57339 273.499 4.10606 274.013 3.77131C274.53 3.43324 275.133 3.2642 275.822 3.2642C276.22 3.2642 276.613 3.33049 277.001 3.46307C277.388 3.59564 277.741 3.81108 278.059 4.10938C278.378 4.40436 278.631 4.79545 278.82 5.28267C279.009 5.76989 279.104 6.36979 279.104 7.08239V7.57955H273.217V6.56534H277.91C277.91 6.13447 277.824 5.75 277.652 5.41193C277.483 5.07386 277.241 4.80705 276.926 4.61151C276.614 4.41596 276.247 4.31818 275.822 4.31818C275.355 4.31818 274.951 4.43419 274.609 4.66619C274.271 4.89489 274.011 5.19318 273.829 5.56108C273.646 5.92898 273.555 6.32339 273.555 6.74432V7.42045C273.555 7.99716 273.655 8.48603 273.854 8.88707C274.056 9.2848 274.336 9.58807 274.694 9.79688C275.052 10.0024 275.468 10.1051 275.942 10.1051C276.25 10.1051 276.528 10.062 276.777 9.97585C277.029 9.88636 277.246 9.75379 277.428 9.57812C277.61 9.39915 277.751 9.17708 277.851 8.91193L278.984 9.23011C278.865 9.61458 278.664 9.95265 278.383 10.2443C278.101 10.5327 277.753 10.758 277.339 10.9205C276.924 11.0795 276.459 11.1591 275.942 11.1591ZM283.772 11.1591C283.135 11.1591 282.574 10.9983 282.086 10.6768C281.599 10.352 281.218 9.89465 280.943 9.30469C280.668 8.71141 280.53 8.01042 280.53 7.2017C280.53 6.39962 280.668 5.7036 280.943 5.11364C281.218 4.52367 281.601 4.06794 282.091 3.74645C282.582 3.42495 283.149 3.2642 283.792 3.2642C284.289 3.2642 284.682 3.34706 284.97 3.51278C285.262 3.67519 285.484 3.8608 285.636 4.0696C285.792 4.27509 285.913 4.44413 285.999 4.5767H286.099V0.818182H287.272V11H286.138V9.8267H285.999C285.913 9.96591 285.79 10.1416 285.631 10.3537C285.472 10.5625 285.245 10.7498 284.95 10.9155C284.655 11.0779 284.262 11.1591 283.772 11.1591ZM283.931 10.1051C284.402 10.1051 284.799 9.98248 285.124 9.73722C285.449 9.48864 285.696 9.1456 285.865 8.7081C286.034 8.26728 286.118 7.75852 286.118 7.18182C286.118 6.61174 286.036 6.11293 285.87 5.68537C285.704 5.2545 285.459 4.91974 285.134 4.68111C284.809 4.43916 284.408 4.31818 283.931 4.31818C283.434 4.31818 283.019 4.44579 282.688 4.70099C282.36 4.95289 282.113 5.29593 281.947 5.73011C281.785 6.16098 281.704 6.64489 281.704 7.18182C281.704 7.72538 281.787 8.21922 281.952 8.66335C282.121 9.10417 282.37 9.45549 282.698 9.71733C283.029 9.97585 283.44 10.1051 283.931 10.1051Z" fill="white"/>
</svg>
