<svg width="478" height="31" viewBox="0 0 478 31" fill="none" xmlns="http://www.w3.org/2000/svg">
<path d="M1.65057 11H0.357955L4.09659 0.818182H5.36932L9.10795 11H7.81534L4.77273 2.42898H4.69318L1.65057 11ZM2.12784 7.02273H7.33807V8.11648H2.12784V7.02273ZM17.3558 11.1591C16.7195 11.1591 16.1577 10.9983 15.6705 10.6768C15.1832 10.352 14.8021 9.89465 14.527 9.30469C14.2519 8.71141 14.1143 8.01042 14.1143 7.2017C14.1143 6.39962 14.2519 5.7036 14.527 5.11364C14.8021 4.52367 15.1849 4.06794 15.6754 3.74645C16.166 3.42495 16.7327 3.2642 17.3757 3.2642C17.8729 3.2642 18.2656 3.34706 18.554 3.51278C18.8456 3.67519 19.0677 3.8608 19.2202 4.0696C19.3759 4.27509 19.4969 4.44413 19.5831 4.5767H19.6825V0.818182H20.8558V11H19.7223V9.8267H19.5831C19.4969 9.96591 19.3743 10.1416 19.2152 10.3537C19.0561 10.5625 18.8291 10.7498 18.5341 10.9155C18.2391 11.0779 17.8464 11.1591 17.3558 11.1591ZM17.5149 10.1051C17.9856 10.1051 18.3833 9.98248 18.7081 9.73722C19.0329 9.48864 19.2798 9.1456 19.4489 8.7081C19.6179 8.26728 19.7024 7.75852 19.7024 7.18182C19.7024 6.61174 19.6196 6.11293 19.4538 5.68537C19.2881 5.2545 19.0429 4.91974 18.718 4.68111C18.3932 4.43916 17.9922 4.31818 17.5149 4.31818C17.0178 4.31818 16.6035 4.44579 16.272 4.70099C15.9439 4.95289 15.697 5.29593 15.5312 5.73011C15.3688 6.16098 15.2876 6.64489 15.2876 7.18182C15.2876 7.72538 15.3705 8.21922 15.5362 8.66335C15.7053 9.10417 15.9538 9.45549 16.282 9.71733C16.6134 9.97585 17.0244 10.1051 17.5149 10.1051ZM23.1676 11V3.36364H24.3409V11H23.1676ZM23.7642 2.09091C23.5355 2.09091 23.3383 2.01302 23.1726 1.85724C23.0102 1.70147 22.929 1.5142 22.929 1.29545C22.929 1.0767 23.0102 0.889441 23.1726 0.733664C23.3383 0.577888 23.5355 0.5 23.7642 0.5C23.9929 0.5 24.1884 0.577888 24.3509 0.733664C24.5166 0.889441 24.5994 1.0767 24.5994 1.29545C24.5994 1.5142 24.5166 1.70147 24.3509 1.85724C24.1884 2.01302 23.9929 2.09091 23.7642 2.09091ZM29.5723 14.0227C29.0055 14.0227 28.5183 13.9498 28.1106 13.804C27.7029 13.6615 27.3632 13.4725 27.0914 13.2372C26.823 13.0052 26.6092 12.7566 26.4501 12.4915L27.3848 11.8352C27.4908 11.9744 27.6251 12.1335 27.7875 12.3125C27.9499 12.4948 28.1719 12.6522 28.4537 12.7848C28.7387 12.9207 29.1116 12.9886 29.5723 12.9886C30.1887 12.9886 30.6975 12.8395 31.0985 12.5412C31.4996 12.2429 31.7001 11.7756 31.7001 11.1392V9.58807H31.6007C31.5145 9.72727 31.3919 9.89962 31.2328 10.1051C31.077 10.3073 30.8516 10.4879 30.5566 10.647C30.265 10.8028 29.8706 10.8807 29.3734 10.8807C28.7569 10.8807 28.2034 10.7348 27.7129 10.4432C27.2257 10.1515 26.8395 9.72727 26.5545 9.17045C26.2728 8.61364 26.1319 7.9375 26.1319 7.14205C26.1319 6.35985 26.2695 5.67874 26.5446 5.09872C26.8197 4.51539 27.2025 4.06463 27.693 3.74645C28.1835 3.42495 28.7503 3.2642 29.3933 3.2642C29.8904 3.2642 30.2849 3.34706 30.5765 3.51278C30.8715 3.67519 31.0969 3.8608 31.2527 4.0696C31.4118 4.27509 31.5344 4.44413 31.6206 4.5767H31.7399V3.36364H32.8734V11.2188C32.8734 11.875 32.7243 12.4086 32.426 12.8196C32.131 13.2339 31.7333 13.5372 31.2328 13.7294C30.7356 13.925 30.1821 14.0227 29.5723 14.0227ZM29.5325 9.8267C30.0031 9.8267 30.4009 9.71899 30.7257 9.50355C31.0505 9.28812 31.2974 8.97822 31.4664 8.57386C31.6355 8.16951 31.72 7.68561 31.72 7.12216C31.72 6.57197 31.6371 6.08641 31.4714 5.66548C31.3057 5.24455 31.0604 4.91477 30.7356 4.67614C30.4108 4.4375 30.0098 4.31818 29.5325 4.31818C29.0353 4.31818 28.621 4.44413 28.2896 4.69602C27.9615 4.94792 27.7145 5.28598 27.5488 5.71023C27.3864 6.13447 27.3052 6.60511 27.3052 7.12216C27.3052 7.65246 27.3881 8.12145 27.5538 8.52912C27.7228 8.93348 27.9714 9.25166 28.2995 9.48366C28.631 9.71236 29.042 9.8267 29.5325 9.8267ZM35.0211 11V3.36364H36.1944V11H35.0211ZM35.6177 2.09091C35.389 2.09091 35.1918 2.01302 35.0261 1.85724C34.8637 1.70147 34.7825 1.5142 34.7825 1.29545C34.7825 1.0767 34.8637 0.889441 35.0261 0.733664C35.1918 0.577888 35.389 0.5 35.6177 0.5C35.8464 0.5 36.042 0.577888 36.2044 0.733664C36.3701 0.889441 36.4529 1.0767 36.4529 1.29545C36.4529 1.5142 36.3701 1.70147 36.2044 1.85724C36.042 2.01302 35.8464 2.09091 35.6177 2.09091ZM41.6644 3.36364V4.35795H37.707V3.36364H41.6644ZM38.8604 1.53409H40.0337V8.8125C40.0337 9.14394 40.0818 9.39252 40.1779 9.55824C40.2773 9.72064 40.4033 9.83002 40.5558 9.88636C40.7115 9.93939 40.8756 9.96591 41.0479 9.96591C41.1772 9.96591 41.2833 9.95928 41.3661 9.94602C41.449 9.92945 41.5153 9.91619 41.565 9.90625L41.8036 10.9602C41.7241 10.9901 41.613 11.0199 41.4705 11.0497C41.328 11.0829 41.1474 11.0994 40.9286 11.0994C40.5972 11.0994 40.2724 11.0282 39.9542 10.8857C39.6393 10.7431 39.3775 10.526 39.1687 10.2344C38.9632 9.94271 38.8604 9.57481 38.8604 9.13068V1.53409ZM45.6765 11.179C45.1926 11.179 44.7534 11.0878 44.359 10.9055C43.9646 10.7199 43.6514 10.4531 43.4194 10.1051C43.1874 9.75379 43.0714 9.32955 43.0714 8.83239C43.0714 8.39489 43.1576 8.04025 43.3299 7.76847C43.5022 7.49337 43.7326 7.27794 44.021 7.12216C44.3093 6.96638 44.6275 6.85038 44.9755 6.77415C45.3268 6.6946 45.6798 6.63163 46.0344 6.58523C46.4985 6.52557 46.8746 6.48082 47.163 6.45099C47.4547 6.41785 47.6668 6.36316 47.7994 6.28693C47.9353 6.2107 48.0032 6.07812 48.0032 5.8892V5.84943C48.0032 5.3589 47.869 4.97775 47.6005 4.70597C47.3353 4.43419 46.9326 4.2983 46.3924 4.2983C45.8323 4.2983 45.3931 4.42093 45.0749 4.66619C44.7567 4.91146 44.533 5.1733 44.4038 5.4517L43.2901 5.05398C43.489 4.58996 43.7541 4.22869 44.0856 3.97017C44.4203 3.70833 44.7849 3.52604 45.1793 3.4233C45.5771 3.31723 45.9682 3.2642 46.3526 3.2642C46.5979 3.2642 46.8796 3.29403 47.1978 3.35369C47.5193 3.41004 47.8292 3.5277 48.1275 3.70668C48.4291 3.88565 48.6793 4.15578 48.8782 4.51705C49.0771 4.87831 49.1765 5.36222 49.1765 5.96875V11H48.0032V9.96591H47.9435C47.864 10.1316 47.7314 10.3089 47.5458 10.4979C47.3602 10.6868 47.1133 10.8475 46.805 10.9801C46.4968 11.1127 46.1206 11.179 45.6765 11.179ZM45.8555 10.125C46.3195 10.125 46.7106 10.0339 47.0288 9.85156C47.3503 9.66927 47.5922 9.43395 47.7546 9.1456C47.9203 8.85724 48.0032 8.55398 48.0032 8.2358V7.16193C47.9535 7.22159 47.8441 7.27628 47.6751 7.32599C47.5094 7.3724 47.3171 7.41383 47.0984 7.45028C46.8829 7.48343 46.6725 7.51326 46.467 7.53977C46.2648 7.56297 46.1007 7.58286 45.9748 7.59943C45.6699 7.6392 45.3848 7.70384 45.1197 7.79332C44.8578 7.8795 44.6457 8.01042 44.4833 8.18608C44.3242 8.35843 44.2447 8.59375 44.2447 8.89205C44.2447 9.29972 44.3955 9.60795 44.6971 9.81676C45.002 10.0223 45.3881 10.125 45.8555 10.125ZM52.4913 0.818182V11H51.318V0.818182H52.4913ZM58.5778 13.8636V3.36364H59.7113V4.5767H59.8505C59.9367 4.44413 60.056 4.27509 60.2085 4.0696C60.3642 3.8608 60.5863 3.67519 60.8746 3.51278C61.1663 3.34706 61.5607 3.2642 62.0579 3.2642C62.7009 3.2642 63.2676 3.42495 63.7582 3.74645C64.2487 4.06794 64.6315 4.52367 64.9066 5.11364C65.1817 5.7036 65.3192 6.39962 65.3192 7.2017C65.3192 8.01042 65.1817 8.71141 64.9066 9.30469C64.6315 9.89465 64.2504 10.352 63.7631 10.6768C63.2759 10.9983 62.7141 11.1591 62.0778 11.1591C61.5872 11.1591 61.1945 11.0779 60.8995 10.9155C60.6045 10.7498 60.3775 10.5625 60.2184 10.3537C60.0593 10.1416 59.9367 9.96591 59.8505 9.8267H59.7511V13.8636H58.5778ZM59.7312 7.18182C59.7312 7.75852 59.8157 8.26728 59.9847 8.7081C60.1538 9.1456 60.4007 9.48864 60.7255 9.73722C61.0503 9.98248 61.448 10.1051 61.9187 10.1051C62.4092 10.1051 62.8185 9.97585 63.1467 9.71733C63.4781 9.45549 63.7267 9.10417 63.8924 8.66335C64.0614 8.21922 64.146 7.72538 64.146 7.18182C64.146 6.64489 64.0631 6.16098 63.8974 5.73011C63.735 5.29593 63.488 4.95289 63.1566 4.70099C62.8285 4.44579 62.4158 4.31818 61.9187 4.31818C61.4414 4.31818 61.0404 4.43916 60.7156 4.68111C60.3907 4.91974 60.1455 5.2545 59.9798 5.68537C59.814 6.11293 59.7312 6.61174 59.7312 7.18182ZM68.2823 0.818182V11H67.109V0.818182H68.2823ZM72.6784 11.179C72.1945 11.179 71.7554 11.0878 71.361 10.9055C70.9666 10.7199 70.6533 10.4531 70.4213 10.1051C70.1893 9.75379 70.0733 9.32955 70.0733 8.83239C70.0733 8.39489 70.1595 8.04025 70.3319 7.76847C70.5042 7.49337 70.7346 7.27794 71.0229 7.12216C71.3113 6.96638 71.6294 6.85038 71.9775 6.77415C72.3288 6.6946 72.6818 6.63163 73.0364 6.58523C73.5004 6.52557 73.8766 6.48082 74.165 6.45099C74.4566 6.41785 74.6687 6.36316 74.8013 6.28693C74.9372 6.2107 75.0051 6.07812 75.0051 5.8892V5.84943C75.0051 5.3589 74.8709 4.97775 74.6025 4.70597C74.3373 4.43419 73.9346 4.2983 73.3944 4.2983C72.8342 4.2983 72.3951 4.42093 72.0769 4.66619C71.7587 4.91146 71.535 5.1733 71.4057 5.4517L70.2921 5.05398C70.4909 4.58996 70.7561 4.22869 71.0875 3.97017C71.4223 3.70833 71.7869 3.52604 72.1813 3.4233C72.579 3.31723 72.9701 3.2642 73.3546 3.2642C73.5998 3.2642 73.8816 3.29403 74.1998 3.35369C74.5212 3.41004 74.8311 3.5277 75.1294 3.70668C75.431 3.88565 75.6813 4.15578 75.8801 4.51705C76.079 4.87831 76.1784 5.36222 76.1784 5.96875V11H75.0051V9.96591H74.9455C74.8659 10.1316 74.7334 10.3089 74.5478 10.4979C74.3622 10.6868 74.1152 10.8475 73.807 10.9801C73.4988 11.1127 73.1226 11.179 72.6784 11.179ZM72.8574 10.125C73.3214 10.125 73.7125 10.0339 74.0307 9.85156C74.3522 9.66927 74.5942 9.43395 74.7566 9.1456C74.9223 8.85724 75.0051 8.55398 75.0051 8.2358V7.16193C74.9554 7.22159 74.8461 7.27628 74.677 7.32599C74.5113 7.3724 74.3191 7.41383 74.1003 7.45028C73.8849 7.48343 73.6744 7.51326 73.4689 7.53977C73.2667 7.56297 73.1027 7.58286 72.9767 7.59943C72.6718 7.6392 72.3868 7.70384 72.1216 7.79332C71.8598 7.8795 71.6477 8.01042 71.4853 8.18608C71.3262 8.35843 71.2466 8.59375 71.2466 8.89205C71.2466 9.29972 71.3974 9.60795 71.699 9.81676C72.004 10.0223 72.3901 10.125 72.8574 10.125ZM81.641 3.36364V4.35795H77.6836V3.36364H81.641ZM78.837 1.53409H80.0103V8.8125C80.0103 9.14394 80.0584 9.39252 80.1545 9.55824C80.2539 9.72064 80.3799 9.83002 80.5323 9.88636C80.6881 9.93939 80.8522 9.96591 81.0245 9.96591C81.1538 9.96591 81.2598 9.95928 81.3427 9.94602C81.4255 9.92945 81.4918 9.91619 81.5415 9.90625L81.7802 10.9602C81.7006 10.9901 81.5896 11.0199 81.4471 11.0497C81.3046 11.0829 81.1239 11.0994 80.9052 11.0994C80.5737 11.0994 80.2489 11.0282 79.9308 10.8857C79.6159 10.7431 79.354 10.526 79.1452 10.2344C78.9397 9.94271 78.837 9.57481 78.837 9.13068V1.53409ZM86.8065 3.36364V4.35795H82.69V3.36364H86.8065ZM83.9229 11V2.30966C83.9229 1.87216 84.0257 1.50758 84.2312 1.21591C84.4367 0.924242 84.7035 0.705492 85.0316 0.559658C85.3597 0.413825 85.7061 0.340908 86.0707 0.340908C86.359 0.340908 86.5943 0.364109 86.7766 0.410511C86.9589 0.456912 87.0948 0.499999 87.1843 0.539772L86.8462 1.55398C86.7866 1.53409 86.7037 1.50923 86.5977 1.4794C86.4949 1.44957 86.359 1.43466 86.19 1.43466C85.8022 1.43466 85.5221 1.53243 85.3498 1.72798C85.1808 1.92353 85.0962 2.21023 85.0962 2.58807V11H83.9229ZM91.2386 11.1591C90.5492 11.1591 89.9444 10.995 89.424 10.6669C88.907 10.3388 88.5026 9.87973 88.2109 9.28977C87.9226 8.69981 87.7784 8.01042 87.7784 7.22159C87.7784 6.42614 87.9226 5.73177 88.2109 5.13849C88.5026 4.54522 88.907 4.08452 89.424 3.75639C89.9444 3.42827 90.5492 3.2642 91.2386 3.2642C91.928 3.2642 92.5313 3.42827 93.0483 3.75639C93.5687 4.08452 93.973 4.54522 94.2614 5.13849C94.553 5.73177 94.6989 6.42614 94.6989 7.22159C94.6989 8.01042 94.553 8.69981 94.2614 9.28977C93.973 9.87973 93.5687 10.3388 93.0483 10.6669C92.5313 10.995 91.928 11.1591 91.2386 11.1591ZM91.2386 10.1051C91.7623 10.1051 92.1932 9.97088 92.5312 9.70241C92.8693 9.43395 93.1196 9.08097 93.282 8.64347C93.4444 8.20597 93.5256 7.73201 93.5256 7.22159C93.5256 6.71117 93.4444 6.23556 93.282 5.79474C93.1196 5.35393 92.8693 4.99763 92.5312 4.72585C92.1932 4.45407 91.7623 4.31818 91.2386 4.31818C90.715 4.31818 90.2841 4.45407 89.946 4.72585C89.608 4.99763 89.3577 5.35393 89.1953 5.79474C89.0329 6.23556 88.9517 6.71117 88.9517 7.22159C88.9517 7.73201 89.0329 8.20597 89.1953 8.64347C89.3577 9.08097 89.608 9.43395 89.946 9.70241C90.2841 9.97088 90.715 10.1051 91.2386 10.1051ZM96.4899 11V3.36364H97.6234V4.51705H97.7029C97.8422 4.1392 98.094 3.83262 98.4586 3.5973C98.8232 3.36198 99.2342 3.24432 99.6916 3.24432C99.7778 3.24432 99.8855 3.24597 100.015 3.24929C100.144 3.2526 100.242 3.25758 100.308 3.2642V4.45739C100.268 4.44744 100.177 4.43253 100.035 4.41264C99.8954 4.38944 99.7479 4.37784 99.5922 4.37784C99.2209 4.37784 98.8895 4.45573 98.5978 4.61151C98.3095 4.76397 98.0808 4.97609 97.9118 5.24787C97.746 5.51634 97.6632 5.82292 97.6632 6.16761V11H96.4899ZM101.699 11V3.36364H102.832V4.55682H102.932C103.091 4.14915 103.348 3.83262 103.702 3.60724C104.057 3.37855 104.483 3.2642 104.98 3.2642C105.484 3.2642 105.903 3.37855 106.238 3.60724C106.576 3.83262 106.839 4.14915 107.028 4.55682H107.108C107.304 4.16241 107.597 3.84919 107.988 3.61719C108.379 3.38187 108.848 3.2642 109.395 3.2642C110.078 3.2642 110.636 3.47798 111.07 3.90554C111.504 4.32978 111.722 4.991 111.722 5.8892V11H110.548V5.8892C110.548 5.32576 110.394 4.92306 110.086 4.68111C109.778 4.43916 109.415 4.31818 108.997 4.31818C108.46 4.31818 108.044 4.48059 107.749 4.8054C107.454 5.12689 107.307 5.53456 107.307 6.02841V11H106.114V5.76989C106.114 5.3357 105.973 4.98603 105.691 4.72088C105.409 4.45241 105.046 4.31818 104.602 4.31818C104.297 4.31818 104.012 4.39938 103.747 4.56179C103.485 4.72419 103.273 4.94957 103.111 5.23793C102.952 5.52296 102.872 5.85275 102.872 6.22727V11H101.699ZM121.125 3.36364V4.35795H117.168V3.36364H121.125ZM118.321 1.53409H119.495V8.8125C119.495 9.14394 119.543 9.39252 119.639 9.55824C119.738 9.72064 119.864 9.83002 120.017 9.88636C120.172 9.93939 120.337 9.96591 120.509 9.96591C120.638 9.96591 120.744 9.95928 120.827 9.94602C120.91 9.92945 120.976 9.91619 121.026 9.90625L121.265 10.9602C121.185 10.9901 121.074 11.0199 120.931 11.0497C120.789 11.0829 120.608 11.0994 120.39 11.0994C120.058 11.0994 119.733 11.0282 119.415 10.8857C119.1 10.7431 118.838 10.526 118.63 10.2344C118.424 9.94271 118.321 9.57481 118.321 9.13068V1.53409ZM124.228 6.40625V11H123.054V0.818182H124.228V4.55682H124.327C124.506 4.16241 124.775 3.84919 125.132 3.61719C125.494 3.38187 125.974 3.2642 126.574 3.2642C127.095 3.2642 127.55 3.36861 127.941 3.57741C128.333 3.78291 128.636 4.09943 128.851 4.52699C129.07 4.95123 129.179 5.49148 129.179 6.14773V11H128.006V6.22727C128.006 5.62074 127.849 5.15175 127.534 4.82031C127.222 4.48556 126.79 4.31818 126.236 4.31818C125.852 4.31818 125.507 4.39938 125.202 4.56179C124.9 4.72419 124.662 4.96117 124.486 5.27273C124.314 5.58428 124.228 5.96212 124.228 6.40625ZM133.573 11.179C133.089 11.179 132.65 11.0878 132.256 10.9055C131.861 10.7199 131.548 10.4531 131.316 10.1051C131.084 9.75379 130.968 9.32955 130.968 8.83239C130.968 8.39489 131.054 8.04025 131.226 7.76847C131.399 7.49337 131.629 7.27794 131.917 7.12216C132.206 6.96638 132.524 6.85038 132.872 6.77415C133.223 6.6946 133.576 6.63163 133.931 6.58523C134.395 6.52557 134.771 6.48082 135.059 6.45099C135.351 6.41785 135.563 6.36316 135.696 6.28693C135.832 6.2107 135.9 6.07812 135.9 5.8892V5.84943C135.9 5.3589 135.765 4.97775 135.497 4.70597C135.232 4.43419 134.829 4.2983 134.289 4.2983C133.729 4.2983 133.29 4.42093 132.971 4.66619C132.653 4.91146 132.43 5.1733 132.3 5.4517L131.187 5.05398C131.385 4.58996 131.651 4.22869 131.982 3.97017C132.317 3.70833 132.681 3.52604 133.076 3.4233C133.474 3.31723 133.865 3.2642 134.249 3.2642C134.494 3.2642 134.776 3.29403 135.094 3.35369C135.416 3.41004 135.726 3.5277 136.024 3.70668C136.326 3.88565 136.576 4.15578 136.775 4.51705C136.974 4.87831 137.073 5.36222 137.073 5.96875V11H135.9V9.96591H135.84C135.76 10.1316 135.628 10.3089 135.442 10.4979C135.257 10.6868 135.01 10.8475 134.702 10.9801C134.393 11.1127 134.017 11.179 133.573 11.179ZM133.752 10.125C134.216 10.125 134.607 10.0339 134.925 9.85156C135.247 9.66927 135.489 9.43395 135.651 9.1456C135.817 8.85724 135.9 8.55398 135.9 8.2358V7.16193C135.85 7.22159 135.741 7.27628 135.572 7.32599C135.406 7.3724 135.214 7.41383 134.995 7.45028C134.779 7.48343 134.569 7.51326 134.363 7.53977C134.161 7.56297 133.997 7.58286 133.871 7.59943C133.566 7.6392 133.281 7.70384 133.016 7.79332C132.754 7.8795 132.542 8.01042 132.38 8.18608C132.221 8.35843 132.141 8.59375 132.141 8.89205C132.141 9.29972 132.292 9.60795 132.594 9.81676C132.898 10.0223 133.285 10.125 133.752 10.125ZM142.536 3.36364V4.35795H138.578V3.36364H142.536ZM139.732 1.53409H140.905V8.8125C140.905 9.14394 140.953 9.39252 141.049 9.55824C141.148 9.72064 141.274 9.83002 141.427 9.88636C141.583 9.93939 141.747 9.96591 141.919 9.96591C142.048 9.96591 142.154 9.95928 142.237 9.94602C142.32 9.92945 142.386 9.91619 142.436 9.90625L142.675 10.9602C142.595 10.9901 142.484 11.0199 142.342 11.0497C142.199 11.0829 142.018 11.0994 141.8 11.0994C141.468 11.0994 141.143 11.0282 140.825 10.8857C140.51 10.7431 140.249 10.526 140.04 10.2344C139.834 9.94271 139.732 9.57481 139.732 9.13068V1.53409ZM151.121 11.1591C150.485 11.1591 149.923 10.9983 149.436 10.6768C148.949 10.352 148.568 9.89465 148.293 9.30469C148.018 8.71141 147.88 8.01042 147.88 7.2017C147.88 6.39962 148.018 5.7036 148.293 5.11364C148.568 4.52367 148.951 4.06794 149.441 3.74645C149.932 3.42495 150.498 3.2642 151.141 3.2642C151.638 3.2642 152.031 3.34706 152.32 3.51278C152.611 3.67519 152.833 3.8608 152.986 4.0696C153.142 4.27509 153.263 4.44413 153.349 4.5767H153.448V0.818182H154.621V11H153.488V9.8267H153.349C153.263 9.96591 153.14 10.1416 152.981 10.3537C152.822 10.5625 152.595 10.7498 152.3 10.9155C152.005 11.0779 151.612 11.1591 151.121 11.1591ZM151.281 10.1051C151.751 10.1051 152.149 9.98248 152.474 9.73722C152.799 9.48864 153.045 9.1456 153.214 8.7081C153.384 8.26728 153.468 7.75852 153.468 7.18182C153.468 6.61174 153.385 6.11293 153.219 5.68537C153.054 5.2545 152.808 4.91974 152.484 4.68111C152.159 4.43916 151.758 4.31818 151.281 4.31818C150.783 4.31818 150.369 4.44579 150.038 4.70099C149.71 4.95289 149.463 5.29593 149.297 5.73011C149.134 6.16098 149.053 6.64489 149.053 7.18182C149.053 7.72538 149.136 8.21922 149.302 8.66335C149.471 9.10417 149.719 9.45549 150.048 9.71733C150.379 9.97585 150.79 10.1051 151.281 10.1051ZM156.933 11V3.36364H158.107V11H156.933ZM157.53 2.09091C157.301 2.09091 157.104 2.01302 156.938 1.85724C156.776 1.70147 156.695 1.5142 156.695 1.29545C156.695 1.0767 156.776 0.889441 156.938 0.733664C157.104 0.577888 157.301 0.5 157.53 0.5C157.759 0.5 157.954 0.577888 158.116 0.733664C158.282 0.889441 158.365 1.0767 158.365 1.29545C158.365 1.5142 158.282 1.70147 158.116 1.85724C157.954 2.01302 157.759 2.09091 157.53 2.09091ZM163.338 14.0227C162.771 14.0227 162.284 13.9498 161.876 13.804C161.469 13.6615 161.129 13.4725 160.857 13.2372C160.589 13.0052 160.375 12.7566 160.216 12.4915L161.15 11.8352C161.256 11.9744 161.391 12.1335 161.553 12.3125C161.715 12.4948 161.938 12.6522 162.219 12.7848C162.504 12.9207 162.877 12.9886 163.338 12.9886C163.954 12.9886 164.463 12.8395 164.864 12.5412C165.265 12.2429 165.466 11.7756 165.466 11.1392V9.58807H165.366C165.28 9.72727 165.157 9.89962 164.998 10.1051C164.843 10.3073 164.617 10.4879 164.322 10.647C164.031 10.8028 163.636 10.8807 163.139 10.8807C162.523 10.8807 161.969 10.7348 161.479 10.4432C160.991 10.1515 160.605 9.72727 160.32 9.17045C160.038 8.61364 159.898 7.9375 159.898 7.14205C159.898 6.35985 160.035 5.67874 160.31 5.09872C160.585 4.51539 160.968 4.06463 161.459 3.74645C161.949 3.42495 162.516 3.2642 163.159 3.2642C163.656 3.2642 164.05 3.34706 164.342 3.51278C164.637 3.67519 164.863 3.8608 165.018 4.0696C165.177 4.27509 165.3 4.44413 165.386 4.5767H165.506V3.36364H166.639V11.2188C166.639 11.875 166.49 12.4086 166.192 12.8196C165.897 13.2339 165.499 13.5372 164.998 13.7294C164.501 13.925 163.948 14.0227 163.338 14.0227ZM163.298 9.8267C163.769 9.8267 164.166 9.71899 164.491 9.50355C164.816 9.28812 165.063 8.97822 165.232 8.57386C165.401 8.16951 165.486 7.68561 165.486 7.12216C165.486 6.57197 165.403 6.08641 165.237 5.66548C165.071 5.24455 164.826 4.91477 164.501 4.67614C164.176 4.4375 163.775 4.31818 163.298 4.31818C162.801 4.31818 162.387 4.44413 162.055 4.69602C161.727 4.94792 161.48 5.28598 161.314 5.71023C161.152 6.13447 161.071 6.60511 161.071 7.12216C161.071 7.65246 161.154 8.12145 161.319 8.52912C161.488 8.93348 161.737 9.25166 162.065 9.48366C162.397 9.71236 162.808 9.8267 163.298 9.8267ZM168.787 11V3.36364H169.96V11H168.787ZM169.383 2.09091C169.155 2.09091 168.957 2.01302 168.792 1.85724C168.629 1.70147 168.548 1.5142 168.548 1.29545C168.548 1.0767 168.629 0.889441 168.792 0.733664C168.957 0.577888 169.155 0.5 169.383 0.5C169.612 0.5 169.808 0.577888 169.97 0.733664C170.136 0.889441 170.219 1.0767 170.219 1.29545C170.219 1.5142 170.136 1.70147 169.97 1.85724C169.808 2.01302 169.612 2.09091 169.383 2.09091ZM175.43 3.36364V4.35795H171.473V3.36364H175.43ZM172.626 1.53409H173.799V8.8125C173.799 9.14394 173.847 9.39252 173.944 9.55824C174.043 9.72064 174.169 9.83002 174.321 9.88636C174.477 9.93939 174.641 9.96591 174.814 9.96591C174.943 9.96591 175.049 9.95928 175.132 9.94602C175.215 9.92945 175.281 9.91619 175.331 9.90625L175.569 10.9602C175.49 10.9901 175.379 11.0199 175.236 11.0497C175.094 11.0829 174.913 11.0994 174.694 11.0994C174.363 11.0994 174.038 11.0282 173.72 10.8857C173.405 10.7431 173.143 10.526 172.934 10.2344C172.729 9.94271 172.626 9.57481 172.626 9.13068V1.53409ZM177.195 11V3.36364H178.368V11H177.195ZM177.792 2.09091C177.563 2.09091 177.366 2.01302 177.2 1.85724C177.038 1.70147 176.956 1.5142 176.956 1.29545C176.956 1.0767 177.038 0.889441 177.2 0.733664C177.366 0.577888 177.563 0.5 177.792 0.5C178.02 0.5 178.216 0.577888 178.378 0.733664C178.544 0.889441 178.627 1.0767 178.627 1.29545C178.627 1.5142 178.544 1.70147 178.378 1.85724C178.216 2.01302 178.02 2.09091 177.792 2.09091ZM180.298 11V10.1051L184.634 4.53693V4.45739H180.438V3.36364H186.145V4.2983L181.929 9.8267V9.90625H186.284V11H180.298ZM191.074 11.1591C190.339 11.1591 189.704 10.9967 189.17 10.6719C188.64 10.3438 188.231 9.88636 187.942 9.29972C187.657 8.70975 187.515 8.02367 187.515 7.24148C187.515 6.45928 187.657 5.76989 187.942 5.1733C188.231 4.57339 188.632 4.10606 189.145 3.77131C189.662 3.43324 190.266 3.2642 190.955 3.2642C191.353 3.2642 191.746 3.33049 192.133 3.46307C192.521 3.59564 192.874 3.81108 193.192 4.10938C193.51 4.40436 193.764 4.79545 193.953 5.28267C194.142 5.76989 194.236 6.36979 194.236 7.08239V7.57955H188.35V6.56534H193.043C193.043 6.13447 192.957 5.75 192.785 5.41193C192.616 5.07386 192.374 4.80705 192.059 4.61151C191.747 4.41596 191.379 4.31818 190.955 4.31818C190.488 4.31818 190.083 4.43419 189.742 4.66619C189.404 4.89489 189.144 5.19318 188.961 5.56108C188.779 5.92898 188.688 6.32339 188.688 6.74432V7.42045C188.688 7.99716 188.787 8.48603 188.986 8.88707C189.189 9.2848 189.469 9.58807 189.827 9.79688C190.184 10.0024 190.6 10.1051 191.074 10.1051C191.383 10.1051 191.661 10.062 191.91 9.97585C192.162 9.88636 192.379 9.75379 192.561 9.57812C192.743 9.39915 192.884 9.17708 192.983 8.91193L194.117 9.23011C193.998 9.61458 193.797 9.95265 193.515 10.2443C193.234 10.5327 192.886 10.758 192.471 10.9205C192.057 11.0795 191.591 11.1591 191.074 11.1591ZM201.43 5.07386L200.376 5.37216C200.31 5.1965 200.212 5.0258 200.083 4.86009C199.957 4.69105 199.785 4.55185 199.566 4.44247C199.347 4.3331 199.067 4.27841 198.726 4.27841C198.258 4.27841 197.869 4.38613 197.557 4.60156C197.249 4.81368 197.095 5.08381 197.095 5.41193C197.095 5.7036 197.201 5.93395 197.413 6.10298C197.625 6.27202 197.957 6.41288 198.407 6.52557L199.541 6.80398C200.224 6.9697 200.733 7.22325 201.067 7.56463C201.402 7.9027 201.569 8.33854 201.569 8.87216C201.569 9.30966 201.443 9.70076 201.192 10.0455C200.943 10.3902 200.595 10.6619 200.148 10.8608C199.7 11.0597 199.18 11.1591 198.586 11.1591C197.808 11.1591 197.163 10.9901 196.653 10.652C196.142 10.3139 195.819 9.82008 195.683 9.17045L196.797 8.89205C196.903 9.30303 197.103 9.61127 197.398 9.81676C197.697 10.0223 198.086 10.125 198.567 10.125C199.113 10.125 199.548 10.009 199.869 9.77699C200.194 9.54167 200.356 9.25994 200.356 8.93182C200.356 8.66667 200.264 8.4446 200.078 8.26562C199.892 8.08333 199.607 7.94744 199.223 7.85795L197.95 7.55966C197.251 7.39394 196.737 7.13707 196.409 6.78906C196.084 6.43774 195.922 5.99858 195.922 5.47159C195.922 5.04072 196.043 4.65956 196.285 4.32812C196.53 3.99669 196.863 3.73651 197.284 3.54758C197.708 3.35866 198.189 3.2642 198.726 3.2642C199.481 3.2642 200.075 3.42992 200.506 3.76136C200.94 4.0928 201.248 4.5303 201.43 5.07386ZM210.594 3.36364V4.35795H206.637V3.36364H210.594ZM207.79 1.53409H208.963V8.8125C208.963 9.14394 209.011 9.39252 209.108 9.55824C209.207 9.72064 209.333 9.83002 209.485 9.88636C209.641 9.93939 209.805 9.96591 209.978 9.96591C210.107 9.96591 210.213 9.95928 210.296 9.94602C210.379 9.92945 210.445 9.91619 210.495 9.90625L210.733 10.9602C210.654 10.9901 210.543 11.0199 210.4 11.0497C210.258 11.0829 210.077 11.0994 209.858 11.0994C209.527 11.0994 209.202 11.0282 208.884 10.8857C208.569 10.7431 208.307 10.526 208.098 10.2344C207.893 9.94271 207.79 9.57481 207.79 9.13068V1.53409ZM213.696 6.40625V11H212.523V0.818182H213.696V4.55682H213.796C213.975 4.16241 214.243 3.84919 214.601 3.61719C214.962 3.38187 215.443 3.2642 216.043 3.2642C216.563 3.2642 217.019 3.36861 217.41 3.57741C217.801 3.78291 218.105 4.09943 218.32 4.52699C218.539 4.95123 218.648 5.49148 218.648 6.14773V11H217.475V6.22727C217.475 5.62074 217.317 5.15175 217.002 4.82031C216.691 4.48556 216.258 4.31818 215.705 4.31818C215.32 4.31818 214.976 4.39938 214.671 4.56179C214.369 4.72419 214.131 4.96117 213.955 5.27273C213.783 5.58428 213.696 5.96212 213.696 6.40625ZM223.996 11.1591C223.26 11.1591 222.626 10.9967 222.092 10.6719C221.562 10.3438 221.153 9.88636 220.864 9.29972C220.579 8.70975 220.437 8.02367 220.437 7.24148C220.437 6.45928 220.579 5.76989 220.864 5.1733C221.153 4.57339 221.554 4.10606 222.067 3.77131C222.584 3.43324 223.188 3.2642 223.877 3.2642C224.275 3.2642 224.667 3.33049 225.055 3.46307C225.443 3.59564 225.796 3.81108 226.114 4.10938C226.432 4.40436 226.686 4.79545 226.875 5.28267C227.064 5.76989 227.158 6.36979 227.158 7.08239V7.57955H221.272V6.56534H225.965C225.965 6.13447 225.879 5.75 225.706 5.41193C225.537 5.07386 225.296 4.80705 224.981 4.61151C224.669 4.41596 224.301 4.31818 223.877 4.31818C223.41 4.31818 223.005 4.43419 222.664 4.66619C222.326 4.89489 222.066 5.19318 221.883 5.56108C221.701 5.92898 221.61 6.32339 221.61 6.74432V7.42045C221.61 7.99716 221.709 8.48603 221.908 8.88707C222.11 9.2848 222.39 9.58807 222.748 9.79688C223.106 10.0024 223.522 10.1051 223.996 10.1051C224.305 10.1051 224.583 10.062 224.831 9.97585C225.083 9.88636 225.3 9.75379 225.483 9.57812C225.665 9.39915 225.806 9.17708 225.905 8.91193L227.039 9.23011C226.92 9.61458 226.719 9.95265 226.437 10.2443C226.156 10.5327 225.808 10.758 225.393 10.9205C224.979 11.0795 224.513 11.1591 223.996 11.1591ZM232.881 13.8636V3.36364H234.014V4.5767H234.153C234.239 4.44413 234.359 4.27509 234.511 4.0696C234.667 3.8608 234.889 3.67519 235.177 3.51278C235.469 3.34706 235.863 3.2642 236.361 3.2642C237.004 3.2642 237.57 3.42495 238.061 3.74645C238.551 4.06794 238.934 4.52367 239.209 5.11364C239.484 5.7036 239.622 6.39962 239.622 7.2017C239.622 8.01042 239.484 8.71141 239.209 9.30469C238.934 9.89465 238.553 10.352 238.066 10.6768C237.579 10.9983 237.017 11.1591 236.381 11.1591C235.89 11.1591 235.497 11.0779 235.202 10.9155C234.907 10.7498 234.68 10.5625 234.521 10.3537C234.362 10.1416 234.239 9.96591 234.153 9.8267H234.054V13.8636H232.881ZM234.034 7.18182C234.034 7.75852 234.118 8.26728 234.287 8.7081C234.456 9.1456 234.703 9.48864 235.028 9.73722C235.353 9.98248 235.751 10.1051 236.221 10.1051C236.712 10.1051 237.121 9.97585 237.449 9.71733C237.781 9.45549 238.029 9.10417 238.195 8.66335C238.364 8.21922 238.449 7.72538 238.449 7.18182C238.449 6.64489 238.366 6.16098 238.2 5.73011C238.038 5.29593 237.791 4.95289 237.459 4.70099C237.131 4.44579 236.719 4.31818 236.221 4.31818C235.744 4.31818 235.343 4.43916 235.018 4.68111C234.693 4.91974 234.448 5.2545 234.282 5.68537C234.117 6.11293 234.034 6.61174 234.034 7.18182ZM241.412 11V3.36364H242.545V4.51705H242.625C242.764 4.1392 243.016 3.83262 243.381 3.5973C243.745 3.36198 244.156 3.24432 244.613 3.24432C244.7 3.24432 244.807 3.24597 244.937 3.24929C245.066 3.2526 245.164 3.25758 245.23 3.2642V4.45739C245.19 4.44744 245.099 4.43253 244.956 4.41264C244.817 4.38944 244.67 4.37784 244.514 4.37784C244.143 4.37784 243.811 4.45573 243.52 4.61151C243.231 4.76397 243.003 4.97609 242.834 5.24787C242.668 5.51634 242.585 5.82292 242.585 6.16761V11H241.412ZM249.491 11.1591C248.801 11.1591 248.196 10.995 247.676 10.6669C247.159 10.3388 246.755 9.87973 246.463 9.28977C246.175 8.69981 246.03 8.01042 246.03 7.22159C246.03 6.42614 246.175 5.73177 246.463 5.13849C246.755 4.54522 247.159 4.08452 247.676 3.75639C248.196 3.42827 248.801 3.2642 249.491 3.2642C250.18 3.2642 250.783 3.42827 251.3 3.75639C251.821 4.08452 252.225 4.54522 252.513 5.13849C252.805 5.73177 252.951 6.42614 252.951 7.22159C252.951 8.01042 252.805 8.69981 252.513 9.28977C252.225 9.87973 251.821 10.3388 251.3 10.6669C250.783 10.995 250.18 11.1591 249.491 11.1591ZM249.491 10.1051C250.014 10.1051 250.445 9.97088 250.783 9.70241C251.121 9.43395 251.372 9.08097 251.534 8.64347C251.696 8.20597 251.778 7.73201 251.778 7.22159C251.778 6.71117 251.696 6.23556 251.534 5.79474C251.372 5.35393 251.121 4.99763 250.783 4.72585C250.445 4.45407 250.014 4.31818 249.491 4.31818C248.967 4.31818 248.536 4.45407 248.198 4.72585C247.86 4.99763 247.61 5.35393 247.447 5.79474C247.285 6.23556 247.204 6.71117 247.204 7.22159C247.204 7.73201 247.285 8.20597 247.447 8.64347C247.61 9.08097 247.86 9.43395 248.198 9.70241C248.536 9.97088 248.967 10.1051 249.491 10.1051ZM257.844 11.1591C257.128 11.1591 256.512 10.9901 255.995 10.652C255.478 10.3139 255.08 9.84825 254.801 9.25497C254.523 8.66169 254.384 7.9839 254.384 7.22159C254.384 6.44602 254.526 5.7616 254.811 5.16832C255.1 4.57173 255.501 4.10606 256.015 3.77131C256.532 3.43324 257.135 3.2642 257.824 3.2642C258.361 3.2642 258.845 3.36364 259.276 3.5625C259.707 3.76136 260.06 4.03977 260.335 4.39773C260.61 4.75568 260.781 5.1733 260.847 5.65057H259.674C259.584 5.30256 259.385 4.99432 259.077 4.72585C258.772 4.45407 258.361 4.31818 257.844 4.31818C257.387 4.31818 256.986 4.4375 256.641 4.67614C256.3 4.91146 256.033 5.24455 255.841 5.67543C255.652 6.10298 255.557 6.60511 255.557 7.18182C255.557 7.77178 255.65 8.28551 255.836 8.72301C256.025 9.16051 256.29 9.50024 256.631 9.74219C256.976 9.98414 257.38 10.1051 257.844 10.1051C258.149 10.1051 258.426 10.0521 258.674 9.94602C258.923 9.83996 259.133 9.6875 259.306 9.48864C259.478 9.28977 259.601 9.05114 259.674 8.77273H260.847C260.781 9.22348 260.617 9.6295 260.355 9.99077C260.096 10.3487 259.753 10.6338 259.326 10.8459C258.901 11.0547 258.408 11.1591 257.844 11.1591ZM265.764 11.1591C265.028 11.1591 264.393 10.9967 263.86 10.6719C263.329 10.3438 262.92 9.88636 262.632 9.29972C262.347 8.70975 262.204 8.02367 262.204 7.24148C262.204 6.45928 262.347 5.76989 262.632 5.1733C262.92 4.57339 263.321 4.10606 263.835 3.77131C264.352 3.43324 264.955 3.2642 265.645 3.2642C266.042 3.2642 266.435 3.33049 266.823 3.46307C267.211 3.59564 267.564 3.81108 267.882 4.10938C268.2 4.40436 268.453 4.79545 268.642 5.28267C268.831 5.76989 268.926 6.36979 268.926 7.08239V7.57955H263.039V6.56534H267.733C267.733 6.13447 267.646 5.75 267.474 5.41193C267.305 5.07386 267.063 4.80705 266.748 4.61151C266.437 4.41596 266.069 4.31818 265.645 4.31818C265.177 4.31818 264.773 4.43419 264.431 4.66619C264.093 4.89489 263.833 5.19318 263.651 5.56108C263.469 5.92898 263.377 6.32339 263.377 6.74432V7.42045C263.377 7.99716 263.477 8.48603 263.676 8.88707C263.878 9.2848 264.158 9.58807 264.516 9.79688C264.874 10.0024 265.29 10.1051 265.764 10.1051C266.072 10.1051 266.35 10.062 266.599 9.97585C266.851 9.88636 267.068 9.75379 267.25 9.57812C267.433 9.39915 267.574 9.17708 267.673 8.91193L268.806 9.23011C268.687 9.61458 268.487 9.95265 268.205 10.2443C267.923 10.5327 267.575 10.758 267.161 10.9205C266.747 11.0795 266.281 11.1591 265.764 11.1591ZM276.12 5.07386L275.066 5.37216C274.999 5.1965 274.902 5.0258 274.772 4.86009C274.646 4.69105 274.474 4.55185 274.255 4.44247C274.037 4.3331 273.757 4.27841 273.415 4.27841C272.948 4.27841 272.558 4.38613 272.247 4.60156C271.939 4.81368 271.784 5.08381 271.784 5.41193C271.784 5.7036 271.891 5.93395 272.103 6.10298C272.315 6.27202 272.646 6.41288 273.097 6.52557L274.23 6.80398C274.913 6.9697 275.422 7.22325 275.757 7.56463C276.092 7.9027 276.259 8.33854 276.259 8.87216C276.259 9.30966 276.133 9.70076 275.881 10.0455C275.632 10.3902 275.284 10.6619 274.837 10.8608C274.39 11.0597 273.869 11.1591 273.276 11.1591C272.497 11.1591 271.852 10.9901 271.342 10.652C270.832 10.3139 270.508 9.82008 270.373 9.17045L271.486 8.89205C271.592 9.30303 271.793 9.61127 272.088 9.81676C272.386 10.0223 272.775 10.125 273.256 10.125C273.803 10.125 274.237 10.009 274.559 9.77699C274.883 9.54167 275.046 9.25994 275.046 8.93182C275.046 8.66667 274.953 8.4446 274.767 8.26562C274.582 8.08333 274.297 7.94744 273.912 7.85795L272.64 7.55966C271.94 7.39394 271.426 7.13707 271.098 6.78906C270.774 6.43774 270.611 5.99858 270.611 5.47159C270.611 5.04072 270.732 4.65956 270.974 4.32812C271.219 3.99669 271.552 3.73651 271.973 3.54758C272.398 3.35866 272.878 3.2642 273.415 3.2642C274.171 3.2642 274.764 3.42992 275.195 3.76136C275.629 4.0928 275.937 4.5303 276.12 5.07386ZM283.434 5.07386L282.38 5.37216C282.314 5.1965 282.216 5.0258 282.087 4.86009C281.961 4.69105 281.789 4.55185 281.57 4.44247C281.351 4.3331 281.071 4.27841 280.73 4.27841C280.262 4.27841 279.873 4.38613 279.561 4.60156C279.253 4.81368 279.099 5.08381 279.099 5.41193C279.099 5.7036 279.205 5.93395 279.417 6.10298C279.629 6.27202 279.961 6.41288 280.411 6.52557L281.545 6.80398C282.228 6.9697 282.736 7.22325 283.071 7.56463C283.406 7.9027 283.573 8.33854 283.573 8.87216C283.573 9.30966 283.447 9.70076 283.195 10.0455C282.947 10.3902 282.599 10.6619 282.151 10.8608C281.704 11.0597 281.184 11.1591 280.59 11.1591C279.811 11.1591 279.167 10.9901 278.656 10.652C278.146 10.3139 277.823 9.82008 277.687 9.17045L278.801 8.89205C278.907 9.30303 279.107 9.61127 279.402 9.81676C279.7 10.0223 280.09 10.125 280.57 10.125C281.117 10.125 281.552 10.009 281.873 9.77699C282.198 9.54167 282.36 9.25994 282.36 8.93182C282.36 8.66667 282.267 8.4446 282.082 8.26562C281.896 8.08333 281.611 7.94744 281.227 7.85795L279.954 7.55966C279.255 7.39394 278.741 7.13707 278.413 6.78906C278.088 6.43774 277.926 5.99858 277.926 5.47159C277.926 5.04072 278.047 4.65956 278.289 4.32812C278.534 3.99669 278.867 3.73651 279.288 3.54758C279.712 3.35866 280.193 3.2642 280.73 3.2642C281.485 3.2642 282.079 3.42992 282.509 3.76136C282.944 4.0928 283.252 4.5303 283.434 5.07386ZM292.379 11.1591C291.69 11.1591 291.085 10.995 290.565 10.6669C290.048 10.3388 289.643 9.87973 289.352 9.28977C289.063 8.69981 288.919 8.01042 288.919 7.22159C288.919 6.42614 289.063 5.73177 289.352 5.13849C289.643 4.54522 290.048 4.08452 290.565 3.75639C291.085 3.42827 291.69 3.2642 292.379 3.2642C293.069 3.2642 293.672 3.42827 294.189 3.75639C294.709 4.08452 295.114 4.54522 295.402 5.13849C295.694 5.73177 295.839 6.42614 295.839 7.22159C295.839 8.01042 295.694 8.69981 295.402 9.28977C295.114 9.87973 294.709 10.3388 294.189 10.6669C293.672 10.995 293.069 11.1591 292.379 11.1591ZM292.379 10.1051C292.903 10.1051 293.334 9.97088 293.672 9.70241C294.01 9.43395 294.26 9.08097 294.423 8.64347C294.585 8.20597 294.666 7.73201 294.666 7.22159C294.666 6.71117 294.585 6.23556 294.423 5.79474C294.26 5.35393 294.01 4.99763 293.672 4.72585C293.334 4.45407 292.903 4.31818 292.379 4.31818C291.856 4.31818 291.425 4.45407 291.087 4.72585C290.749 4.99763 290.498 5.35393 290.336 5.79474C290.174 6.23556 290.092 6.71117 290.092 7.22159C290.092 7.73201 290.174 8.20597 290.336 8.64347C290.498 9.08097 290.749 9.43395 291.087 9.70241C291.425 9.97088 291.856 10.1051 292.379 10.1051ZM301.031 3.36364V4.35795H296.915V3.36364H301.031ZM298.148 11V2.30966C298.148 1.87216 298.25 1.50758 298.456 1.21591C298.661 0.924242 298.928 0.705492 299.256 0.559658C299.584 0.413825 299.931 0.340908 300.295 0.340908C300.584 0.340908 300.819 0.364109 301.001 0.410511C301.184 0.456912 301.319 0.499999 301.409 0.539772L301.071 1.55398C301.011 1.53409 300.928 1.50923 300.822 1.4794C300.72 1.44957 300.584 1.43466 300.415 1.43466C300.027 1.43466 299.747 1.53243 299.574 1.72798C299.405 1.92353 299.321 2.21023 299.321 2.58807V11H298.148ZM312.022 5.07386L310.968 5.37216C310.902 5.1965 310.804 5.0258 310.675 4.86009C310.549 4.69105 310.376 4.55185 310.158 4.44247C309.939 4.3331 309.659 4.27841 309.317 4.27841C308.85 4.27841 308.461 4.38613 308.149 4.60156C307.841 4.81368 307.687 5.08381 307.687 5.41193C307.687 5.7036 307.793 5.93395 308.005 6.10298C308.217 6.27202 308.549 6.41288 308.999 6.52557L310.133 6.80398C310.816 6.9697 311.324 7.22325 311.659 7.56463C311.994 7.9027 312.161 8.33854 312.161 8.87216C312.161 9.30966 312.035 9.70076 311.783 10.0455C311.535 10.3902 311.187 10.6619 310.739 10.8608C310.292 11.0597 309.772 11.1591 309.178 11.1591C308.399 11.1591 307.755 10.9901 307.244 10.652C306.734 10.3139 306.411 9.82008 306.275 9.17045L307.388 8.89205C307.495 9.30303 307.695 9.61127 307.99 9.81676C308.288 10.0223 308.678 10.125 309.158 10.125C309.705 10.125 310.139 10.009 310.461 9.77699C310.786 9.54167 310.948 9.25994 310.948 8.93182C310.948 8.66667 310.855 8.4446 310.67 8.26562C310.484 8.08333 310.199 7.94744 309.815 7.85795L308.542 7.55966C307.843 7.39394 307.329 7.13707 307.001 6.78906C306.676 6.43774 306.513 5.99858 306.513 5.47159C306.513 5.04072 306.634 4.65956 306.876 4.32812C307.122 3.99669 307.455 3.73651 307.876 3.54758C308.3 3.35866 308.781 3.2642 309.317 3.2642C310.073 3.2642 310.666 3.42992 311.097 3.76136C311.531 4.0928 311.84 4.5303 312.022 5.07386ZM317.129 11.1591C316.393 11.1591 315.759 10.9967 315.225 10.6719C314.695 10.3438 314.285 9.88636 313.997 9.29972C313.712 8.70975 313.569 8.02367 313.569 7.24148C313.569 6.45928 313.712 5.76989 313.997 5.1733C314.285 4.57339 314.686 4.10606 315.2 3.77131C315.717 3.43324 316.32 3.2642 317.01 3.2642C317.407 3.2642 317.8 3.33049 318.188 3.46307C318.576 3.59564 318.929 3.81108 319.247 4.10938C319.565 4.40436 319.819 4.79545 320.008 5.28267C320.197 5.76989 320.291 6.36979 320.291 7.08239V7.57955H314.405V6.56534H319.098C319.098 6.13447 319.012 5.75 318.839 5.41193C318.67 5.07386 318.428 4.80705 318.113 4.61151C317.802 4.41596 317.434 4.31818 317.01 4.31818C316.542 4.31818 316.138 4.43419 315.797 4.66619C315.459 4.89489 315.198 5.19318 315.016 5.56108C314.834 5.92898 314.743 6.32339 314.743 6.74432V7.42045C314.743 7.99716 314.842 8.48603 315.041 8.88707C315.243 9.2848 315.523 9.58807 315.881 9.79688C316.239 10.0024 316.655 10.1051 317.129 10.1051C317.437 10.1051 317.716 10.062 317.964 9.97585C318.216 9.88636 318.433 9.75379 318.616 9.57812C318.798 9.39915 318.939 9.17708 319.038 8.91193L320.172 9.23011C320.052 9.61458 319.852 9.95265 319.57 10.2443C319.288 10.5327 318.94 10.758 318.526 10.9205C318.112 11.0795 317.646 11.1591 317.129 11.1591ZM323.249 6.40625V11H322.076V3.36364H323.209V4.55682H323.309C323.488 4.16903 323.76 3.85748 324.124 3.62216C324.489 3.38352 324.959 3.2642 325.536 3.2642C326.053 3.2642 326.506 3.37027 326.893 3.58239C327.281 3.79119 327.583 4.10938 327.798 4.53693C328.014 4.96117 328.121 5.49811 328.121 6.14773V11H326.948V6.22727C326.948 5.62737 326.792 5.16004 326.481 4.82528C326.169 4.48722 325.742 4.31818 325.198 4.31818C324.823 4.31818 324.489 4.39938 324.194 4.56179C323.902 4.72419 323.672 4.96117 323.503 5.27273C323.334 5.58428 323.249 5.96212 323.249 6.40625ZM333.149 11.1591C332.512 11.1591 331.951 10.9983 331.463 10.6768C330.976 10.352 330.595 9.89465 330.32 9.30469C330.045 8.71141 329.907 8.01042 329.907 7.2017C329.907 6.39962 330.045 5.7036 330.32 5.11364C330.595 4.52367 330.978 4.06794 331.468 3.74645C331.959 3.42495 332.526 3.2642 333.169 3.2642C333.666 3.2642 334.059 3.34706 334.347 3.51278C334.639 3.67519 334.861 3.8608 335.013 4.0696C335.169 4.27509 335.29 4.44413 335.376 4.5767H335.475V0.818182H336.649V11H335.515V9.8267H335.376C335.29 9.96591 335.167 10.1416 335.008 10.3537C334.849 10.5625 334.622 10.7498 334.327 10.9155C334.032 11.0779 333.639 11.1591 333.149 11.1591ZM333.308 10.1051C333.779 10.1051 334.176 9.98248 334.501 9.73722C334.826 9.48864 335.073 9.1456 335.242 8.7081C335.411 8.26728 335.495 7.75852 335.495 7.18182C335.495 6.61174 335.413 6.11293 335.247 5.68537C335.081 5.2545 334.836 4.91974 334.511 4.68111C334.186 4.43916 333.785 4.31818 333.308 4.31818C332.811 4.31818 332.396 4.44579 332.065 4.70099C331.737 4.95289 331.49 5.29593 331.324 5.73011C331.162 6.16098 331.081 6.64489 331.081 7.18182C331.081 7.72538 331.163 8.21922 331.329 8.66335C331.498 9.10417 331.747 9.45549 332.075 9.71733C332.406 9.97585 332.817 10.1051 333.308 10.1051ZM338.961 11V3.36364H340.134V11H338.961ZM339.557 2.09091C339.328 2.09091 339.131 2.01302 338.966 1.85724C338.803 1.70147 338.722 1.5142 338.722 1.29545C338.722 1.0767 338.803 0.889441 338.966 0.733664C339.131 0.577888 339.328 0.5 339.557 0.5C339.786 0.5 339.981 0.577888 340.144 0.733664C340.31 0.889441 340.392 1.0767 340.392 1.29545C340.392 1.5142 340.31 1.70147 340.144 1.85724C339.981 2.01302 339.786 2.09091 339.557 2.09091ZM343.456 6.40625V11H342.283V3.36364H343.416V4.55682H343.516C343.695 4.16903 343.967 3.85748 344.331 3.62216C344.696 3.38352 345.166 3.2642 345.743 3.2642C346.26 3.2642 346.713 3.37027 347.1 3.58239C347.488 3.79119 347.79 4.10938 348.005 4.53693C348.221 4.96117 348.328 5.49811 348.328 6.14773V11H347.155V6.22727C347.155 5.62737 346.999 5.16004 346.688 4.82528C346.376 4.48722 345.949 4.31818 345.405 4.31818C345.03 4.31818 344.696 4.39938 344.401 4.56179C344.109 4.72419 343.879 4.96117 343.71 5.27273C343.541 5.58428 343.456 5.96212 343.456 6.40625ZM353.555 14.0227C352.988 14.0227 352.501 13.9498 352.093 13.804C351.685 13.6615 351.346 13.4725 351.074 13.2372C350.805 13.0052 350.592 12.7566 350.433 12.4915L351.367 11.8352C351.473 11.9744 351.607 12.1335 351.77 12.3125C351.932 12.4948 352.154 12.6522 352.436 12.7848C352.721 12.9207 353.094 12.9886 353.555 12.9886C354.171 12.9886 354.68 12.8395 355.081 12.5412C355.482 12.2429 355.683 11.7756 355.683 11.1392V9.58807H355.583C355.497 9.72727 355.374 9.89962 355.215 10.1051C355.059 10.3073 354.834 10.4879 354.539 10.647C354.247 10.8028 353.853 10.8807 353.356 10.8807C352.739 10.8807 352.186 10.7348 351.695 10.4432C351.208 10.1515 350.822 9.72727 350.537 9.17045C350.255 8.61364 350.114 7.9375 350.114 7.14205C350.114 6.35985 350.252 5.67874 350.527 5.09872C350.802 4.51539 351.185 4.06463 351.675 3.74645C352.166 3.42495 352.733 3.2642 353.376 3.2642C353.873 3.2642 354.267 3.34706 354.559 3.51278C354.854 3.67519 355.079 3.8608 355.235 4.0696C355.394 4.27509 355.517 4.44413 355.603 4.5767H355.722V3.36364H356.856V11.2188C356.856 11.875 356.707 12.4086 356.408 12.8196C356.113 13.2339 355.716 13.5372 355.215 13.7294C354.718 13.925 354.165 14.0227 353.555 14.0227ZM353.515 9.8267C353.986 9.8267 354.383 9.71899 354.708 9.50355C355.033 9.28812 355.28 8.97822 355.449 8.57386C355.618 8.16951 355.702 7.68561 355.702 7.12216C355.702 6.57197 355.62 6.08641 355.454 5.66548C355.288 5.24455 355.043 4.91477 354.718 4.67614C354.393 4.4375 353.992 4.31818 353.515 4.31818C353.018 4.31818 352.603 4.44413 352.272 4.69602C351.944 4.94792 351.697 5.28598 351.531 5.71023C351.369 6.13447 351.288 6.60511 351.288 7.12216C351.288 7.65246 351.371 8.12145 351.536 8.52912C351.705 8.93348 351.954 9.25166 352.282 9.48366C352.613 9.71236 353.024 9.8267 353.515 9.8267ZM366.342 3.36364V4.35795H362.225V3.36364H366.342ZM363.458 11V2.30966C363.458 1.87216 363.561 1.50758 363.766 1.21591C363.972 0.924242 364.239 0.705492 364.567 0.559658C364.895 0.413825 365.241 0.340908 365.606 0.340908C365.894 0.340908 366.129 0.364109 366.312 0.410511C366.494 0.456912 366.63 0.499999 366.719 0.539772L366.381 1.55398C366.322 1.53409 366.239 1.50923 366.133 1.4794C366.03 1.44957 365.894 1.43466 365.725 1.43466C365.337 1.43466 365.057 1.53243 364.885 1.72798C364.716 1.92353 364.631 2.21023 364.631 2.58807V11H363.458ZM372.798 7.87784V3.36364H373.972V11H372.798V9.70739H372.719C372.54 10.0952 372.262 10.425 371.884 10.6967C371.506 10.9652 371.029 11.0994 370.452 11.0994C369.975 11.0994 369.55 10.995 369.179 10.7862C368.808 10.5741 368.516 10.2559 368.304 9.83168C368.092 9.40412 367.986 8.86553 367.986 8.21591V3.36364H369.159V8.13636C369.159 8.69318 369.315 9.13731 369.627 9.46875C369.941 9.80019 370.343 9.96591 370.83 9.96591C371.121 9.96591 371.418 9.89134 371.72 9.74219C372.025 9.59304 372.28 9.36435 372.485 9.05611C372.694 8.74787 372.798 8.35511 372.798 7.87784ZM377.294 6.40625V11H376.121V3.36364H377.254V4.55682H377.354C377.533 4.16903 377.804 3.85748 378.169 3.62216C378.534 3.38352 379.004 3.2642 379.581 3.2642C380.098 3.2642 380.55 3.37027 380.938 3.58239C381.326 3.79119 381.628 4.10938 381.843 4.53693C382.058 4.96117 382.166 5.49811 382.166 6.14773V11H380.993V6.22727C380.993 5.62737 380.837 5.16004 380.526 4.82528C380.214 4.48722 379.786 4.31818 379.243 4.31818C378.868 4.31818 378.534 4.39938 378.239 4.56179C377.947 4.72419 377.717 4.96117 377.548 5.27273C377.379 5.58428 377.294 5.96212 377.294 6.40625ZM387.194 11.1591C386.557 11.1591 385.996 10.9983 385.508 10.6768C385.021 10.352 384.64 9.89465 384.365 9.30469C384.09 8.71141 383.952 8.01042 383.952 7.2017C383.952 6.39962 384.09 5.7036 384.365 5.11364C384.64 4.52367 385.023 4.06794 385.513 3.74645C386.004 3.42495 386.571 3.2642 387.214 3.2642C387.711 3.2642 388.104 3.34706 388.392 3.51278C388.684 3.67519 388.906 3.8608 389.058 4.0696C389.214 4.27509 389.335 4.44413 389.421 4.5767H389.52V0.818182H390.694V11H389.56V9.8267H389.421C389.335 9.96591 389.212 10.1416 389.053 10.3537C388.894 10.5625 388.667 10.7498 388.372 10.9155C388.077 11.0779 387.684 11.1591 387.194 11.1591ZM387.353 10.1051C387.823 10.1051 388.221 9.98248 388.546 9.73722C388.871 9.48864 389.118 9.1456 389.287 8.7081C389.456 8.26728 389.54 7.75852 389.54 7.18182C389.54 6.61174 389.457 6.11293 389.292 5.68537C389.126 5.2545 388.881 4.91974 388.556 4.68111C388.231 4.43916 387.83 4.31818 387.353 4.31818C386.856 4.31818 386.441 4.44579 386.11 4.70099C385.782 4.95289 385.535 5.29593 385.369 5.73011C385.207 6.16098 385.126 6.64489 385.126 7.18182C385.126 7.72538 385.208 8.21922 385.374 8.66335C385.543 9.10417 385.792 9.45549 386.12 9.71733C386.451 9.97585 386.862 10.1051 387.353 10.1051ZM398.415 5.07386L397.361 5.37216C397.294 5.1965 397.197 5.0258 397.067 4.86009C396.941 4.69105 396.769 4.55185 396.55 4.44247C396.331 4.3331 396.051 4.27841 395.71 4.27841C395.243 4.27841 394.853 4.38613 394.542 4.60156C394.233 4.81368 394.079 5.08381 394.079 5.41193C394.079 5.7036 394.185 5.93395 394.398 6.10298C394.61 6.27202 394.941 6.41288 395.392 6.52557L396.525 6.80398C397.208 6.9697 397.717 7.22325 398.052 7.56463C398.386 7.9027 398.554 8.33854 398.554 8.87216C398.554 9.30966 398.428 9.70076 398.176 10.0455C397.927 10.3902 397.579 10.6619 397.132 10.8608C396.684 11.0597 396.164 11.1591 395.571 11.1591C394.792 11.1591 394.147 10.9901 393.637 10.652C393.126 10.3139 392.803 9.82008 392.667 9.17045L393.781 8.89205C393.887 9.30303 394.088 9.61127 394.383 9.81676C394.681 10.0223 395.07 10.125 395.551 10.125C396.098 10.125 396.532 10.009 396.854 9.77699C397.178 9.54167 397.341 9.25994 397.341 8.93182C397.341 8.66667 397.248 8.4446 397.062 8.26562C396.877 8.08333 396.592 7.94744 396.207 7.85795L394.934 7.55966C394.235 7.39394 393.721 7.13707 393.393 6.78906C393.068 6.43774 392.906 5.99858 392.906 5.47159C392.906 5.04072 393.027 4.65956 393.269 4.32812C393.514 3.99669 393.847 3.73651 394.268 3.54758C394.693 3.35866 395.173 3.2642 395.71 3.2642C396.466 3.2642 397.059 3.42992 397.49 3.76136C397.924 4.0928 398.232 4.5303 398.415 5.07386ZM407.578 3.36364V4.35795H403.621V3.36364H407.578ZM404.775 1.53409H405.948V8.8125C405.948 9.14394 405.996 9.39252 406.092 9.55824C406.191 9.72064 406.317 9.83002 406.47 9.88636C406.626 9.93939 406.79 9.96591 406.962 9.96591C407.091 9.96591 407.197 9.95928 407.28 9.94602C407.363 9.92945 407.429 9.91619 407.479 9.90625L407.718 10.9602C407.638 10.9901 407.527 11.0199 407.385 11.0497C407.242 11.0829 407.061 11.0994 406.843 11.0994C406.511 11.0994 406.186 11.0282 405.868 10.8857C405.553 10.7431 405.292 10.526 405.083 10.2344C404.877 9.94271 404.775 9.57481 404.775 9.13068V1.53409ZM412.364 11.1591C411.674 11.1591 411.069 10.995 410.549 10.6669C410.032 10.3388 409.628 9.87973 409.336 9.28977C409.048 8.69981 408.903 8.01042 408.903 7.22159C408.903 6.42614 409.048 5.73177 409.336 5.13849C409.628 4.54522 410.032 4.08452 410.549 3.75639C411.069 3.42827 411.674 3.2642 412.364 3.2642C413.053 3.2642 413.656 3.42827 414.173 3.75639C414.694 4.08452 415.098 4.54522 415.386 5.13849C415.678 5.73177 415.824 6.42614 415.824 7.22159C415.824 8.01042 415.678 8.69981 415.386 9.28977C415.098 9.87973 414.694 10.3388 414.173 10.6669C413.656 10.995 413.053 11.1591 412.364 11.1591ZM412.364 10.1051C412.887 10.1051 413.318 9.97088 413.656 9.70241C413.994 9.43395 414.245 9.08097 414.407 8.64347C414.569 8.20597 414.651 7.73201 414.651 7.22159C414.651 6.71117 414.569 6.23556 414.407 5.79474C414.245 5.35393 413.994 4.99763 413.656 4.72585C413.318 4.45407 412.887 4.31818 412.364 4.31818C411.84 4.31818 411.409 4.45407 411.071 4.72585C410.733 4.99763 410.483 5.35393 410.32 5.79474C410.158 6.23556 410.077 6.71117 410.077 7.22159C410.077 7.73201 410.158 8.20597 410.32 8.64347C410.483 9.08097 410.733 9.43395 411.071 9.70241C411.409 9.97088 411.84 10.1051 412.364 10.1051ZM424.873 3.36364V4.35795H420.916V3.36364H424.873ZM422.069 1.53409H423.243V8.8125C423.243 9.14394 423.291 9.39252 423.387 9.55824C423.486 9.72064 423.612 9.83002 423.765 9.88636C423.921 9.93939 424.085 9.96591 424.257 9.96591C424.386 9.96591 424.492 9.95928 424.575 9.94602C424.658 9.92945 424.724 9.91619 424.774 9.90625L425.013 10.9602C424.933 10.9901 424.822 11.0199 424.68 11.0497C424.537 11.0829 424.356 11.0994 424.138 11.0994C423.806 11.0994 423.481 11.0282 423.163 10.8857C422.848 10.7431 422.586 10.526 422.378 10.2344C422.172 9.94271 422.069 9.57481 422.069 9.13068V1.53409ZM429.758 11.1591C429.022 11.1591 428.387 10.9967 427.854 10.6719C427.324 10.3438 426.914 9.88636 426.626 9.29972C426.341 8.70975 426.198 8.02367 426.198 7.24148C426.198 6.45928 426.341 5.76989 426.626 5.1733C426.914 4.57339 427.315 4.10606 427.829 3.77131C428.346 3.43324 428.949 3.2642 429.639 3.2642C430.036 3.2642 430.429 3.33049 430.817 3.46307C431.205 3.59564 431.558 3.81108 431.876 4.10938C432.194 4.40436 432.448 4.79545 432.637 5.28267C432.825 5.76989 432.92 6.36979 432.92 7.08239V7.57955H427.034V6.56534H431.727C431.727 6.13447 431.641 5.75 431.468 5.41193C431.299 5.07386 431.057 4.80705 430.742 4.61151C430.431 4.41596 430.063 4.31818 429.639 4.31818C429.171 4.31818 428.767 4.43419 428.426 4.66619C428.088 4.89489 427.827 5.19318 427.645 5.56108C427.463 5.92898 427.372 6.32339 427.372 6.74432V7.42045C427.372 7.99716 427.471 8.48603 427.67 8.88707C427.872 9.2848 428.152 9.58807 428.51 9.79688C428.868 10.0024 429.284 10.1051 429.758 10.1051C430.066 10.1051 430.345 10.062 430.593 9.97585C430.845 9.88636 431.062 9.75379 431.244 9.57812C431.427 9.39915 431.568 9.17708 431.667 8.91193L432.801 9.23011C432.681 9.61458 432.481 9.95265 432.199 10.2443C431.917 10.5327 431.569 10.758 431.155 10.9205C430.741 11.0795 430.275 11.1591 429.758 11.1591ZM436.952 11.179C436.468 11.179 436.029 11.0878 435.634 10.9055C435.24 10.7199 434.927 10.4531 434.695 10.1051C434.463 9.75379 434.347 9.32955 434.347 8.83239C434.347 8.39489 434.433 8.04025 434.605 7.76847C434.778 7.49337 435.008 7.27794 435.296 7.12216C435.585 6.96638 435.903 6.85038 436.251 6.77415C436.602 6.6946 436.955 6.63163 437.31 6.58523C437.774 6.52557 438.15 6.48082 438.438 6.45099C438.73 6.41785 438.942 6.36316 439.075 6.28693C439.211 6.2107 439.279 6.07812 439.279 5.8892V5.84943C439.279 5.3589 439.144 4.97775 438.876 4.70597C438.611 4.43419 438.208 4.2983 437.668 4.2983C437.108 4.2983 436.669 4.42093 436.35 4.66619C436.032 4.91146 435.808 5.1733 435.679 5.4517L434.566 5.05398C434.764 4.58996 435.03 4.22869 435.361 3.97017C435.696 3.70833 436.06 3.52604 436.455 3.4233C436.852 3.31723 437.244 3.2642 437.628 3.2642C437.873 3.2642 438.155 3.29403 438.473 3.35369C438.795 3.41004 439.105 3.5277 439.403 3.70668C439.704 3.88565 439.955 4.15578 440.154 4.51705C440.352 4.87831 440.452 5.36222 440.452 5.96875V11H439.279V9.96591H439.219C439.139 10.1316 439.007 10.3089 438.821 10.4979C438.636 10.6868 438.389 10.8475 438.08 10.9801C437.772 11.1127 437.396 11.179 436.952 11.179ZM437.131 10.125C437.595 10.125 437.986 10.0339 438.304 9.85156C438.626 9.66927 438.868 9.43395 439.03 9.1456C439.196 8.85724 439.279 8.55398 439.279 8.2358V7.16193C439.229 7.22159 439.119 7.27628 438.95 7.32599C438.785 7.3724 438.593 7.41383 438.374 7.45028C438.158 7.48343 437.948 7.51326 437.742 7.53977C437.54 7.56297 437.376 7.58286 437.25 7.59943C436.945 7.6392 436.66 7.70384 436.395 7.79332C436.133 7.8795 435.921 8.01042 435.759 8.18608C435.6 8.35843 435.52 8.59375 435.52 8.89205C435.52 9.29972 435.671 9.60795 435.972 9.81676C436.277 10.0223 436.664 10.125 437.131 10.125ZM445.696 11.1591C444.98 11.1591 444.363 10.9901 443.846 10.652C443.329 10.3139 442.931 9.84825 442.653 9.25497C442.375 8.66169 442.235 7.9839 442.235 7.22159C442.235 6.44602 442.378 5.7616 442.663 5.16832C442.951 4.57173 443.352 4.10606 443.866 3.77131C444.383 3.43324 444.986 3.2642 445.676 3.2642C446.213 3.2642 446.697 3.36364 447.127 3.5625C447.558 3.76136 447.911 4.03977 448.186 4.39773C448.462 4.75568 448.632 5.1733 448.699 5.65057H447.525C447.436 5.30256 447.237 4.99432 446.929 4.72585C446.624 4.45407 446.213 4.31818 445.696 4.31818C445.238 4.31818 444.837 4.4375 444.493 4.67614C444.151 4.91146 443.884 5.24455 443.692 5.67543C443.503 6.10298 443.409 6.60511 443.409 7.18182C443.409 7.77178 443.502 8.28551 443.687 8.72301C443.876 9.16051 444.141 9.50024 444.483 9.74219C444.827 9.98414 445.232 10.1051 445.696 10.1051C446.001 10.1051 446.277 10.0521 446.526 9.94602C446.775 9.83996 446.985 9.6875 447.157 9.48864C447.33 9.28977 447.452 9.05114 447.525 8.77273H448.699C448.632 9.22348 448.468 9.6295 448.206 9.99077C447.948 10.3487 447.605 10.6338 447.177 10.8459C446.753 11.0547 446.259 11.1591 445.696 11.1591ZM451.587 6.40625V11H450.414V0.818182H451.587V4.55682H451.686C451.865 4.16241 452.134 3.84919 452.492 3.61719C452.853 3.38187 453.334 3.2642 453.934 3.2642C454.454 3.2642 454.91 3.36861 455.301 3.57741C455.692 3.78291 455.995 4.09943 456.211 4.52699C456.429 4.95123 456.539 5.49148 456.539 6.14773V11H455.365V6.22727C455.365 5.62074 455.208 5.15175 454.893 4.82031C454.582 4.48556 454.149 4.31818 453.596 4.31818C453.211 4.31818 452.866 4.39938 452.561 4.56179C452.26 4.72419 452.021 4.96117 451.846 5.27273C451.673 5.58428 451.587 5.96212 451.587 6.40625ZM461.887 11.1591C461.151 11.1591 460.516 10.9967 459.983 10.6719C459.452 10.3438 459.043 9.88636 458.755 9.29972C458.47 8.70975 458.327 8.02367 458.327 7.24148C458.327 6.45928 458.47 5.76989 458.755 5.1733C459.043 4.57339 459.444 4.10606 459.958 3.77131C460.475 3.43324 461.078 3.2642 461.768 3.2642C462.165 3.2642 462.558 3.33049 462.946 3.46307C463.334 3.59564 463.687 3.81108 464.005 4.10938C464.323 4.40436 464.577 4.79545 464.765 5.28267C464.954 5.76989 465.049 6.36979 465.049 7.08239V7.57955H459.162V6.56534H463.856C463.856 6.13447 463.769 5.75 463.597 5.41193C463.428 5.07386 463.186 4.80705 462.871 4.61151C462.56 4.41596 462.192 4.31818 461.768 4.31818C461.3 4.31818 460.896 4.43419 460.555 4.66619C460.216 4.89489 459.956 5.19318 459.774 5.56108C459.592 5.92898 459.501 6.32339 459.501 6.74432V7.42045C459.501 7.99716 459.6 8.48603 459.799 8.88707C460.001 9.2848 460.281 9.58807 460.639 9.79688C460.997 10.0024 461.413 10.1051 461.887 10.1051C462.195 10.1051 462.474 10.062 462.722 9.97585C462.974 9.88636 463.191 9.75379 463.373 9.57812C463.556 9.39915 463.697 9.17708 463.796 8.91193L464.93 9.23011C464.81 9.61458 464.61 9.95265 464.328 10.2443C464.046 10.5327 463.698 10.758 463.284 10.9205C462.87 11.0795 462.404 11.1591 461.887 11.1591ZM466.834 11V3.36364H467.967V4.51705H468.047C468.186 4.1392 468.438 3.83262 468.802 3.5973C469.167 3.36198 469.578 3.24432 470.035 3.24432C470.122 3.24432 470.229 3.24597 470.358 3.24929C470.488 3.2526 470.586 3.25758 470.652 3.2642V4.45739C470.612 4.44744 470.521 4.43253 470.378 4.41264C470.239 4.38944 470.092 4.37784 469.936 4.37784C469.565 4.37784 469.233 4.45573 468.942 4.61151C468.653 4.76397 468.425 4.97609 468.256 5.24787C468.09 5.51634 468.007 5.82292 468.007 6.16761V11H466.834ZM477.452 5.07386L476.398 5.37216C476.331 5.1965 476.234 5.0258 476.104 4.86009C475.978 4.69105 475.806 4.55185 475.587 4.44247C475.369 4.3331 475.089 4.27841 474.747 4.27841C474.28 4.27841 473.89 4.38613 473.579 4.60156C473.271 4.81368 473.116 5.08381 473.116 5.41193C473.116 5.7036 473.223 5.93395 473.435 6.10298C473.647 6.27202 473.978 6.41288 474.429 6.52557L475.562 6.80398C476.245 6.9697 476.754 7.22325 477.089 7.56463C477.424 7.9027 477.591 8.33854 477.591 8.87216C477.591 9.30966 477.465 9.70076 477.213 10.0455C476.964 10.3902 476.616 10.6619 476.169 10.8608C475.722 11.0597 475.201 11.1591 474.608 11.1591C473.829 11.1591 473.184 10.9901 472.674 10.652C472.164 10.3139 471.84 9.82008 471.705 9.17045L472.818 8.89205C472.924 9.30303 473.125 9.61127 473.42 9.81676C473.718 10.0223 474.107 10.125 474.588 10.125C475.135 10.125 475.569 10.009 475.891 9.77699C476.215 9.54167 476.378 9.25994 476.378 8.93182C476.378 8.66667 476.285 8.4446 476.099 8.26562C475.914 8.08333 475.629 7.94744 475.244 7.85795L473.972 7.55966C473.272 7.39394 472.759 7.13707 472.43 6.78906C472.106 6.43774 471.943 5.99858 471.943 5.47159C471.943 5.04072 472.064 4.65956 472.306 4.32812C472.551 3.99669 472.884 3.73651 473.305 3.54758C473.73 3.35866 474.21 3.2642 474.747 3.2642C475.503 3.2642 476.096 3.42992 476.527 3.76136C476.961 4.0928 477.269 4.5303 477.452 5.07386ZM2.80398 28L0.477273 20.3636H1.71023L3.3608 26.2102H3.44034L5.07102 20.3636H6.32386L7.93466 26.1903H8.0142L9.66477 20.3636H10.8977L8.57102 28H7.41761L5.74716 22.1335H5.62784L3.95739 28H2.80398ZM13.6222 23.4062V28H12.4489V17.8182H13.6222V21.5568H13.7216C13.9006 21.1624 14.169 20.8492 14.527 20.6172C14.8883 20.3819 15.3688 20.2642 15.9688 20.2642C16.4891 20.2642 16.9448 20.3686 17.3359 20.5774C17.727 20.7829 18.0303 21.0994 18.2457 21.527C18.4645 21.9512 18.5739 22.4915 18.5739 23.1477V28H17.4006V23.2273C17.4006 22.6207 17.2431 22.1518 16.9283 21.8203C16.6167 21.4856 16.1842 21.3182 15.6307 21.3182C15.2462 21.3182 14.9015 21.3994 14.5966 21.5618C14.295 21.7242 14.0563 21.9612 13.8807 22.2727C13.7083 22.5843 13.6222 22.9621 13.6222 23.4062ZM23.8226 28.1591C23.1332 28.1591 22.5284 27.995 22.008 27.6669C21.4909 27.3388 21.0866 26.8797 20.7949 26.2898C20.5066 25.6998 20.3624 25.0104 20.3624 24.2216C20.3624 23.4261 20.5066 22.7318 20.7949 22.1385C21.0866 21.5452 21.4909 21.0845 22.008 20.7564C22.5284 20.4283 23.1332 20.2642 23.8226 20.2642C24.512 20.2642 25.1152 20.4283 25.6323 20.7564C26.1526 21.0845 26.557 21.5452 26.8453 22.1385C27.137 22.7318 27.2828 23.4261 27.2828 24.2216C27.2828 25.0104 27.137 25.6998 26.8453 26.2898C26.557 26.8797 26.1526 27.3388 25.6323 27.6669C25.1152 27.995 24.512 28.1591 23.8226 28.1591ZM23.8226 27.1051C24.3463 27.1051 24.7772 26.9709 25.1152 26.7024C25.4533 26.4339 25.7035 26.081 25.8659 25.6435C26.0284 25.206 26.1096 24.732 26.1096 24.2216C26.1096 23.7112 26.0284 23.2356 25.8659 22.7947C25.7035 22.3539 25.4533 21.9976 25.1152 21.7259C24.7772 21.4541 24.3463 21.3182 23.8226 21.3182C23.2989 21.3182 22.8681 21.4541 22.53 21.7259C22.1919 21.9976 21.9417 22.3539 21.7793 22.7947C21.6169 23.2356 21.5357 23.7112 21.5357 24.2216C21.5357 24.732 21.6169 25.206 21.7793 25.6435C21.9417 26.081 22.1919 26.4339 22.53 26.7024C22.8681 26.9709 23.2989 27.1051 23.8226 27.1051ZM34.1847 23.4062V28H33.0114V17.8182H34.1847V21.5568H34.2841C34.4631 21.1624 34.7315 20.8492 35.0895 20.6172C35.4508 20.3819 35.9313 20.2642 36.5312 20.2642C37.0516 20.2642 37.5073 20.3686 37.8984 20.5774C38.2895 20.7829 38.5928 21.0994 38.8082 21.527C39.027 21.9512 39.1364 22.4915 39.1364 23.1477V28H37.9631V23.2273C37.9631 22.6207 37.8056 22.1518 37.4908 21.8203C37.1792 21.4856 36.7467 21.3182 36.1932 21.3182C35.8087 21.3182 35.464 21.3994 35.1591 21.5618C34.8575 21.7242 34.6188 21.9612 34.4432 22.2727C34.2708 22.5843 34.1847 22.9621 34.1847 23.4062ZM43.53 28.179C43.0461 28.179 42.6069 28.0878 42.2125 27.9055C41.8181 27.7199 41.5049 27.4531 41.2729 27.1051C41.0409 26.7538 40.9249 26.3295 40.9249 25.8324C40.9249 25.3949 41.0111 25.0402 41.1834 24.7685C41.3558 24.4934 41.5861 24.2779 41.8745 24.1222C42.1628 23.9664 42.481 23.8504 42.829 23.7741C43.1803 23.6946 43.5333 23.6316 43.888 23.5852C44.352 23.5256 44.7282 23.4808 45.0165 23.451C45.3082 23.4179 45.5203 23.3632 45.6529 23.2869C45.7888 23.2107 45.8567 23.0781 45.8567 22.8892V22.8494C45.8567 22.3589 45.7225 21.9777 45.454 21.706C45.1889 21.4342 44.7862 21.2983 44.2459 21.2983C43.6858 21.2983 43.2466 21.4209 42.9284 21.6662C42.6103 21.9115 42.3865 22.1733 42.2573 22.4517L41.1436 22.054C41.3425 21.59 41.6077 21.2287 41.9391 20.9702C42.2739 20.7083 42.6384 20.526 43.0328 20.4233C43.4306 20.3172 43.8217 20.2642 44.2061 20.2642C44.4514 20.2642 44.7331 20.294 45.0513 20.3537C45.3728 20.41 45.6827 20.5277 45.981 20.7067C46.2826 20.8857 46.5328 21.1558 46.7317 21.517C46.9306 21.8783 47.03 22.3622 47.03 22.9688V28H45.8567V26.9659H45.7971C45.7175 27.1316 45.5849 27.3089 45.3993 27.4979C45.2137 27.6868 44.9668 27.8475 44.6586 27.9801C44.3503 28.1127 43.9741 28.179 43.53 28.179ZM43.709 27.125C44.173 27.125 44.5641 27.0339 44.8823 26.8516C45.2038 26.6693 45.4457 26.4339 45.6081 26.1456C45.7739 25.8572 45.8567 25.554 45.8567 25.2358V24.1619C45.807 24.2216 45.6976 24.2763 45.5286 24.326C45.3629 24.3724 45.1706 24.4138 44.9519 24.4503C44.7364 24.4834 44.526 24.5133 44.3205 24.5398C44.1183 24.563 43.9542 24.5829 43.8283 24.5994C43.5234 24.6392 43.2383 24.7038 42.9732 24.7933C42.7114 24.8795 42.4992 25.0104 42.3368 25.1861C42.1777 25.3584 42.0982 25.5937 42.0982 25.892C42.0982 26.2997 42.249 26.608 42.5506 26.8168C42.8555 27.0223 43.2417 27.125 43.709 27.125ZM55.1424 20.3636L52.3185 28H51.1254L48.3015 20.3636H49.5742L51.6822 26.4489H51.7617L53.8697 20.3636H55.1424ZM59.6193 28.1591C58.8835 28.1591 58.2488 27.9967 57.7152 27.6719C57.1849 27.3438 56.7756 26.8864 56.4872 26.2997C56.2022 25.7098 56.0597 25.0237 56.0597 24.2415C56.0597 23.4593 56.2022 22.7699 56.4872 22.1733C56.7756 21.5734 57.1766 21.1061 57.6903 20.7713C58.2074 20.4332 58.8106 20.2642 59.5 20.2642C59.8977 20.2642 60.2905 20.3305 60.6783 20.4631C61.0661 20.5956 61.419 20.8111 61.7372 21.1094C62.0554 21.4044 62.3089 21.7955 62.4979 22.2827C62.6868 22.7699 62.7812 23.3698 62.7812 24.0824V24.5795H56.8949V23.5653H61.5881C61.5881 23.1345 61.5019 22.75 61.3295 22.4119C61.1605 22.0739 60.9186 21.8071 60.6037 21.6115C60.2921 21.416 59.9242 21.3182 59.5 21.3182C59.0327 21.3182 58.6283 21.4342 58.2869 21.6662C57.9489 21.8949 57.6887 22.1932 57.5064 22.5611C57.3241 22.929 57.233 23.3234 57.233 23.7443V24.4205C57.233 24.9972 57.3324 25.486 57.5312 25.8871C57.7334 26.2848 58.0135 26.5881 58.3714 26.7969C58.7294 27.0024 59.1454 27.1051 59.6193 27.1051C59.9276 27.1051 60.206 27.062 60.4545 26.9759C60.7064 26.8864 60.9235 26.7538 61.1058 26.5781C61.2881 26.3991 61.429 26.1771 61.5284 25.9119L62.6619 26.2301C62.5426 26.6146 62.3421 26.9527 62.0604 27.2443C61.7786 27.5327 61.4306 27.758 61.0163 27.9205C60.602 28.0795 60.1364 28.1591 59.6193 28.1591ZM71.3871 28.1591C70.7507 28.1591 70.1889 27.9983 69.7017 27.6768C69.2145 27.352 68.8333 26.8946 68.5582 26.3047C68.2831 25.7114 68.1456 25.0104 68.1456 24.2017C68.1456 23.3996 68.2831 22.7036 68.5582 22.1136C68.8333 21.5237 69.2161 21.0679 69.7067 20.7464C70.1972 20.425 70.764 20.2642 71.407 20.2642C71.9041 20.2642 72.2969 20.3471 72.5852 20.5128C72.8769 20.6752 73.099 20.8608 73.2514 21.0696C73.4072 21.2751 73.5282 21.4441 73.6143 21.5767H73.7138V17.8182H74.8871V28H73.7536V26.8267H73.6143C73.5282 26.9659 73.4055 27.1416 73.2464 27.3537C73.0874 27.5625 72.8603 27.7498 72.5653 27.9155C72.2704 28.0779 71.8776 28.1591 71.3871 28.1591ZM71.5462 27.1051C72.0168 27.1051 72.4145 26.9825 72.7393 26.7372C73.0642 26.4886 73.3111 26.1456 73.4801 25.7081C73.6491 25.2673 73.7337 24.7585 73.7337 24.1818C73.7337 23.6117 73.6508 23.1129 73.4851 22.6854C73.3194 22.2545 73.0741 21.9197 72.7493 21.6811C72.4245 21.4392 72.0234 21.3182 71.5462 21.3182C71.049 21.3182 70.6347 21.4458 70.3033 21.701C69.9751 21.9529 69.7282 22.2959 69.5625 22.7301C69.4001 23.161 69.3189 23.6449 69.3189 24.1818C69.3189 24.7254 69.4018 25.2192 69.5675 25.6634C69.7365 26.1042 69.9851 26.4555 70.3132 26.7173C70.6446 26.9759 71.0556 27.1051 71.5462 27.1051ZM80.3011 28.1591C79.6117 28.1591 79.0069 27.995 78.4865 27.6669C77.9695 27.3388 77.5651 26.8797 77.2734 26.2898C76.9851 25.6998 76.8409 25.0104 76.8409 24.2216C76.8409 23.4261 76.9851 22.7318 77.2734 22.1385C77.5651 21.5452 77.9695 21.0845 78.4865 20.7564C79.0069 20.4283 79.6117 20.2642 80.3011 20.2642C80.9905 20.2642 81.5938 20.4283 82.1108 20.7564C82.6312 21.0845 83.0355 21.5452 83.3239 22.1385C83.6155 22.7318 83.7614 23.4261 83.7614 24.2216C83.7614 25.0104 83.6155 25.6998 83.3239 26.2898C83.0355 26.8797 82.6312 27.3388 82.1108 27.6669C81.5938 27.995 80.9905 28.1591 80.3011 28.1591ZM80.3011 27.1051C80.8248 27.1051 81.2557 26.9709 81.5938 26.7024C81.9318 26.4339 82.1821 26.081 82.3445 25.6435C82.5069 25.206 82.5881 24.732 82.5881 24.2216C82.5881 23.7112 82.5069 23.2356 82.3445 22.7947C82.1821 22.3539 81.9318 21.9976 81.5938 21.7259C81.2557 21.4541 80.8248 21.3182 80.3011 21.3182C79.7775 21.3182 79.3466 21.4541 79.0085 21.7259C78.6705 21.9976 78.4202 22.3539 78.2578 22.7947C78.0954 23.2356 78.0142 23.7112 78.0142 24.2216C78.0142 24.732 78.0954 25.206 78.2578 25.6435C78.4202 26.081 78.6705 26.4339 79.0085 26.7024C79.3466 26.9709 79.7775 27.1051 80.3011 27.1051ZM86.7257 23.4062V28H85.5524V20.3636H86.6859V21.5568H86.7853C86.9643 21.169 87.2361 20.8575 87.6007 20.6222C87.9653 20.3835 88.4359 20.2642 89.0126 20.2642C89.5297 20.2642 89.9821 20.3703 90.3699 20.5824C90.7576 20.7912 91.0592 21.1094 91.2747 21.5369C91.4901 21.9612 91.5978 22.4981 91.5978 23.1477V28H90.4245V23.2273C90.4245 22.6274 90.2688 22.16 89.9572 21.8253C89.6457 21.4872 89.2181 21.3182 88.6745 21.3182C88.3 21.3182 87.9653 21.3994 87.6703 21.5618C87.3786 21.7242 87.1483 21.9612 86.9792 22.2727C86.8102 22.5843 86.7257 22.9621 86.7257 23.4062ZM96.9435 28.1591C96.2077 28.1591 95.573 27.9967 95.0394 27.6719C94.5091 27.3438 94.0998 26.8864 93.8114 26.2997C93.5264 25.7098 93.3839 25.0237 93.3839 24.2415C93.3839 23.4593 93.5264 22.7699 93.8114 22.1733C94.0998 21.5734 94.5008 21.1061 95.0146 20.7713C95.5316 20.4332 96.1348 20.2642 96.8242 20.2642C97.2219 20.2642 97.6147 20.3305 98.0025 20.4631C98.3903 20.5956 98.7433 20.8111 99.0614 21.1094C99.3796 21.4044 99.6332 21.7955 99.8221 22.2827C100.011 22.7699 100.105 23.3698 100.105 24.0824V24.5795H94.2191V23.5653H98.9123C98.9123 23.1345 98.8261 22.75 98.6538 22.4119C98.4847 22.0739 98.2428 21.8071 97.9279 21.6115C97.6164 21.416 97.2485 21.3182 96.8242 21.3182C96.3569 21.3182 95.9525 21.4342 95.6112 21.6662C95.2731 21.8949 95.0129 22.1932 94.8306 22.5611C94.6483 22.929 94.5572 23.3234 94.5572 23.7443V24.4205C94.5572 24.9972 94.6566 25.486 94.8555 25.8871C95.0576 26.2848 95.3377 26.5881 95.6957 26.7969C96.0536 27.0024 96.4696 27.1051 96.9435 27.1051C97.2518 27.1051 97.5302 27.062 97.7788 26.9759C98.0307 26.8864 98.2478 26.7538 98.43 26.5781C98.6123 26.3991 98.7532 26.1771 98.8526 25.9119L99.9862 26.2301C99.8668 26.6146 99.6663 26.9527 99.3846 27.2443C99.1029 27.5327 98.7549 27.758 98.3406 27.9205C97.9263 28.0795 97.4606 28.1591 96.9435 28.1591ZM109.149 20.3636V21.358H105.191V20.3636H109.149ZM106.345 18.5341H107.518V25.8125C107.518 26.1439 107.566 26.3925 107.662 26.5582C107.762 26.7206 107.888 26.83 108.04 26.8864C108.196 26.9394 108.36 26.9659 108.532 26.9659C108.662 26.9659 108.768 26.9593 108.85 26.946C108.933 26.9295 109 26.9162 109.049 26.9062L109.288 27.9602C109.208 27.9901 109.097 28.0199 108.955 28.0497C108.812 28.0829 108.632 28.0994 108.413 28.0994C108.082 28.0994 107.757 28.0282 107.439 27.8857C107.124 27.7431 106.862 27.526 106.653 27.2344C106.448 26.9427 106.345 26.5748 106.345 26.1307V18.5341ZM112.251 23.4062V28H111.078V17.8182H112.251V21.5568H112.35C112.529 21.1624 112.798 20.8492 113.156 20.6172C113.517 20.3819 113.998 20.2642 114.598 20.2642C115.118 20.2642 115.574 20.3686 115.965 20.5774C116.356 20.7829 116.659 21.0994 116.875 21.527C117.093 21.9512 117.203 22.4915 117.203 23.1477V28H116.029V23.2273C116.029 22.6207 115.872 22.1518 115.557 21.8203C115.246 21.4856 114.813 21.3182 114.26 21.3182C113.875 21.3182 113.53 21.3994 113.225 21.5618C112.924 21.7242 112.685 21.9612 112.51 22.2727C112.337 22.5843 112.251 22.9621 112.251 23.4062ZM122.551 28.1591C121.815 28.1591 121.18 27.9967 120.647 27.6719C120.117 27.3438 119.707 26.8864 119.419 26.2997C119.134 25.7098 118.991 25.0237 118.991 24.2415C118.991 23.4593 119.134 22.7699 119.419 22.1733C119.707 21.5734 120.108 21.1061 120.622 20.7713C121.139 20.4332 121.742 20.2642 122.432 20.2642C122.829 20.2642 123.222 20.3305 123.61 20.4631C123.998 20.5956 124.351 20.8111 124.669 21.1094C124.987 21.4044 125.241 21.7955 125.43 22.2827C125.618 22.7699 125.713 23.3698 125.713 24.0824V24.5795H119.827V23.5653H124.52C124.52 23.1345 124.434 22.75 124.261 22.4119C124.092 22.0739 123.85 21.8071 123.535 21.6115C123.224 21.416 122.856 21.3182 122.432 21.3182C121.964 21.3182 121.56 21.4342 121.219 21.6662C120.881 21.8949 120.62 22.1932 120.438 22.5611C120.256 22.929 120.165 23.3234 120.165 23.7443V24.4205C120.165 24.9972 120.264 25.486 120.463 25.8871C120.665 26.2848 120.945 26.5881 121.303 26.7969C121.661 27.0024 122.077 27.1051 122.551 27.1051C122.859 27.1051 123.138 27.062 123.386 26.9759C123.638 26.8864 123.855 26.7538 124.037 26.5781C124.22 26.3991 124.361 26.1771 124.46 25.9119L125.594 26.2301C125.474 26.6146 125.274 26.9527 124.992 27.2443C124.71 27.5327 124.362 27.758 123.948 27.9205C123.534 28.0795 123.068 28.1591 122.551 28.1591ZM127.498 28V20.3636H128.671V28H127.498ZM128.094 19.0909C127.866 19.0909 127.668 19.013 127.503 18.8572C127.34 18.7015 127.259 18.5142 127.259 18.2955C127.259 18.0767 127.34 17.8894 127.503 17.7337C127.668 17.5779 127.866 17.5 128.094 17.5C128.323 17.5 128.519 17.5779 128.681 17.7337C128.847 17.8894 128.93 18.0767 128.93 18.2955C128.93 18.5142 128.847 18.7015 128.681 18.8572C128.519 19.013 128.323 19.0909 128.094 19.0909ZM130.82 28V20.3636H131.953V21.517H132.033C132.172 21.1392 132.424 20.8326 132.789 20.5973C133.153 20.362 133.564 20.2443 134.022 20.2443C134.108 20.2443 134.216 20.246 134.345 20.2493C134.474 20.2526 134.572 20.2576 134.638 20.2642V21.4574C134.598 21.4474 134.507 21.4325 134.365 21.4126C134.225 21.3894 134.078 21.3778 133.922 21.3778C133.551 21.3778 133.22 21.4557 132.928 21.6115C132.64 21.764 132.411 21.9761 132.242 22.2479C132.076 22.5163 131.993 22.8229 131.993 23.1676V28H130.82ZM141.697 28L139.37 20.3636H140.603L142.253 26.2102H142.333L143.964 20.3636H145.216L146.827 26.1903H146.907L148.557 20.3636H149.79L147.464 28H146.31L144.64 22.1335H144.52L142.85 28H141.697ZM154.184 28.1591C153.495 28.1591 152.89 27.995 152.369 27.6669C151.852 27.3388 151.448 26.8797 151.156 26.2898C150.868 25.6998 150.724 25.0104 150.724 24.2216C150.724 23.4261 150.868 22.7318 151.156 22.1385C151.448 21.5452 151.852 21.0845 152.369 20.7564C152.89 20.4283 153.495 20.2642 154.184 20.2642C154.873 20.2642 155.477 20.4283 155.994 20.7564C156.514 21.0845 156.918 21.5452 157.207 22.1385C157.498 22.7318 157.644 23.4261 157.644 24.2216C157.644 25.0104 157.498 25.6998 157.207 26.2898C156.918 26.8797 156.514 27.3388 155.994 27.6669C155.477 27.995 154.873 28.1591 154.184 28.1591ZM154.184 27.1051C154.708 27.1051 155.138 26.9709 155.477 26.7024C155.815 26.4339 156.065 26.081 156.227 25.6435C156.39 25.206 156.471 24.732 156.471 24.2216C156.471 23.7112 156.39 23.2356 156.227 22.7947C156.065 22.3539 155.815 21.9976 155.477 21.7259C155.138 21.4541 154.708 21.3182 154.184 21.3182C153.66 21.3182 153.229 21.4541 152.891 21.7259C152.553 21.9976 152.303 22.3539 152.141 22.7947C151.978 23.2356 151.897 23.7112 151.897 24.2216C151.897 24.732 151.978 25.206 152.141 25.6435C152.303 26.081 152.553 26.4339 152.891 26.7024C153.229 26.9709 153.66 27.1051 154.184 27.1051ZM159.435 28V20.3636H160.569V21.517H160.648C160.787 21.1392 161.039 20.8326 161.404 20.5973C161.769 20.362 162.18 20.2443 162.637 20.2443C162.723 20.2443 162.831 20.246 162.96 20.2493C163.089 20.2526 163.187 20.2576 163.253 20.2642V21.4574C163.214 21.4474 163.122 21.4325 162.98 21.4126C162.841 21.3894 162.693 21.3778 162.537 21.3778C162.166 21.3778 161.835 21.4557 161.543 21.6115C161.255 21.764 161.026 21.9761 160.857 22.2479C160.691 22.5163 160.608 22.8229 160.608 23.1676V28H159.435ZM165.738 25.2159L165.718 23.7642H165.957L169.298 20.3636H170.749L167.19 23.9631H167.09L165.738 25.2159ZM164.644 28V17.8182H165.817V28H164.644ZM169.496 28L166.513 24.2216L167.349 23.4062L170.988 28H169.496ZM177.927 28L175.6 20.3636H176.833L178.484 26.2102H178.563L180.194 20.3636H181.447L183.058 26.1903H183.137L184.788 20.3636H186.021L183.694 28H182.541L180.87 22.1335H180.751L179.08 28H177.927ZM187.572 28V20.3636H188.745V28H187.572ZM188.169 19.0909C187.94 19.0909 187.743 19.013 187.577 18.8572C187.414 18.7015 187.333 18.5142 187.333 18.2955C187.333 18.0767 187.414 17.8894 187.577 17.7337C187.743 17.5779 187.94 17.5 188.169 17.5C188.397 17.5 188.593 17.5779 188.755 17.7337C188.921 17.8894 189.004 18.0767 189.004 18.2955C189.004 18.5142 188.921 18.7015 188.755 18.8572C188.593 19.013 188.397 19.0909 188.169 19.0909ZM194.215 20.3636V21.358H190.258V20.3636H194.215ZM191.411 18.5341H192.585V25.8125C192.585 26.1439 192.633 26.3925 192.729 26.5582C192.828 26.7206 192.954 26.83 193.107 26.8864C193.262 26.9394 193.426 26.9659 193.599 26.9659C193.728 26.9659 193.834 26.9593 193.917 26.946C194 26.9295 194.066 26.9162 194.116 26.9062L194.354 27.9602C194.275 27.9901 194.164 28.0199 194.021 28.0497C193.879 28.0829 193.698 28.0994 193.479 28.0994C193.148 28.0994 192.823 28.0282 192.505 27.8857C192.19 27.7431 191.928 27.526 191.719 27.2344C191.514 26.9427 191.411 26.5748 191.411 26.1307V18.5341ZM197.317 23.4062V28H196.144V17.8182H197.317V21.5568H197.417C197.596 21.1624 197.864 20.8492 198.222 20.6172C198.584 20.3819 199.064 20.2642 199.664 20.2642C200.184 20.2642 200.64 20.3686 201.031 20.5774C201.422 20.7829 201.726 21.0994 201.941 21.527C202.16 21.9512 202.269 22.4915 202.269 23.1477V28H201.096V23.2273C201.096 22.6207 200.938 22.1518 200.624 21.8203C200.312 21.4856 199.879 21.3182 199.326 21.3182C198.942 21.3182 198.597 21.3994 198.292 21.5618C197.99 21.7242 197.752 21.9612 197.576 22.2727C197.404 22.5843 197.317 22.9621 197.317 23.4062ZM211.555 28.1591C210.819 28.1591 210.184 27.9967 209.651 27.6719C209.12 27.3438 208.711 26.8864 208.423 26.2997C208.138 25.7098 207.995 25.0237 207.995 24.2415C207.995 23.4593 208.138 22.7699 208.423 22.1733C208.711 21.5734 209.112 21.1061 209.626 20.7713C210.143 20.4332 210.746 20.2642 211.436 20.2642C211.833 20.2642 212.226 20.3305 212.614 20.4631C213.002 20.5956 213.355 20.8111 213.673 21.1094C213.991 21.4044 214.244 21.7955 214.433 22.2827C214.622 22.7699 214.717 23.3698 214.717 24.0824V24.5795H208.83V23.5653H213.524C213.524 23.1345 213.437 22.75 213.265 22.4119C213.096 22.0739 212.854 21.8071 212.539 21.6115C212.228 21.416 211.86 21.3182 211.436 21.3182C210.968 21.3182 210.564 21.4342 210.222 21.6662C209.884 21.8949 209.624 22.1932 209.442 22.5611C209.26 22.929 209.169 23.3234 209.169 23.7443V24.4205C209.169 24.9972 209.268 25.486 209.467 25.8871C209.669 26.2848 209.949 26.5881 210.307 26.7969C210.665 27.0024 211.081 27.1051 211.555 27.1051C211.863 27.1051 212.142 27.062 212.39 26.9759C212.642 26.8864 212.859 26.7538 213.041 26.5781C213.224 26.3991 213.365 26.1771 213.464 25.9119L214.597 26.2301C214.478 26.6146 214.278 26.9527 213.996 27.2443C213.714 27.5327 213.366 27.758 212.952 27.9205C212.538 28.0795 212.072 28.1591 211.555 28.1591ZM216.502 28V20.3636H217.635V21.5568H217.735C217.894 21.1491 218.151 20.8326 218.505 20.6072C218.86 20.3786 219.286 20.2642 219.783 20.2642C220.287 20.2642 220.706 20.3786 221.041 20.6072C221.379 20.8326 221.642 21.1491 221.831 21.5568H221.911C222.106 21.1624 222.4 20.8492 222.791 20.6172C223.182 20.3819 223.651 20.2642 224.198 20.2642C224.88 20.2642 225.439 20.478 225.873 20.9055C226.307 21.3298 226.524 21.991 226.524 22.8892V28H225.351V22.8892C225.351 22.3258 225.197 21.9231 224.889 21.6811C224.58 21.4392 224.218 21.3182 223.8 21.3182C223.263 21.3182 222.847 21.4806 222.552 21.8054C222.257 22.1269 222.11 22.5346 222.11 23.0284V28H220.916V22.7699C220.916 22.3357 220.776 21.986 220.494 21.7209C220.212 21.4524 219.849 21.3182 219.405 21.3182C219.1 21.3182 218.815 21.3994 218.55 21.5618C218.288 21.7242 218.076 21.9496 217.914 22.2379C217.754 22.523 217.675 22.8527 217.675 23.2273V28H216.502ZM228.67 30.8636V20.3636H229.803V21.5767H229.942C230.028 21.4441 230.148 21.2751 230.3 21.0696C230.456 20.8608 230.678 20.6752 230.966 20.5128C231.258 20.3471 231.653 20.2642 232.15 20.2642C232.793 20.2642 233.359 20.425 233.85 20.7464C234.34 21.0679 234.723 21.5237 234.998 22.1136C235.273 22.7036 235.411 23.3996 235.411 24.2017C235.411 25.0104 235.273 25.7114 234.998 26.3047C234.723 26.8946 234.342 27.352 233.855 27.6768C233.368 27.9983 232.806 28.1591 232.17 28.1591C231.679 28.1591 231.286 28.0779 230.991 27.9155C230.696 27.7498 230.469 27.5625 230.31 27.3537C230.151 27.1416 230.028 26.9659 229.942 26.8267H229.843V30.8636H228.67ZM229.823 24.1818C229.823 24.7585 229.907 25.2673 230.077 25.7081C230.246 26.1456 230.492 26.4886 230.817 26.7372C231.142 26.9825 231.54 27.1051 232.01 27.1051C232.501 27.1051 232.91 26.9759 233.238 26.7173C233.57 26.4555 233.818 26.1042 233.984 25.6634C234.153 25.2192 234.238 24.7254 234.238 24.1818C234.238 23.6449 234.155 23.161 233.989 22.7301C233.827 22.2959 233.58 21.9529 233.248 21.701C232.92 21.4458 232.508 21.3182 232.01 21.3182C231.533 21.3182 231.132 21.4392 230.807 21.6811C230.483 21.9197 230.237 22.2545 230.072 22.6854C229.906 23.1129 229.823 23.6117 229.823 24.1818ZM238.374 23.4062V28H237.201V17.8182H238.374V21.5568H238.474C238.653 21.1624 238.921 20.8492 239.279 20.6172C239.64 20.3819 240.121 20.2642 240.721 20.2642C241.241 20.2642 241.697 20.3686 242.088 20.5774C242.479 20.7829 242.782 21.0994 242.998 21.527C243.216 21.9512 243.326 22.4915 243.326 23.1477V28H242.153V23.2273C242.153 22.6207 241.995 22.1518 241.68 21.8203C241.369 21.4856 240.936 21.3182 240.383 21.3182C239.998 21.3182 239.653 21.3994 239.349 21.5618C239.047 21.7242 238.808 21.9612 238.633 22.2727C238.46 22.5843 238.374 22.9621 238.374 23.4062ZM247.719 28.179C247.236 28.179 246.796 28.0878 246.402 27.9055C246.008 27.7199 245.694 27.4531 245.462 27.1051C245.23 26.7538 245.114 26.3295 245.114 25.8324C245.114 25.3949 245.201 25.0402 245.373 24.7685C245.545 24.4934 245.776 24.2779 246.064 24.1222C246.352 23.9664 246.67 23.8504 247.018 23.7741C247.37 23.6946 247.723 23.6316 248.077 23.5852C248.541 23.5256 248.918 23.4808 249.206 23.451C249.498 23.4179 249.71 23.3632 249.842 23.2869C249.978 23.2107 250.046 23.0781 250.046 22.8892V22.8494C250.046 22.3589 249.912 21.9777 249.643 21.706C249.378 21.4342 248.976 21.2983 248.435 21.2983C247.875 21.2983 247.436 21.4209 247.118 21.6662C246.8 21.9115 246.576 22.1733 246.447 22.4517L245.333 22.054C245.532 21.59 245.797 21.2287 246.129 20.9702C246.463 20.7083 246.828 20.526 247.222 20.4233C247.62 20.3172 248.011 20.2642 248.396 20.2642C248.641 20.2642 248.923 20.294 249.241 20.3537C249.562 20.41 249.872 20.5277 250.17 20.7067C250.472 20.8857 250.722 21.1558 250.921 21.517C251.12 21.8783 251.219 22.3622 251.219 22.9688V28H250.046V26.9659H249.987C249.907 27.1316 249.774 27.3089 249.589 27.4979C249.403 27.6868 249.156 27.8475 248.848 27.9801C248.54 28.1127 248.164 28.179 247.719 28.179ZM247.898 27.125C248.362 27.125 248.754 27.0339 249.072 26.8516C249.393 26.6693 249.635 26.4339 249.798 26.1456C249.963 25.8572 250.046 25.554 250.046 25.2358V24.1619C249.996 24.2216 249.887 24.2763 249.718 24.326C249.552 24.3724 249.36 24.4138 249.141 24.4503C248.926 24.4834 248.715 24.5133 248.51 24.5398C248.308 24.563 248.144 24.5829 248.018 24.5994C247.713 24.6392 247.428 24.7038 247.163 24.7933C246.901 24.8795 246.689 25.0104 246.526 25.1861C246.367 25.3584 246.288 25.5937 246.288 25.892C246.288 26.2997 246.438 26.608 246.74 26.8168C247.045 27.0223 247.431 27.125 247.898 27.125ZM256.682 20.3636V21.358H252.725V20.3636H256.682ZM253.878 18.5341H255.051V25.8125C255.051 26.1439 255.099 26.3925 255.195 26.5582C255.295 26.7206 255.421 26.83 255.573 26.8864C255.729 26.9394 255.893 26.9659 256.066 26.9659C256.195 26.9659 256.301 26.9593 256.384 26.946C256.467 26.9295 256.533 26.9162 256.583 26.9062L256.821 27.9602C256.742 27.9901 256.631 28.0199 256.488 28.0497C256.346 28.0829 256.165 28.0994 255.946 28.0994C255.615 28.0994 255.29 28.0282 254.972 27.8857C254.657 27.7431 254.395 27.526 254.186 27.2344C253.981 26.9427 253.878 26.5748 253.878 26.1307V18.5341ZM258.447 28V20.3636H259.62V28H258.447ZM259.044 19.0909C258.815 19.0909 258.618 19.013 258.452 18.8572C258.289 18.7015 258.208 18.5142 258.208 18.2955C258.208 18.0767 258.289 17.8894 258.452 17.7337C258.618 17.5779 258.815 17.5 259.044 17.5C259.272 17.5 259.468 17.5779 259.63 17.7337C259.796 17.8894 259.879 18.0767 259.879 18.2955C259.879 18.5142 259.796 18.7015 259.63 18.8572C259.468 19.013 259.272 19.0909 259.044 19.0909ZM264.871 28.1591C264.156 28.1591 263.539 27.9901 263.022 27.652C262.505 27.3139 262.107 26.8482 261.829 26.255C261.55 25.6617 261.411 24.9839 261.411 24.2216C261.411 23.446 261.554 22.7616 261.839 22.1683C262.127 21.5717 262.528 21.1061 263.042 20.7713C263.559 20.4332 264.162 20.2642 264.852 20.2642C265.388 20.2642 265.872 20.3636 266.303 20.5625C266.734 20.7614 267.087 21.0398 267.362 21.3977C267.637 21.7557 267.808 22.1733 267.874 22.6506H266.701C266.612 22.3026 266.413 21.9943 266.104 21.7259C265.799 21.4541 265.388 21.3182 264.871 21.3182C264.414 21.3182 264.013 21.4375 263.668 21.6761C263.327 21.9115 263.06 22.2446 262.868 22.6754C262.679 23.103 262.585 23.6051 262.585 24.1818C262.585 24.7718 262.677 25.2855 262.863 25.723C263.052 26.1605 263.317 26.5002 263.658 26.7422C264.003 26.9841 264.407 27.1051 264.871 27.1051C265.176 27.1051 265.453 27.0521 265.702 26.946C265.95 26.84 266.161 26.6875 266.333 26.4886C266.505 26.2898 266.628 26.0511 266.701 25.7727H267.874C267.808 26.2235 267.644 26.6295 267.382 26.9908C267.124 27.3487 266.781 27.6338 266.353 27.8459C265.929 28.0547 265.435 28.1591 264.871 28.1591ZM274.621 25.2159L274.601 23.7642H274.839L278.18 20.3636H279.632L276.072 23.9631H275.973L274.621 25.2159ZM273.527 28V17.8182H274.7V28H273.527ZM278.379 28L275.396 24.2216L276.232 23.4062L279.871 28H278.379ZM281.142 28V20.3636H282.316V28H281.142ZM281.739 19.0909C281.51 19.0909 281.313 19.013 281.147 18.8572C280.985 18.7015 280.904 18.5142 280.904 18.2955C280.904 18.0767 280.985 17.8894 281.147 17.7337C281.313 17.5779 281.51 17.5 281.739 17.5C281.968 17.5 282.163 17.5779 282.325 17.7337C282.491 17.8894 282.574 18.0767 282.574 18.2955C282.574 18.5142 282.491 18.7015 282.325 18.8572C282.163 19.013 281.968 19.0909 281.739 19.0909ZM285.638 23.4062V28H284.464V20.3636H285.598V21.5568H285.697C285.876 21.169 286.148 20.8575 286.513 20.6222C286.877 20.3835 287.348 20.2642 287.925 20.2642C288.442 20.2642 288.894 20.3703 289.282 20.5824C289.67 20.7912 289.971 21.1094 290.187 21.5369C290.402 21.9612 290.51 22.4981 290.51 23.1477V28H289.337V23.2273C289.337 22.6274 289.181 22.16 288.869 21.8253C288.558 21.4872 288.13 21.3182 287.587 21.3182C287.212 21.3182 286.877 21.3994 286.582 21.5618C286.291 21.7242 286.06 21.9612 285.891 22.2727C285.722 22.5843 285.638 22.9621 285.638 23.4062ZM295.537 28.1591C294.901 28.1591 294.339 27.9983 293.852 27.6768C293.365 27.352 292.984 26.8946 292.709 26.3047C292.434 25.7114 292.296 25.0104 292.296 24.2017C292.296 23.3996 292.434 22.7036 292.709 22.1136C292.984 21.5237 293.367 21.0679 293.857 20.7464C294.348 20.425 294.914 20.2642 295.557 20.2642C296.055 20.2642 296.447 20.3471 296.736 20.5128C297.027 20.6752 297.249 20.8608 297.402 21.0696C297.558 21.2751 297.679 21.4441 297.765 21.5767H297.864V17.8182H299.037V28H297.904V26.8267H297.765C297.679 26.9659 297.556 27.1416 297.397 27.3537C297.238 27.5625 297.011 27.7498 296.716 27.9155C296.421 28.0779 296.028 28.1591 295.537 28.1591ZM295.697 27.1051C296.167 27.1051 296.565 26.9825 296.89 26.7372C297.215 26.4886 297.461 26.1456 297.631 25.7081C297.8 25.2673 297.884 24.7585 297.884 24.1818C297.884 23.6117 297.801 23.1129 297.635 22.6854C297.47 22.2545 297.224 21.9197 296.9 21.6811C296.575 21.4392 296.174 21.3182 295.697 21.3182C295.199 21.3182 294.785 21.4458 294.454 21.701C294.126 21.9529 293.879 22.2959 293.713 22.7301C293.55 23.161 293.469 23.6449 293.469 24.1818C293.469 24.7254 293.552 25.2192 293.718 25.6634C293.887 26.1042 294.135 26.4555 294.464 26.7173C294.795 26.9759 295.206 27.1051 295.697 27.1051ZM302.523 23.4062V28H301.349V20.3636H302.483V21.5568H302.582C302.761 21.169 303.033 20.8575 303.398 20.6222C303.762 20.3835 304.233 20.2642 304.809 20.2642C305.327 20.2642 305.779 20.3703 306.167 20.5824C306.555 20.7912 306.856 21.1094 307.072 21.5369C307.287 21.9612 307.395 22.4981 307.395 23.1477V28H306.221V23.2273C306.221 22.6274 306.066 22.16 305.754 21.8253C305.443 21.4872 305.015 21.3182 304.471 21.3182C304.097 21.3182 303.762 21.3994 303.467 21.5618C303.175 21.7242 302.945 21.9612 302.776 22.2727C302.607 22.5843 302.523 22.9621 302.523 23.4062ZM312.74 28.1591C312.005 28.1591 311.37 27.9967 310.836 27.6719C310.306 27.3438 309.897 26.8864 309.608 26.2997C309.323 25.7098 309.181 25.0237 309.181 24.2415C309.181 23.4593 309.323 22.7699 309.608 22.1733C309.897 21.5734 310.298 21.1061 310.811 20.7713C311.328 20.4332 311.932 20.2642 312.621 20.2642C313.019 20.2642 313.412 20.3305 313.799 20.4631C314.187 20.5956 314.54 20.8111 314.858 21.1094C315.176 21.4044 315.43 21.7955 315.619 22.2827C315.808 22.7699 315.902 23.3698 315.902 24.0824V24.5795H310.016V23.5653H314.709C314.709 23.1345 314.623 22.75 314.451 22.4119C314.282 22.0739 314.04 21.8071 313.725 21.6115C313.413 21.416 313.045 21.3182 312.621 21.3182C312.154 21.3182 311.749 21.4342 311.408 21.6662C311.07 21.8949 310.81 22.1932 310.627 22.5611C310.445 22.929 310.354 23.3234 310.354 23.7443V24.4205C310.354 24.9972 310.453 25.486 310.652 25.8871C310.855 26.2848 311.135 26.5881 311.493 26.7969C311.85 27.0024 312.266 27.1051 312.74 27.1051C313.049 27.1051 313.327 27.062 313.576 26.9759C313.828 26.8864 314.045 26.7538 314.227 26.5781C314.409 26.3991 314.55 26.1771 314.65 25.9119L315.783 26.2301C315.664 26.6146 315.463 26.9527 315.181 27.2443C314.9 27.5327 314.552 27.758 314.137 27.9205C313.723 28.0795 313.257 28.1591 312.74 28.1591ZM323.096 22.0739L322.042 22.3722C321.976 22.1965 321.878 22.0258 321.749 21.8601C321.623 21.6911 321.451 21.5518 321.232 21.4425C321.013 21.3331 320.733 21.2784 320.392 21.2784C319.924 21.2784 319.535 21.3861 319.223 21.6016C318.915 21.8137 318.761 22.0838 318.761 22.4119C318.761 22.7036 318.867 22.9339 319.079 23.103C319.291 23.272 319.623 23.4129 320.074 23.5256L321.207 23.804C321.89 23.9697 322.399 24.2232 322.733 24.5646C323.068 24.9027 323.235 25.3385 323.235 25.8722C323.235 26.3097 323.109 26.7008 322.858 27.0455C322.609 27.3902 322.261 27.6619 321.814 27.8608C321.366 28.0597 320.846 28.1591 320.252 28.1591C319.474 28.1591 318.829 27.9901 318.319 27.652C317.808 27.3139 317.485 26.8201 317.349 26.1705L318.463 25.892C318.569 26.303 318.769 26.6113 319.064 26.8168C319.363 27.0223 319.752 27.125 320.233 27.125C320.779 27.125 321.214 27.009 321.535 26.777C321.86 26.5417 322.022 26.2599 322.022 25.9318C322.022 25.6667 321.93 25.4446 321.744 25.2656C321.558 25.0833 321.273 24.9474 320.889 24.858L319.616 24.5597C318.917 24.3939 318.403 24.1371 318.075 23.7891C317.75 23.4377 317.588 22.9986 317.588 22.4716C317.588 22.0407 317.709 21.6596 317.951 21.3281C318.196 20.9967 318.529 20.7365 318.95 20.5476C319.374 20.3587 319.855 20.2642 320.392 20.2642C321.147 20.2642 321.741 20.4299 322.172 20.7614C322.606 21.0928 322.914 21.5303 323.096 22.0739ZM330.411 22.0739L329.357 22.3722C329.29 22.1965 329.193 22.0258 329.063 21.8601C328.937 21.6911 328.765 21.5518 328.546 21.4425C328.328 21.3331 328.048 21.2784 327.706 21.2784C327.239 21.2784 326.849 21.3861 326.538 21.6016C326.23 21.8137 326.075 22.0838 326.075 22.4119C326.075 22.7036 326.182 22.9339 326.394 23.103C326.606 23.272 326.937 23.4129 327.388 23.5256L328.521 23.804C329.204 23.9697 329.713 24.2232 330.048 24.5646C330.383 24.9027 330.55 25.3385 330.55 25.8722C330.55 26.3097 330.424 26.7008 330.172 27.0455C329.923 27.3902 329.575 27.6619 329.128 27.8608C328.681 28.0597 328.16 28.1591 327.567 28.1591C326.788 28.1591 326.143 27.9901 325.633 27.652C325.123 27.3139 324.799 26.8201 324.664 26.1705L325.777 25.892C325.883 26.303 326.084 26.6113 326.379 26.8168C326.677 27.0223 327.066 27.125 327.547 27.125C328.094 27.125 328.528 27.009 328.85 26.777C329.174 26.5417 329.337 26.2599 329.337 25.9318C329.337 25.6667 329.244 25.4446 329.058 25.2656C328.873 25.0833 328.588 24.9474 328.203 24.858L326.931 24.5597C326.231 24.3939 325.718 24.1371 325.389 23.7891C325.065 23.4377 324.902 22.9986 324.902 22.4716C324.902 22.0407 325.023 21.6596 325.265 21.3281C325.51 20.9967 325.843 20.7365 326.264 20.5476C326.689 20.3587 327.169 20.2642 327.706 20.2642C328.462 20.2642 329.055 20.4299 329.486 20.7614C329.92 21.0928 330.228 21.5303 330.411 22.0739ZM333.171 28.0795C332.926 28.0795 332.715 27.9917 332.54 27.8161C332.364 27.6404 332.276 27.4299 332.276 27.1847C332.276 26.9394 332.364 26.7289 332.54 26.5533C332.715 26.3776 332.926 26.2898 333.171 26.2898C333.416 26.2898 333.627 26.3776 333.803 26.5533C333.978 26.7289 334.066 26.9394 334.066 27.1847C334.066 27.3471 334.025 27.4962 333.942 27.6321C333.862 27.768 333.754 27.8774 333.619 27.9602C333.486 28.0398 333.337 28.0795 333.171 28.0795Z" fill="#03435F"/>
</svg>
