<svg width="1278" height="24" viewBox="0 0 1278 24" fill="none" xmlns="http://www.w3.org/2000/svg">
<path d="M4 11.9091C4 11.3655 4.13258 10.87 4.39773 10.4226C4.66288 9.97514 5.01918 9.61884 5.46662 9.35369C5.91406 9.08854 6.40956 8.95597 6.95312 8.95597C7.42377 8.95597 7.85795 9.05705 8.25568 9.25923C8.65672 9.46141 8.98816 9.73816 9.25 10.0895C9.51184 10.4375 9.67424 10.8319 9.73722 11.2727H8.53409C8.4678 10.9313 8.28385 10.6529 7.98224 10.4375C7.68063 10.2188 7.33759 10.1094 6.95312 10.1094C6.62169 10.1094 6.32008 10.1906 6.0483 10.353C5.77652 10.5154 5.55942 10.7325 5.39702 11.0043C5.23461 11.276 5.15341 11.5777 5.15341 11.9091C5.15341 12.2405 5.23461 12.5421 5.39702 12.8139C5.55942 13.0857 5.77652 13.3028 6.0483 13.4652C6.32008 13.6276 6.62169 13.7088 6.95312 13.7088C7.33759 13.7088 7.66241 13.6011 7.92756 13.3857C8.19602 13.1669 8.36506 12.8868 8.43466 12.5455H9.63778C9.57481 12.9863 9.42069 13.3823 9.17543 13.7337C8.93016 14.0817 8.61529 14.3568 8.23082 14.5589C7.84967 14.7611 7.42377 14.8622 6.95312 14.8622C6.40956 14.8622 5.91406 14.7296 5.46662 14.4645C5.01918 14.1993 4.66288 13.843 4.39773 13.3956C4.13258 12.9482 4 12.4527 4 11.9091ZM6.90341 17.1591C6.18087 17.1591 5.50142 17.0232 4.86506 16.7514C4.23201 16.4796 3.67353 16.1035 3.18963 15.6229C2.70904 15.139 2.3312 14.5805 2.05611 13.9474C1.78433 13.3144 1.65009 12.6349 1.65341 11.9091C1.65672 11.1832 1.79427 10.5038 2.06605 9.87074C2.34115 9.23769 2.71899 8.68087 3.19957 8.20028C3.68016 7.71638 4.23698 7.33854 4.87003 7.06676C5.50308 6.79498 6.18087 6.65909 6.90341 6.65909C7.62926 6.65909 8.30871 6.79498 8.94176 7.06676C9.57813 7.33854 10.1349 7.71638 10.6122 8.20028C11.0928 8.68087 11.469 9.23769 11.7408 9.87074C12.0125 10.5038 12.1501 11.1832 12.1534 11.9091C12.1567 12.6349 12.0225 13.3144 11.7507 13.9474C11.4789 14.5805 11.1027 15.139 10.6222 15.6229C10.1416 16.1035 9.5831 16.4796 8.94673 16.7514C8.31037 17.0232 7.62926 17.1591 6.90341 17.1591ZM6.90341 16.0057C7.47017 16.0057 8.00213 15.8996 8.49929 15.6875C8.99645 15.4754 9.43229 15.1821 9.80682 14.8075C10.1813 14.433 10.4747 13.9988 10.6868 13.505C10.8989 13.0078 11.0033 12.4775 11 11.9141C10.9967 11.3473 10.889 10.8153 10.6768 10.3182C10.4647 9.82102 10.1714 9.38518 9.79688 9.01065C9.42235 8.63613 8.98816 8.3428 8.49432 8.13068C8.00047 7.91856 7.47017 7.8125 6.90341 7.8125C6.33996 7.8125 5.81132 7.91856 5.31747 8.13068C4.82363 8.3428 4.38944 8.63778 4.01491 9.01562C3.64039 9.39015 3.34541 9.82599 3.12997 10.3232C2.91785 10.817 2.81013 11.3473 2.80682 11.9141C2.8035 12.4742 2.90791 13.0028 3.12003 13.5C3.33215 13.9938 3.62547 14.428 4 14.8026C4.37784 15.1771 4.81368 15.4721 5.30753 15.6875C5.80469 15.8996 6.33665 16.0057 6.90341 16.0057ZM18.302 17V16.1051L21.6628 12.4261C22.0572 11.9953 22.382 11.6207 22.6373 11.3026C22.8925 10.9811 23.0814 10.6795 23.204 10.3977C23.33 10.1127 23.3929 9.81439 23.3929 9.50284C23.3929 9.14489 23.3068 8.83499 23.1344 8.57315C22.9654 8.31132 22.7334 8.10914 22.4384 7.96662C22.1434 7.8241 21.812 7.75284 21.4441 7.75284C21.053 7.75284 20.7116 7.83404 20.4199 7.99645C20.1316 8.15554 19.9078 8.37926 19.7488 8.66761C19.593 8.95597 19.5151 9.29403 19.5151 9.68182H18.3418C18.3418 9.08523 18.4793 8.56155 18.7544 8.1108C19.0295 7.66004 19.4041 7.30871 19.878 7.05682C20.3553 6.80492 20.8906 6.67898 21.4838 6.67898C22.0804 6.67898 22.6091 6.80492 23.0698 7.05682C23.5305 7.30871 23.8917 7.64844 24.1536 8.07599C24.4154 8.50355 24.5463 8.97917 24.5463 9.50284C24.5463 9.87737 24.4784 10.2436 24.3425 10.6016C24.2099 10.9562 23.9779 11.3523 23.6465 11.7898C23.3184 12.224 22.8626 12.7543 22.2793 13.3807L19.9924 15.8267V15.9062H24.7253V17H18.302ZM30.0996 17.1392C29.3506 17.1392 28.7125 16.9354 28.1855 16.5277C27.6586 16.1167 27.2559 15.5218 26.9775 14.7429C26.699 13.9607 26.5598 13.0161 26.5598 11.9091C26.5598 10.8087 26.699 9.86908 26.9775 9.0902C27.2592 8.308 27.6635 7.71141 28.1905 7.30043C28.7208 6.88613 29.3572 6.67898 30.0996 6.67898C30.842 6.67898 31.4767 6.88613 32.0037 7.30043C32.534 7.71141 32.9384 8.308 33.2168 9.0902C33.4985 9.86908 33.6394 10.8087 33.6394 11.9091C33.6394 13.0161 33.5002 13.9607 33.2218 14.7429C32.9434 15.5218 32.5407 16.1167 32.0137 16.5277C31.4867 16.9354 30.8487 17.1392 30.0996 17.1392ZM30.0996 16.0455C30.842 16.0455 31.4187 15.6875 31.8297 14.9716C32.2407 14.2557 32.4462 13.2348 32.4462 11.9091C32.4462 11.0275 32.3517 10.2768 32.1628 9.65696C31.9772 9.03717 31.7087 8.56487 31.3574 8.24006C31.0094 7.91525 30.5901 7.75284 30.0996 7.75284C29.3638 7.75284 28.7888 8.11577 28.3745 8.84162C27.9602 9.56416 27.753 10.5866 27.753 11.9091C27.753 12.7907 27.8458 13.5398 28.0314 14.1562C28.217 14.7727 28.4838 15.2417 28.8319 15.5632C29.1832 15.8847 29.6058 16.0455 30.0996 16.0455ZM35.5286 17V16.1051L38.8894 12.4261C39.2838 11.9953 39.6086 11.6207 39.8638 11.3026C40.119 10.9811 40.3079 10.6795 40.4306 10.3977C40.5565 10.1127 40.6195 9.81439 40.6195 9.50284C40.6195 9.14489 40.5333 8.83499 40.361 8.57315C40.1919 8.31132 39.9599 8.10914 39.665 7.96662C39.37 7.8241 39.0385 7.75284 38.6706 7.75284C38.2795 7.75284 37.9382 7.83404 37.6465 7.99645C37.3581 8.15554 37.1344 8.37926 36.9753 8.66761C36.8195 8.95597 36.7417 9.29403 36.7417 9.68182H35.5684C35.5684 9.08523 35.7059 8.56155 35.981 8.1108C36.2561 7.66004 36.6306 7.30871 37.1046 7.05682C37.5819 6.80492 38.1171 6.67898 38.7104 6.67898C39.307 6.67898 39.8356 6.80492 40.2963 7.05682C40.757 7.30871 41.1183 7.64844 41.3801 8.07599C41.642 8.50355 41.7729 8.97917 41.7729 9.50284C41.7729 9.87737 41.705 10.2436 41.5691 10.6016C41.4365 10.9562 41.2045 11.3523 40.873 11.7898C40.5449 12.224 40.0892 12.7543 39.5059 13.3807L37.2189 15.8267V15.9062H41.9519V17H35.5286ZM44.0051 17V16.1051L47.3659 12.4261C47.7604 11.9953 48.0852 11.6207 48.3404 11.3026C48.5956 10.9811 48.7845 10.6795 48.9071 10.3977C49.0331 10.1127 49.0961 9.81439 49.0961 9.50284C49.0961 9.14489 49.0099 8.83499 48.8375 8.57315C48.6685 8.31132 48.4365 8.10914 48.1415 7.96662C47.8465 7.8241 47.5151 7.75284 47.1472 7.75284C46.7561 7.75284 46.4147 7.83404 46.123 7.99645C45.8347 8.15554 45.611 8.37926 45.4519 8.66761C45.2961 8.95597 45.2182 9.29403 45.2182 9.68182H44.0449C44.0449 9.08523 44.1825 8.56155 44.4576 8.1108C44.7327 7.66004 45.1072 7.30871 45.5811 7.05682C46.0584 6.80492 46.5937 6.67898 47.187 6.67898C47.7836 6.67898 48.3122 6.80492 48.7729 7.05682C49.2336 7.30871 49.5949 7.64844 49.8567 8.07599C50.1185 8.50355 50.2495 8.97917 50.2495 9.50284C50.2495 9.87737 50.1815 10.2436 50.0456 10.6016C49.9131 10.9562 49.681 11.3523 49.3496 11.7898C49.0215 12.224 48.5658 12.7543 47.9824 13.3807L45.6955 15.8267V15.9062H50.4284V17H44.0051ZM56.5982 17V6.81818H60.0385C60.834 6.81818 61.4869 6.95407 61.9973 7.22585C62.5078 7.49432 62.8856 7.86387 63.1309 8.33452C63.3761 8.80516 63.4988 9.34044 63.4988 9.94034C63.4988 10.5402 63.3761 11.0722 63.1309 11.5362C62.8856 12.0002 62.5094 12.3648 62.0023 12.63C61.4952 12.8918 60.8472 13.0227 60.0584 13.0227H57.2743V11.9091H60.0186C60.5622 11.9091 60.9997 11.8295 61.3311 11.6705C61.6659 11.5114 61.9078 11.286 62.057 10.9943C62.2095 10.6993 62.2857 10.348 62.2857 9.94034C62.2857 9.53267 62.2095 9.17637 62.057 8.87145C61.9045 8.56652 61.6609 8.3312 61.3262 8.16548C60.9914 7.99645 60.5489 7.91193 59.9988 7.91193H57.8311V17H56.5982ZM61.3908 12.4261L63.8965 17H62.4647L59.9988 12.4261H61.3908ZM68.5138 17.1591C67.7781 17.1591 67.1433 16.9967 66.6097 16.6719C66.0794 16.3438 65.6701 15.8864 65.3817 15.2997C65.0967 14.7098 64.9542 14.0237 64.9542 13.2415C64.9542 12.4593 65.0967 11.7699 65.3817 11.1733C65.6701 10.5734 66.0711 10.1061 66.5849 9.77131C67.1019 9.43324 67.7051 9.2642 68.3945 9.2642C68.7923 9.2642 69.185 9.33049 69.5728 9.46307C69.9606 9.59564 70.3136 9.81108 70.6317 10.1094C70.9499 10.4044 71.2035 10.7955 71.3924 11.2827C71.5813 11.7699 71.6758 12.3698 71.6758 13.0824V13.5795H65.7894V12.5653H70.4826C70.4826 12.1345 70.3964 11.75 70.2241 11.4119C70.055 11.0739 69.8131 10.8071 69.4982 10.6115C69.1867 10.416 68.8188 10.3182 68.3945 10.3182C67.9272 10.3182 67.5228 10.4342 67.1815 10.6662C66.8434 10.8949 66.5832 11.1932 66.4009 11.5611C66.2186 11.929 66.1275 12.3234 66.1275 12.7443V13.4205C66.1275 13.9972 66.2269 14.486 66.4258 14.8871C66.628 15.2848 66.908 15.5881 67.266 15.7969C67.6239 16.0024 68.0399 16.1051 68.5138 16.1051C68.8221 16.1051 69.1005 16.062 69.3491 15.9759C69.601 15.8864 69.8181 15.7538 70.0004 15.5781C70.1826 15.3991 70.3235 15.1771 70.4229 14.9119L71.5565 15.2301C71.4371 15.6146 71.2366 15.9527 70.9549 16.2443C70.6732 16.5327 70.3252 16.758 69.9109 16.9205C69.4966 17.0795 69.0309 17.1591 68.5138 17.1591ZM75.1907 17L72.864 9.36364H74.0969L75.7475 15.2102H75.8271L77.4577 9.36364H78.7106L80.3214 15.1903H80.4009L82.0515 9.36364H83.2844L80.9577 17H79.8043L78.1339 11.1335H78.0146L76.3441 17H75.1907ZM87.0827 17.179C86.5988 17.179 86.1597 17.0878 85.7653 16.9055C85.3709 16.7199 85.0576 16.4531 84.8256 16.1051C84.5936 15.7538 84.4776 15.3295 84.4776 14.8324C84.4776 14.3949 84.5638 14.0402 84.7362 13.7685C84.9085 13.4934 85.1388 13.2779 85.4272 13.1222C85.7156 12.9664 86.0337 12.8504 86.3817 12.7741C86.7331 12.6946 87.0861 12.6316 87.4407 12.5852C87.9047 12.5256 88.2809 12.4808 88.5692 12.451C88.8609 12.4179 89.073 12.3632 89.2056 12.2869C89.3415 12.2107 89.4094 12.0781 89.4094 11.8892V11.8494C89.4094 11.3589 89.2752 10.9777 89.0067 10.706C88.7416 10.4342 88.3389 10.2983 87.7987 10.2983C87.2385 10.2983 86.7994 10.4209 86.4812 10.6662C86.163 10.9115 85.9393 11.1733 85.81 11.4517L84.6964 11.054C84.8952 10.59 85.1604 10.2287 85.4918 9.97017C85.8266 9.70833 86.1912 9.52604 86.5856 9.4233C86.9833 9.31723 87.3744 9.2642 87.7589 9.2642C88.0041 9.2642 88.2859 9.29403 88.604 9.35369C88.9255 9.41004 89.2354 9.5277 89.5337 9.70668C89.8353 9.88565 90.0856 10.1558 90.2844 10.517C90.4833 10.8783 90.5827 11.3622 90.5827 11.9688V17H89.4094V15.9659H89.3498C89.2702 16.1316 89.1377 16.3089 88.9521 16.4979C88.7665 16.6868 88.5195 16.8475 88.2113 16.9801C87.9031 17.1127 87.5269 17.179 87.0827 17.179ZM87.2617 16.125C87.7257 16.125 88.1168 16.0339 88.435 15.8516C88.7565 15.6693 88.9985 15.4339 89.1609 15.1456C89.3266 14.8572 89.4094 14.554 89.4094 14.2358V13.1619C89.3597 13.2216 89.2504 13.2763 89.0813 13.326C88.9156 13.3724 88.7234 13.4138 88.5046 13.4503C88.2892 13.4834 88.0787 13.5133 87.8732 13.5398C87.671 13.563 87.507 13.5829 87.381 13.5994C87.0761 13.6392 86.7911 13.7038 86.5259 13.7933C86.2641 13.8795 86.052 14.0104 85.8896 14.1861C85.7305 14.3584 85.6509 14.5937 85.6509 14.892C85.6509 15.2997 85.8017 15.608 86.1033 15.8168C86.4083 16.0223 86.7944 16.125 87.2617 16.125ZM92.7243 17V9.36364H93.8578V10.517H93.9373C94.0765 10.1392 94.3284 9.83262 94.693 9.5973C95.0576 9.36198 95.4686 9.24432 95.926 9.24432C96.0121 9.24432 96.1199 9.24597 96.2491 9.24929C96.3784 9.2526 96.4761 9.25758 96.5424 9.2642V10.4574C96.5027 10.4474 96.4115 10.4325 96.269 10.4126C96.1298 10.3894 95.9823 10.3778 95.8265 10.3778C95.4553 10.3778 95.1239 10.4557 94.8322 10.6115C94.5439 10.764 94.3152 10.9761 94.1461 11.2479C93.9804 11.5163 93.8975 11.8229 93.8975 12.1676V17H92.7243ZM100.584 17.1591C99.948 17.1591 99.3862 16.9983 98.899 16.6768C98.4118 16.352 98.0306 15.8946 97.7555 15.3047C97.4804 14.7114 97.3429 14.0104 97.3429 13.2017C97.3429 12.3996 97.4804 11.7036 97.7555 11.1136C98.0306 10.5237 98.4134 10.0679 98.9039 9.74645C99.3945 9.42495 99.9612 9.2642 100.604 9.2642C101.101 9.2642 101.494 9.34706 101.782 9.51278C102.074 9.67519 102.296 9.8608 102.449 10.0696C102.604 10.2751 102.725 10.4441 102.812 10.5767H102.911V6.81818H104.084V17H102.951V15.8267H102.812C102.725 15.9659 102.603 16.1416 102.444 16.3537C102.285 16.5625 102.058 16.7498 101.763 16.9155C101.468 17.0779 101.075 17.1591 100.584 17.1591ZM100.743 16.1051C101.214 16.1051 101.612 15.9825 101.937 15.7372C102.261 15.4886 102.508 15.1456 102.677 14.7081C102.846 14.2673 102.931 13.7585 102.931 13.1818C102.931 12.6117 102.848 12.1129 102.682 11.6854C102.517 11.2545 102.271 10.9197 101.947 10.6811C101.622 10.4392 101.221 10.3182 100.743 10.3182C100.246 10.3182 99.832 10.4458 99.5005 10.701C99.1724 10.9529 98.9255 11.2959 98.7598 11.7301C98.5974 12.161 98.5162 12.6449 98.5162 13.1818C98.5162 13.7254 98.599 14.2192 98.7647 14.6634C98.9338 15.1042 99.1824 15.4555 99.5105 15.7173C99.8419 15.9759 100.253 16.1051 100.743 16.1051ZM109.936 7.91193V6.81818H117.572V7.91193H114.371V17H113.138V7.91193H109.936ZM121.41 17.1591C120.675 17.1591 120.04 16.9967 119.506 16.6719C118.976 16.3438 118.567 15.8864 118.278 15.2997C117.993 14.7098 117.851 14.0237 117.851 13.2415C117.851 12.4593 117.993 11.7699 118.278 11.1733C118.567 10.5734 118.968 10.1061 119.481 9.77131C119.998 9.43324 120.602 9.2642 121.291 9.2642C121.689 9.2642 122.081 9.33049 122.469 9.46307C122.857 9.59564 123.21 9.81108 123.528 10.1094C123.846 10.4044 124.1 10.7955 124.289 11.2827C124.478 11.7699 124.572 12.3698 124.572 13.0824V13.5795H118.686V12.5653H123.379C123.379 12.1345 123.293 11.75 123.121 11.4119C122.952 11.0739 122.71 10.8071 122.395 10.6115C122.083 10.416 121.715 10.3182 121.291 10.3182C120.824 10.3182 120.419 10.4342 120.078 10.6662C119.74 10.8949 119.48 11.1932 119.297 11.5611C119.115 11.929 119.024 12.3234 119.024 12.7443V13.4205C119.024 13.9972 119.123 14.486 119.322 14.8871C119.524 15.2848 119.805 15.5881 120.162 15.7969C120.52 16.0024 120.936 16.1051 121.41 16.1051C121.719 16.1051 121.997 16.062 122.246 15.9759C122.497 15.8864 122.715 15.7538 122.897 15.5781C123.079 15.3991 123.22 15.1771 123.319 14.9119L124.453 15.2301C124.334 15.6146 124.133 15.9527 123.851 16.2443C123.57 16.5327 123.222 16.758 122.807 16.9205C122.393 17.0795 121.927 17.1591 121.41 17.1591ZM128.604 17.179C128.12 17.179 127.681 17.0878 127.287 16.9055C126.892 16.7199 126.579 16.4531 126.347 16.1051C126.115 15.7538 125.999 15.3295 125.999 14.8324C125.999 14.3949 126.085 14.0402 126.258 13.7685C126.43 13.4934 126.66 13.2779 126.949 13.1222C127.237 12.9664 127.555 12.8504 127.903 12.7741C128.255 12.6946 128.608 12.6316 128.962 12.5852C129.426 12.5256 129.802 12.4808 130.091 12.451C130.382 12.4179 130.595 12.3632 130.727 12.2869C130.863 12.2107 130.931 12.0781 130.931 11.8892V11.8494C130.931 11.3589 130.797 10.9777 130.528 10.706C130.263 10.4342 129.86 10.2983 129.32 10.2983C128.76 10.2983 128.321 10.4209 128.003 10.6662C127.684 10.9115 127.461 11.1733 127.331 11.4517L126.218 11.054C126.417 10.59 126.682 10.2287 127.013 9.97017C127.348 9.70833 127.713 9.52604 128.107 9.4233C128.505 9.31723 128.896 9.2642 129.28 9.2642C129.526 9.2642 129.807 9.29403 130.126 9.35369C130.447 9.41004 130.757 9.5277 131.055 9.70668C131.357 9.88565 131.607 10.1558 131.806 10.517C132.005 10.8783 132.104 11.3622 132.104 11.9688V17H130.931V15.9659H130.871C130.792 16.1316 130.659 16.3089 130.474 16.4979C130.288 16.6868 130.041 16.8475 129.733 16.9801C129.425 17.1127 129.048 17.179 128.604 17.179ZM128.783 16.125C129.247 16.125 129.638 16.0339 129.956 15.8516C130.278 15.6693 130.52 15.4339 130.682 15.1456C130.848 14.8572 130.931 14.554 130.931 14.2358V13.1619C130.881 13.2216 130.772 13.2763 130.603 13.326C130.437 13.3724 130.245 13.4138 130.026 13.4503C129.811 13.4834 129.6 13.5133 129.395 13.5398C129.193 13.563 129.028 13.5829 128.903 13.5994C128.598 13.6392 128.313 13.7038 128.047 13.7933C127.786 13.8795 127.573 14.0104 127.411 14.1861C127.252 14.3584 127.172 14.5937 127.172 14.892C127.172 15.2997 127.323 15.608 127.625 15.8168C127.93 16.0223 128.316 16.125 128.783 16.125ZM137.348 17.1591C136.632 17.1591 136.016 16.9901 135.499 16.652C134.982 16.3139 134.584 15.8482 134.305 15.255C134.027 14.6617 133.888 13.9839 133.888 13.2216C133.888 12.446 134.03 11.7616 134.315 11.1683C134.604 10.5717 135.005 10.1061 135.518 9.77131C136.036 9.43324 136.639 9.2642 137.328 9.2642C137.865 9.2642 138.349 9.36364 138.78 9.5625C139.211 9.76136 139.564 10.0398 139.839 10.3977C140.114 10.7557 140.285 11.1733 140.351 11.6506H139.178C139.088 11.3026 138.889 10.9943 138.581 10.7259C138.276 10.4541 137.865 10.3182 137.348 10.3182C136.891 10.3182 136.49 10.4375 136.145 10.6761C135.804 10.9115 135.537 11.2446 135.344 11.6754C135.156 12.103 135.061 12.6051 135.061 13.1818C135.061 13.7718 135.154 14.2855 135.339 14.723C135.528 15.1605 135.794 15.5002 136.135 15.7422C136.48 15.9841 136.884 16.1051 137.348 16.1051C137.653 16.1051 137.93 16.0521 138.178 15.946C138.427 15.84 138.637 15.6875 138.81 15.4886C138.982 15.2898 139.105 15.0511 139.178 14.7727H140.351C140.285 15.2235 140.121 15.6295 139.859 15.9908C139.6 16.3487 139.257 16.6338 138.83 16.8459C138.405 17.0547 137.911 17.1591 137.348 17.1591ZM143.239 12.4062V17H142.066V6.81818H143.239V10.5568H143.339C143.518 10.1624 143.786 9.84919 144.144 9.61719C144.505 9.38187 144.986 9.2642 145.586 9.2642C146.106 9.2642 146.562 9.36861 146.953 9.57741C147.344 9.78291 147.647 10.0994 147.863 10.527C148.082 10.9512 148.191 11.4915 148.191 12.1477V17H147.018V12.2273C147.018 11.6207 146.86 11.1518 146.545 10.8203C146.234 10.4856 145.801 10.3182 145.248 10.3182C144.863 10.3182 144.519 10.3994 144.214 10.5618C143.912 10.7242 143.674 10.9612 143.498 11.2727C143.326 11.5843 143.239 11.9621 143.239 12.4062ZM153.539 17.1591C152.803 17.1591 152.169 16.9967 151.635 16.6719C151.105 16.3438 150.695 15.8864 150.407 15.2997C150.122 14.7098 149.98 14.0237 149.98 13.2415C149.98 12.4593 150.122 11.7699 150.407 11.1733C150.695 10.5734 151.097 10.1061 151.61 9.77131C152.127 9.43324 152.731 9.2642 153.42 9.2642C153.818 9.2642 154.21 9.33049 154.598 9.46307C154.986 9.59564 155.339 9.81108 155.657 10.1094C155.975 10.4044 156.229 10.7955 156.418 11.2827C156.607 11.7699 156.701 12.3698 156.701 13.0824V13.5795H150.815V12.5653H155.508C155.508 12.1345 155.422 11.75 155.249 11.4119C155.08 11.0739 154.838 10.8071 154.524 10.6115C154.212 10.416 153.844 10.3182 153.42 10.3182C152.953 10.3182 152.548 10.4342 152.207 10.6662C151.869 10.8949 151.609 11.1932 151.426 11.5611C151.244 11.929 151.153 12.3234 151.153 12.7443V13.4205C151.153 13.9972 151.252 14.486 151.451 14.8871C151.653 15.2848 151.933 15.5881 152.291 15.7969C152.649 16.0024 153.065 16.1051 153.539 16.1051C153.847 16.1051 154.126 16.062 154.374 15.9759C154.626 15.8864 154.843 15.7538 155.026 15.5781C155.208 15.3991 155.349 15.1771 155.448 14.9119L156.582 15.2301C156.463 15.6146 156.262 15.9527 155.98 16.2443C155.699 16.5327 155.351 16.758 154.936 16.9205C154.522 17.0795 154.056 17.1591 153.539 17.1591ZM158.486 17V9.36364H159.619V10.517H159.699C159.838 10.1392 160.09 9.83262 160.455 9.5973C160.819 9.36198 161.23 9.24432 161.688 9.24432C161.774 9.24432 161.882 9.24597 162.011 9.24929C162.14 9.2526 162.238 9.25758 162.304 9.2642V10.4574C162.264 10.4474 162.173 10.4325 162.031 10.4126C161.892 10.3894 161.744 10.3778 161.588 10.3778C161.217 10.3778 160.886 10.4557 160.594 10.6115C160.306 10.764 160.077 10.9761 159.908 11.2479C159.742 11.5163 159.659 11.8229 159.659 12.1676V17H158.486ZM163.675 17.0795C163.43 17.0795 163.219 16.9917 163.044 16.8161C162.868 16.6404 162.78 16.4299 162.78 16.1847C162.78 15.9394 162.868 15.7289 163.044 15.5533C163.219 15.3776 163.43 15.2898 163.675 15.2898C163.92 15.2898 164.131 15.3776 164.306 15.5533C164.482 15.7289 164.57 15.9394 164.57 16.1847C164.57 16.3471 164.529 16.4962 164.446 16.6321C164.366 16.768 164.258 16.8774 164.123 16.9602C163.99 17.0398 163.841 17.0795 163.675 17.0795ZM171.19 17H169.897L173.636 6.81818H174.908L178.647 17H177.354L174.312 8.42898H174.232L171.19 17ZM171.667 13.0227H176.877V14.1165H171.667V13.0227ZM181.247 6.81818V17H180.074V6.81818H181.247ZM184.569 6.81818V17H183.396V6.81818H184.569ZM190.656 17V9.36364H191.789V10.517H191.869C192.008 10.1392 192.26 9.83262 192.625 9.5973C192.989 9.36198 193.4 9.24432 193.858 9.24432C193.944 9.24432 194.051 9.24597 194.181 9.24929C194.31 9.2526 194.408 9.25758 194.474 9.2642V10.4574C194.434 10.4474 194.343 10.4325 194.201 10.4126C194.061 10.3894 193.914 10.3778 193.758 10.3778C193.387 10.3778 193.056 10.4557 192.764 10.6115C192.475 10.764 192.247 10.9761 192.078 11.2479C191.912 11.5163 191.829 11.8229 191.829 12.1676V17H190.656ZM195.865 17V9.36364H197.038V17H195.865ZM196.461 8.09091C196.233 8.09091 196.036 8.01302 195.87 7.85724C195.707 7.70147 195.626 7.5142 195.626 7.29545C195.626 7.0767 195.707 6.88944 195.87 6.73366C196.036 6.57789 196.233 6.5 196.461 6.5C196.69 6.5 196.886 6.57789 197.048 6.73366C197.214 6.88944 197.297 7.0767 197.297 7.29545C197.297 7.5142 197.214 7.70147 197.048 7.85724C196.886 8.01302 196.69 8.09091 196.461 8.09091ZM202.27 20.0227C201.703 20.0227 201.216 19.9498 200.808 19.804C200.4 19.6615 200.06 19.4725 199.789 19.2372C199.52 19.0052 199.306 18.7566 199.147 18.4915L200.082 17.8352C200.188 17.9744 200.322 18.1335 200.485 18.3125C200.647 18.4948 200.869 18.6522 201.151 18.7848C201.436 18.9207 201.809 18.9886 202.27 18.9886C202.886 18.9886 203.395 18.8395 203.796 18.5412C204.197 18.2429 204.397 17.7756 204.397 17.1392V15.5881H204.298C204.212 15.7273 204.089 15.8996 203.93 16.1051C203.774 16.3073 203.549 16.4879 203.254 16.647C202.962 16.8028 202.568 16.8807 202.071 16.8807C201.454 16.8807 200.901 16.7348 200.41 16.4432C199.923 16.1515 199.537 15.7273 199.252 15.1705C198.97 14.6136 198.829 13.9375 198.829 13.142C198.829 12.3598 198.967 11.6787 199.242 11.0987C199.517 10.5154 199.9 10.0646 200.39 9.74645C200.881 9.42495 201.448 9.2642 202.091 9.2642C202.588 9.2642 202.982 9.34706 203.274 9.51278C203.569 9.67519 203.794 9.8608 203.95 10.0696C204.109 10.2751 204.232 10.4441 204.318 10.5767H204.437V9.36364H205.571V17.2188C205.571 17.875 205.422 18.4086 205.123 18.8196C204.828 19.2339 204.431 19.5372 203.93 19.7294C203.433 19.925 202.879 20.0227 202.27 20.0227ZM202.23 15.8267C202.7 15.8267 203.098 15.719 203.423 15.5036C203.748 15.2881 203.995 14.9782 204.164 14.5739C204.333 14.1695 204.417 13.6856 204.417 13.1222C204.417 12.572 204.334 12.0864 204.169 11.6655C204.003 11.2446 203.758 10.9148 203.433 10.6761C203.108 10.4375 202.707 10.3182 202.23 10.3182C201.733 10.3182 201.318 10.4441 200.987 10.696C200.659 10.9479 200.412 11.286 200.246 11.7102C200.084 12.1345 200.002 12.6051 200.002 13.1222C200.002 13.6525 200.085 14.1214 200.251 14.5291C200.42 14.9335 200.669 15.2517 200.997 15.4837C201.328 15.7124 201.739 15.8267 202.23 15.8267ZM208.892 12.4062V17H207.718V6.81818H208.892V10.5568H208.991C209.17 10.1624 209.439 9.84919 209.797 9.61719C210.158 9.38187 210.638 9.2642 211.238 9.2642C211.759 9.2642 212.214 9.36861 212.605 9.57741C212.997 9.78291 213.3 10.0994 213.515 10.527C213.734 10.9512 213.843 11.4915 213.843 12.1477V17H212.67V12.2273C212.67 11.6207 212.513 11.1518 212.198 10.8203C211.886 10.4856 211.454 10.3182 210.9 10.3182C210.516 10.3182 210.171 10.3994 209.866 10.5618C209.565 10.7242 209.326 10.9612 209.15 11.2727C208.978 11.5843 208.892 11.9621 208.892 12.4062ZM219.311 9.36364V10.358H215.354V9.36364H219.311ZM216.507 7.53409H217.68V14.8125C217.68 15.1439 217.728 15.3925 217.824 15.5582C217.924 15.7206 218.05 15.83 218.202 15.8864C218.358 15.9394 218.522 15.9659 218.694 15.9659C218.824 15.9659 218.93 15.9593 219.013 15.946C219.095 15.9295 219.162 15.9162 219.211 15.9062L219.45 16.9602C219.371 16.9901 219.26 17.0199 219.117 17.0497C218.974 17.0829 218.794 17.0994 218.575 17.0994C218.244 17.0994 217.919 17.0282 217.601 16.8857C217.286 16.7431 217.024 16.526 216.815 16.2344C216.61 15.9427 216.507 15.5748 216.507 15.1307V7.53409ZM226.348 11.0739L225.294 11.3722C225.228 11.1965 225.13 11.0258 225.001 10.8601C224.875 10.6911 224.703 10.5518 224.484 10.4425C224.265 10.3331 223.985 10.2784 223.644 10.2784C223.176 10.2784 222.787 10.3861 222.475 10.6016C222.167 10.8137 222.013 11.0838 222.013 11.4119C222.013 11.7036 222.119 11.9339 222.331 12.103C222.543 12.272 222.875 12.4129 223.325 12.5256L224.459 12.804C225.142 12.9697 225.651 13.2232 225.985 13.5646C226.32 13.9027 226.487 14.3385 226.487 14.8722C226.487 15.3097 226.361 15.7008 226.11 16.0455C225.861 16.3902 225.513 16.6619 225.066 16.8608C224.618 17.0597 224.098 17.1591 223.504 17.1591C222.726 17.1591 222.081 16.9901 221.57 16.652C221.06 16.3139 220.737 15.8201 220.601 15.1705L221.715 14.892C221.821 15.303 222.021 15.6113 222.316 15.8168C222.615 16.0223 223.004 16.125 223.485 16.125C224.031 16.125 224.466 16.009 224.787 15.777C225.112 15.5417 225.274 15.2599 225.274 14.9318C225.274 14.6667 225.182 14.4446 224.996 14.2656C224.81 14.0833 224.525 13.9474 224.141 13.858L222.868 13.5597C222.169 13.3939 221.655 13.1371 221.327 12.7891C221.002 12.4377 220.84 11.9986 220.84 11.4716C220.84 11.0407 220.961 10.6596 221.203 10.3281C221.448 9.99669 221.781 9.73651 222.202 9.54758C222.626 9.35866 223.107 9.2642 223.644 9.2642C224.399 9.2642 224.993 9.42992 225.423 9.76136C225.858 10.0928 226.166 10.5303 226.348 11.0739ZM232.191 17V9.36364H233.325V10.517H233.404C233.543 10.1392 233.795 9.83262 234.16 9.5973C234.524 9.36198 234.935 9.24432 235.393 9.24432C235.479 9.24432 235.587 9.24597 235.716 9.24929C235.845 9.2526 235.943 9.25758 236.009 9.2642V10.4574C235.969 10.4474 235.878 10.4325 235.736 10.4126C235.597 10.3894 235.449 10.3778 235.293 10.3778C234.922 10.3778 234.591 10.4557 234.299 10.6115C234.011 10.764 233.782 10.9761 233.613 11.2479C233.447 11.5163 233.364 11.8229 233.364 12.1676V17H232.191ZM240.369 17.1591C239.634 17.1591 238.999 16.9967 238.465 16.6719C237.935 16.3438 237.526 15.8864 237.237 15.2997C236.952 14.7098 236.81 14.0237 236.81 13.2415C236.81 12.4593 236.952 11.7699 237.237 11.1733C237.526 10.5734 237.927 10.1061 238.44 9.77131C238.957 9.43324 239.561 9.2642 240.25 9.2642C240.648 9.2642 241.04 9.33049 241.428 9.46307C241.816 9.59564 242.169 9.81108 242.487 10.1094C242.805 10.4044 243.059 10.7955 243.248 11.2827C243.437 11.7699 243.531 12.3698 243.531 13.0824V13.5795H237.645V12.5653H242.338C242.338 12.1345 242.252 11.75 242.08 11.4119C241.911 11.0739 241.669 10.8071 241.354 10.6115C241.042 10.416 240.674 10.3182 240.25 10.3182C239.783 10.3182 239.378 10.4342 239.037 10.6662C238.699 10.8949 238.439 11.1932 238.256 11.5611C238.074 11.929 237.983 12.3234 237.983 12.7443V13.4205C237.983 13.9972 238.082 14.486 238.281 14.8871C238.483 15.2848 238.763 15.5881 239.121 15.7969C239.479 16.0024 239.895 16.1051 240.369 16.1051C240.678 16.1051 240.956 16.062 241.205 15.9759C241.456 15.8864 241.674 15.7538 241.856 15.5781C242.038 15.3991 242.179 15.1771 242.278 14.9119L243.412 15.2301C243.293 15.6146 243.092 15.9527 242.81 16.2443C242.529 16.5327 242.181 16.758 241.766 16.9205C241.352 17.0795 240.886 17.1591 240.369 17.1591ZM250.725 11.0739L249.671 11.3722C249.605 11.1965 249.507 11.0258 249.378 10.8601C249.252 10.6911 249.08 10.5518 248.861 10.4425C248.642 10.3331 248.362 10.2784 248.021 10.2784C247.553 10.2784 247.164 10.3861 246.852 10.6016C246.544 10.8137 246.39 11.0838 246.39 11.4119C246.39 11.7036 246.496 11.9339 246.708 12.103C246.92 12.272 247.252 12.4129 247.702 12.5256L248.836 12.804C249.519 12.9697 250.027 13.2232 250.362 13.5646C250.697 13.9027 250.864 14.3385 250.864 14.8722C250.864 15.3097 250.738 15.7008 250.487 16.0455C250.238 16.3902 249.89 16.6619 249.442 16.8608C248.995 17.0597 248.475 17.1591 247.881 17.1591C247.103 17.1591 246.458 16.9901 245.947 16.652C245.437 16.3139 245.114 15.8201 244.978 15.1705L246.092 14.892C246.198 15.303 246.398 15.6113 246.693 15.8168C246.991 16.0223 247.381 16.125 247.862 16.125C248.408 16.125 248.843 16.009 249.164 15.777C249.489 15.5417 249.651 15.2599 249.651 14.9318C249.651 14.6667 249.558 14.4446 249.373 14.2656C249.187 14.0833 248.902 13.9474 248.518 13.858L247.245 13.5597C246.546 13.3939 246.032 13.1371 245.704 12.7891C245.379 12.4377 245.217 11.9986 245.217 11.4716C245.217 11.0407 245.338 10.6596 245.58 10.3281C245.825 9.99669 246.158 9.73651 246.579 9.54758C247.003 9.35866 247.484 9.2642 248.021 9.2642C248.776 9.2642 249.37 9.42992 249.8 9.76136C250.235 10.0928 250.543 10.5303 250.725 11.0739ZM255.832 17.1591C255.096 17.1591 254.462 16.9967 253.928 16.6719C253.398 16.3438 252.988 15.8864 252.7 15.2997C252.415 14.7098 252.273 14.0237 252.273 13.2415C252.273 12.4593 252.415 11.7699 252.7 11.1733C252.988 10.5734 253.39 10.1061 253.903 9.77131C254.42 9.43324 255.023 9.2642 255.713 9.2642C256.111 9.2642 256.503 9.33049 256.891 9.46307C257.279 9.59564 257.632 9.81108 257.95 10.1094C258.268 10.4044 258.522 10.7955 258.711 11.2827C258.9 11.7699 258.994 12.3698 258.994 13.0824V13.5795H253.108V12.5653H257.801C257.801 12.1345 257.715 11.75 257.542 11.4119C257.373 11.0739 257.131 10.8071 256.817 10.6115C256.505 10.416 256.137 10.3182 255.713 10.3182C255.246 10.3182 254.841 10.4342 254.5 10.6662C254.162 10.8949 253.902 11.1932 253.719 11.5611C253.537 11.929 253.446 12.3234 253.446 12.7443V13.4205C253.446 13.9972 253.545 14.486 253.744 14.8871C253.946 15.2848 254.226 15.5881 254.584 15.7969C254.942 16.0024 255.358 16.1051 255.832 16.1051C256.14 16.1051 256.419 16.062 256.667 15.9759C256.919 15.8864 257.136 15.7538 257.319 15.5781C257.501 15.3991 257.642 15.1771 257.741 14.9119L258.875 15.2301C258.756 15.6146 258.555 15.9527 258.273 16.2443C257.992 16.5327 257.644 16.758 257.229 16.9205C256.815 17.0795 256.349 17.1591 255.832 17.1591ZM260.779 17V9.36364H261.912V10.517H261.992C262.131 10.1392 262.383 9.83262 262.748 9.5973C263.112 9.36198 263.523 9.24432 263.981 9.24432C264.067 9.24432 264.175 9.24597 264.304 9.24929C264.433 9.2526 264.531 9.25758 264.597 9.2642V10.4574C264.557 10.4474 264.466 10.4325 264.324 10.4126C264.184 10.3894 264.037 10.3778 263.881 10.3778C263.51 10.3778 263.179 10.4557 262.887 10.6115C262.599 10.764 262.37 10.9761 262.201 11.2479C262.035 11.5163 261.952 11.8229 261.952 12.1676V17H260.779ZM272.465 9.36364L269.641 17H268.448L265.624 9.36364H266.896L269.004 15.4489H269.084L271.192 9.36364H272.465ZM276.942 17.1591C276.206 17.1591 275.571 16.9967 275.037 16.6719C274.507 16.3438 274.098 15.8864 273.809 15.2997C273.524 14.7098 273.382 14.0237 273.382 13.2415C273.382 12.4593 273.524 11.7699 273.809 11.1733C274.098 10.5734 274.499 10.1061 275.013 9.77131C275.53 9.43324 276.133 9.2642 276.822 9.2642C277.22 9.2642 277.613 9.33049 278.001 9.46307C278.388 9.59564 278.741 9.81108 279.059 10.1094C279.378 10.4044 279.631 10.7955 279.82 11.2827C280.009 11.7699 280.104 12.3698 280.104 13.0824V13.5795H274.217V12.5653H278.91C278.91 12.1345 278.824 11.75 278.652 11.4119C278.483 11.0739 278.241 10.8071 277.926 10.6115C277.614 10.416 277.247 10.3182 276.822 10.3182C276.355 10.3182 275.951 10.4342 275.609 10.6662C275.271 10.8949 275.011 11.1932 274.829 11.5611C274.646 11.929 274.555 12.3234 274.555 12.7443V13.4205C274.555 13.9972 274.655 14.486 274.854 14.8871C275.056 15.2848 275.336 15.5881 275.694 15.7969C276.052 16.0024 276.468 16.1051 276.942 16.1051C277.25 16.1051 277.528 16.062 277.777 15.9759C278.029 15.8864 278.246 15.7538 278.428 15.5781C278.61 15.3991 278.751 15.1771 278.851 14.9119L279.984 15.2301C279.865 15.6146 279.664 15.9527 279.383 16.2443C279.101 16.5327 278.753 16.758 278.339 16.9205C277.924 17.0795 277.459 17.1591 276.942 17.1591ZM284.772 17.1591C284.135 17.1591 283.574 16.9983 283.086 16.6768C282.599 16.352 282.218 15.8946 281.943 15.3047C281.668 14.7114 281.53 14.0104 281.53 13.2017C281.53 12.3996 281.668 11.7036 281.943 11.1136C282.218 10.5237 282.601 10.0679 283.091 9.74645C283.582 9.42495 284.149 9.2642 284.792 9.2642C285.289 9.2642 285.682 9.34706 285.97 9.51278C286.262 9.67519 286.484 9.8608 286.636 10.0696C286.792 10.2751 286.913 10.4441 286.999 10.5767H287.099V6.81818H288.272V17H287.138V15.8267H286.999C286.913 15.9659 286.79 16.1416 286.631 16.3537C286.472 16.5625 286.245 16.7498 285.95 16.9155C285.655 17.0779 285.262 17.1591 284.772 17.1591ZM284.931 16.1051C285.402 16.1051 285.799 15.9825 286.124 15.7372C286.449 15.4886 286.696 15.1456 286.865 14.7081C287.034 14.2673 287.118 13.7585 287.118 13.1818C287.118 12.6117 287.036 12.1129 286.87 11.6854C286.704 11.2545 286.459 10.9197 286.134 10.6811C285.809 10.4392 285.408 10.3182 284.931 10.3182C284.434 10.3182 284.019 10.4458 283.688 10.701C283.36 10.9529 283.113 11.2959 282.947 11.7301C282.785 12.161 282.704 12.6449 282.704 13.1818C282.704 13.7254 282.787 14.2192 282.952 14.6634C283.121 15.1042 283.37 15.4555 283.698 15.7173C284.029 15.9759 284.44 16.1051 284.931 16.1051Z" fill="white"/>
<g clip-path="url(#clip0_16_115)">
<path opacity="0.1" fill-rule="evenodd" clip-rule="evenodd" d="M1173.5 12C1173.5 5.37258 1178.87 0 1185.5 0C1192.13 0 1197.5 5.37258 1197.5 12C1197.5 18.6274 1192.13 24 1185.5 24C1178.87 24 1173.5 18.6274 1173.5 12Z" fill="#F2F2F2"/>
<path fill-rule="evenodd" clip-rule="evenodd" d="M1185.5 5.6001C1183.76 5.6001 1183.54 5.6077 1182.86 5.63876C1182.18 5.66997 1181.72 5.77783 1181.31 5.9361C1180.89 6.09957 1180.53 6.31824 1180.17 6.67411C1179.82 7.02985 1179.6 7.38692 1179.44 7.80772C1179.28 8.21479 1179.17 8.68 1179.14 9.36107C1179.11 10.0437 1179.1 10.262 1179.1 12.0002C1179.1 13.7383 1179.11 13.9558 1179.14 14.6385C1179.17 15.3198 1179.28 15.7849 1179.44 16.1918C1179.6 16.6127 1179.82 16.9698 1180.17 17.3256C1180.53 17.6816 1180.89 17.9008 1181.31 18.0642C1181.71 18.2225 1182.18 18.3304 1182.86 18.3616C1183.54 18.3926 1183.76 18.4002 1185.5 18.4002C1187.24 18.4002 1187.46 18.3926 1188.14 18.3616C1188.82 18.3304 1189.29 18.2225 1189.69 18.0642C1190.11 17.9008 1190.47 17.6816 1190.83 17.3256C1191.18 16.9698 1191.4 16.6127 1191.56 16.1919C1191.72 15.7849 1191.83 15.3197 1191.86 14.6386C1191.89 13.9559 1191.9 13.7383 1191.9 12.0002C1191.9 10.262 1191.89 10.0439 1191.86 9.3612C1191.83 8.67986 1191.72 8.21479 1191.56 7.80785C1191.4 7.38692 1191.18 7.02985 1190.83 6.67411C1190.47 6.31811 1190.11 6.09944 1189.69 5.9361C1189.28 5.77783 1188.82 5.66997 1188.14 5.63876C1187.45 5.6077 1187.24 5.6001 1185.5 5.6001H1185.5ZM1184.93 6.75343C1185.1 6.75316 1185.29 6.75343 1185.5 6.75343C1187.21 6.75343 1187.41 6.75956 1188.09 6.79023C1188.71 6.81876 1189.05 6.92303 1189.27 7.01063C1189.57 7.12663 1189.79 7.2653 1190.01 7.4893C1190.23 7.7133 1190.37 7.92664 1190.49 8.22531C1190.58 8.45064 1190.68 8.78931 1190.71 9.41332C1190.74 10.088 1190.75 10.2907 1190.75 11.9987C1190.75 13.7067 1190.74 13.9094 1190.71 14.584C1190.68 15.208 1190.58 15.5467 1190.49 15.7721C1190.37 16.0707 1190.23 16.2834 1190.01 16.5073C1189.79 16.7313 1189.57 16.8699 1189.27 16.9859C1189.05 17.0739 1188.71 17.1779 1188.09 17.2065C1187.41 17.2371 1187.21 17.2438 1185.5 17.2438C1183.79 17.2438 1183.59 17.2371 1182.91 17.2065C1182.29 17.1777 1181.95 17.0734 1181.73 16.9858C1181.43 16.8698 1181.21 16.7311 1180.99 16.5071C1180.77 16.2831 1180.63 16.0703 1180.51 15.7715C1180.42 15.5462 1180.32 15.2075 1180.29 14.5835C1180.26 13.9088 1180.25 13.7062 1180.25 11.9971C1180.25 10.288 1180.26 10.0864 1180.29 9.41172C1180.32 8.78771 1180.42 8.44904 1180.51 8.22344C1180.63 7.92477 1180.77 7.71143 1180.99 7.48743C1181.21 7.26343 1181.43 7.12476 1181.73 7.00849C1181.95 6.92049 1182.29 6.81649 1182.91 6.78783C1183.5 6.76116 1183.73 6.75316 1184.93 6.75182V6.75343ZM1188.92 7.81611C1188.49 7.81611 1188.15 8.15971 1188.15 8.58385C1188.15 9.00785 1188.49 9.35185 1188.92 9.35185C1189.34 9.35185 1189.68 9.00785 1189.68 8.58385C1189.68 8.15984 1189.34 7.81611 1188.92 7.81611ZM1185.5 8.71345C1183.69 8.71345 1182.21 10.1851 1182.21 12.0001C1182.21 13.8152 1183.69 15.2862 1185.5 15.2862C1187.32 15.2862 1188.79 13.8152 1188.79 12.0001C1188.79 10.1851 1187.32 8.71345 1185.5 8.71345ZM1185.5 9.86679C1186.68 9.86679 1187.63 10.8219 1187.63 12.0001C1187.63 13.1783 1186.68 14.1335 1185.5 14.1335C1184.32 14.1335 1183.37 13.1783 1183.37 12.0001C1183.37 10.8219 1184.32 9.86679 1185.5 9.86679Z" fill="#F2F2F2"/>
<path opacity="0.1" fill-rule="evenodd" clip-rule="evenodd" d="M1213.5 12C1213.5 5.37258 1218.87 0 1225.5 0C1232.13 0 1237.5 5.37258 1237.5 12C1237.5 18.6274 1232.13 24 1225.5 24C1218.87 24 1213.5 18.6274 1213.5 12Z" fill="#F2F2F2"/>
<path fill-rule="evenodd" clip-rule="evenodd" d="M1225.14 9.7537L1225.17 10.1689L1224.75 10.1181C1223.22 9.92318 1221.88 9.26221 1220.75 8.15211L1220.2 7.6013L1220.05 8.00805C1219.75 8.91477 1219.94 9.87234 1220.57 10.5164C1220.91 10.8723 1220.83 10.9231 1220.26 10.7113C1220.05 10.6435 1219.88 10.5926 1219.86 10.6181C1219.8 10.6774 1220 11.4485 1220.16 11.7536C1220.38 12.1773 1220.83 12.5925 1221.31 12.8382L1221.72 13.0331L1221.24 13.0416C1220.77 13.0416 1220.75 13.0501 1220.8 13.2281C1220.97 13.7789 1221.63 14.3636 1222.37 14.6178L1222.89 14.7957L1222.44 15.0669C1221.77 15.4567 1220.98 15.677 1220.19 15.694C1219.81 15.7025 1219.5 15.7364 1219.5 15.7618C1219.5 15.8465 1220.52 16.3211 1221.12 16.5075C1222.91 17.0583 1225.03 16.821 1226.63 15.8804C1227.76 15.211 1228.89 13.8806 1229.42 12.5925C1229.71 11.9061 1229.99 10.6519 1229.99 10.0503C1229.99 9.66049 1230.02 9.60964 1230.49 9.14357C1230.76 8.8724 1231.02 8.57581 1231.07 8.49107C1231.16 8.33007 1231.15 8.33007 1230.72 8.47412C1230.01 8.72834 1229.91 8.69445 1230.26 8.31312C1230.52 8.04195 1230.83 7.55046 1230.83 7.4064C1230.83 7.38098 1230.71 7.42335 1230.56 7.49961C1230.41 7.58435 1230.08 7.71146 1229.82 7.78773L1229.37 7.93179L1228.96 7.65214C1228.73 7.49961 1228.41 7.33013 1228.25 7.27929C1227.82 7.16065 1227.16 7.1776 1226.78 7.31318C1225.73 7.69451 1225.07 8.6775 1225.14 9.7537Z" fill="#F2F2F2"/>
<path opacity="0.1" fill-rule="evenodd" clip-rule="evenodd" d="M1253.5 12C1253.5 5.37258 1258.87 0 1265.5 0C1272.13 0 1277.5 5.37258 1277.5 12C1277.5 18.6274 1272.13 24 1265.5 24C1258.87 24 1253.5 18.6274 1253.5 12Z" fill="#F2F2F2"/>
<path fill-rule="evenodd" clip-rule="evenodd" d="M1270.5 7.87476C1271.05 8.02589 1271.49 8.4712 1271.63 9.03671C1271.9 10.0616 1271.9 12.2001 1271.9 12.2001C1271.9 12.2001 1271.9 14.3385 1271.63 15.3635C1271.49 15.929 1271.05 16.3743 1270.5 16.5255C1269.5 16.8001 1265.5 16.8001 1265.5 16.8001C1265.5 16.8001 1261.5 16.8001 1260.5 16.5255C1259.95 16.3743 1259.51 15.929 1259.37 15.3635C1259.1 14.3385 1259.1 12.2001 1259.1 12.2001C1259.1 12.2001 1259.1 10.0616 1259.37 9.03671C1259.51 8.4712 1259.95 8.02589 1260.5 7.87476C1261.5 7.6001 1265.5 7.6001 1265.5 7.6001C1265.5 7.6001 1269.5 7.6001 1270.5 7.87476ZM1264.3 10.4001V14.4001L1267.5 12.4001L1264.3 10.4001Z" fill="#F2F2F2"/>
</g>
<defs>
<clipPath id="clip0_16_115">
<rect width="104" height="24" fill="white" transform="translate(1173.5)"/>
</clipPath>
</defs>
</svg>
