<svg width="506" height="206" viewBox="0 0 506 206" fill="none" xmlns="http://www.w3.org/2000/svg">
<path d="M26.4645 15.9134C26.294 14.1946 25.5625 12.8594 24.2699 11.9077C22.9773 10.956 21.223 10.4801 19.0071 10.4801C17.5014 10.4801 16.2301 10.6932 15.1932 11.1193C14.1563 11.5312 13.3608 12.1065 12.8068 12.8452C12.267 13.5838 11.9972 14.4219 11.9972 15.3594C11.9688 16.1406 12.1321 16.8224 12.4872 17.4048C12.8565 17.9872 13.3608 18.4915 14 18.9176C14.6392 19.3295 15.3778 19.6918 16.2159 20.0043C17.054 20.3026 17.9489 20.5582 18.9006 20.7713L22.821 21.7088C24.7244 22.1349 26.4716 22.7031 28.0625 23.4134C29.6534 24.1236 31.0313 24.9972 32.196 26.0341C33.3608 27.071 34.2628 28.2926 34.902 29.6989C35.5554 31.1051 35.8892 32.7173 35.9034 34.5355C35.8892 37.206 35.2074 39.5213 33.858 41.4815C32.5227 43.4276 30.5909 44.9403 28.0625 46.0199C25.5483 47.0852 22.5156 47.6179 18.9645 47.6179C15.4418 47.6179 12.3736 47.0781 9.75994 45.9986C7.16051 44.919 5.12926 43.321 3.66619 41.2045C2.21733 39.0739 1.45739 36.4389 1.38636 33.2997H10.3139C10.4134 34.7628 10.8324 35.9844 11.571 36.9645C12.3239 37.9304 13.3253 38.6619 14.5753 39.1591C15.8395 39.642 17.267 39.8835 18.858 39.8835C20.4205 39.8835 21.777 39.6562 22.9276 39.2017C24.0923 38.7472 24.9943 38.1151 25.6335 37.3054C26.2727 36.4957 26.5923 35.5653 26.5923 34.5142C26.5923 33.5341 26.3011 32.7102 25.7188 32.0426C25.1506 31.375 24.3125 30.8068 23.2045 30.3381C22.1108 29.8693 20.7685 29.4432 19.1776 29.0597L14.4261 27.8665C10.7472 26.9716 7.84233 25.5724 5.71165 23.669C3.58097 21.7656 2.52273 19.2017 2.53693 15.9773C2.52273 13.3352 3.22585 11.027 4.64631 9.05256C6.08097 7.07812 8.0483 5.53693 10.5483 4.42898C13.0483 3.32102 15.8892 2.76704 19.071 2.76704C22.3097 2.76704 25.1364 3.32102 27.5511 4.42898C29.9801 5.53693 31.8693 7.07812 33.2188 9.05256C34.5682 11.027 35.2642 13.3139 35.3068 15.9134H26.4645ZM56.8533 47.6392C53.4869 47.6392 50.5891 46.9574 48.1602 45.5938C45.7454 44.2159 43.8846 42.2699 42.5778 39.7557C41.271 37.2273 40.6175 34.2372 40.6175 30.7855C40.6175 27.419 41.271 24.4645 42.5778 21.9219C43.8846 19.3793 45.7241 17.3977 48.0962 15.9773C50.4826 14.5568 53.2809 13.8466 56.4911 13.8466C58.6502 13.8466 60.6602 14.1946 62.521 14.8906C64.396 15.5724 66.0295 16.6023 67.4215 17.9801C68.8278 19.358 69.9215 21.0909 70.7028 23.179C71.484 25.2528 71.8746 27.6818 71.8746 30.4659V32.9588H44.2397V27.3338H63.3306C63.3306 26.027 63.0465 24.8693 62.4783 23.8608C61.9102 22.8523 61.1218 22.0639 60.1133 21.4957C59.119 20.9134 57.9613 20.6222 56.6403 20.6222C55.2624 20.6222 54.0408 20.9418 52.9755 21.581C51.9244 22.206 51.1005 23.0511 50.5039 24.1165C49.9073 25.1676 49.6019 26.3395 49.5877 27.6321V32.9801C49.5877 34.5994 49.886 35.9986 50.4826 37.1776C51.0934 38.3565 51.9528 39.2656 53.0607 39.9048C54.1687 40.544 55.4826 40.8636 57.0025 40.8636C58.011 40.8636 58.9343 40.7216 59.7724 40.4375C60.6104 40.1534 61.3278 39.7273 61.9244 39.1591C62.521 38.5909 62.9755 37.8949 63.288 37.071L71.6829 37.625C71.2567 39.642 70.3832 41.4034 69.0621 42.9091C67.7553 44.4006 66.065 45.5653 63.9911 46.4034C61.9315 47.2273 59.5522 47.6392 56.8533 47.6392ZM86.8746 28.0795V47H77.7979V14.2727H86.4485V20.0469H86.832C87.5565 18.1435 88.771 16.6378 90.4755 15.5298C92.18 14.4077 94.2468 13.8466 96.6758 13.8466C98.9485 13.8466 100.93 14.3437 102.62 15.3381C104.311 16.3324 105.625 17.7528 106.562 19.5994C107.5 21.4318 107.968 23.6193 107.968 26.1619V47H98.8917V27.7812C98.9059 25.7784 98.3945 24.2159 97.3576 23.0938C96.3207 21.9574 94.8931 21.3892 93.0749 21.3892C91.8533 21.3892 90.7738 21.652 89.8363 22.1776C88.913 22.7031 88.1886 23.4702 87.663 24.4787C87.1516 25.473 86.8888 26.6733 86.8746 28.0795ZM127.182 47.5327C124.696 47.5327 122.445 46.8935 120.428 45.6151C118.425 44.3224 116.834 42.4261 115.655 39.9261C114.49 37.4119 113.908 34.3295 113.908 30.679C113.908 26.929 114.511 23.8111 115.719 21.3253C116.926 18.8253 118.531 16.9574 120.534 15.7216C122.551 14.4716 124.76 13.8466 127.161 13.8466C128.993 13.8466 130.52 14.1591 131.741 14.7841C132.977 15.3949 133.972 16.1619 134.724 17.0852C135.491 17.9943 136.074 18.8892 136.472 19.7699H136.749V3.36364H145.804V47H136.855V41.7585H136.472C136.045 42.6676 135.442 43.5696 134.661 44.4645C133.893 45.3452 132.892 46.0767 131.656 46.6591C130.435 47.2415 128.943 47.5327 127.182 47.5327ZM130.058 40.3097C131.521 40.3097 132.757 39.9119 133.766 39.1165C134.788 38.3068 135.57 37.1776 136.109 35.7287C136.663 34.2798 136.94 32.5824 136.94 30.6364C136.94 28.6903 136.67 27 136.131 25.5653C135.591 24.1307 134.81 23.0227 133.787 22.2415C132.764 21.4602 131.521 21.0696 130.058 21.0696C128.567 21.0696 127.31 21.4744 126.287 22.2841C125.264 23.0937 124.49 24.2159 123.964 25.6506C123.439 27.0852 123.176 28.7472 123.176 30.6364C123.176 32.5398 123.439 34.223 123.964 35.6861C124.504 37.1349 125.278 38.2713 126.287 39.0952C127.31 39.9048 128.567 40.3097 130.058 40.3097ZM167.153 47V14.2727H176.23V47H167.153ZM171.713 10.054C170.364 10.054 169.206 9.60653 168.24 8.71165C167.288 7.80256 166.812 6.71591 166.812 5.4517C166.812 4.2017 167.288 3.12926 168.24 2.23438C169.206 1.32528 170.364 0.870736 171.713 0.870736C173.063 0.870736 174.213 1.32528 175.165 2.23438C176.131 3.12926 176.614 4.2017 176.614 5.4517C176.614 6.71591 176.131 7.80256 175.165 8.71165C174.213 9.60653 173.063 10.054 171.713 10.054ZM192.578 28.0795V47H183.501V14.2727H192.152V20.0469H192.535C193.26 18.1435 194.474 16.6378 196.179 15.5298C197.883 14.4077 199.95 13.8466 202.379 13.8466C204.652 13.8466 206.633 14.3437 208.324 15.3381C210.014 16.3324 211.328 17.7528 212.265 19.5994C213.203 21.4318 213.672 23.6193 213.672 26.1619V47H204.595V27.7812C204.609 25.7784 204.098 24.2159 203.061 23.0938C202.024 21.9574 200.596 21.3892 198.778 21.3892C197.556 21.3892 196.477 21.652 195.539 22.1776C194.616 22.7031 193.892 23.4702 193.366 24.4787C192.855 25.473 192.592 26.6733 192.578 28.0795ZM248.055 23.6051L239.746 24.1165C239.604 23.4062 239.298 22.767 238.83 22.1989C238.361 21.6165 237.743 21.1548 236.976 20.8139C236.223 20.4588 235.321 20.2812 234.27 20.2812C232.864 20.2812 231.678 20.5795 230.712 21.1761C229.746 21.7585 229.263 22.5398 229.263 23.5199C229.263 24.3011 229.575 24.9616 230.2 25.5014C230.825 26.0412 231.898 26.4744 233.418 26.8011L239.341 27.9943C242.523 28.6477 244.895 29.6989 246.457 31.1477C248.02 32.5966 248.801 34.5 248.801 36.858C248.801 39.0028 248.169 40.8849 246.905 42.5043C245.655 44.1236 243.936 45.3878 241.749 46.2969C239.575 47.1918 237.068 47.6392 234.227 47.6392C229.895 47.6392 226.443 46.7372 223.872 44.9332C221.315 43.1151 219.817 40.6435 219.376 37.5185L228.304 37.0497C228.574 38.3707 229.227 39.3793 230.264 40.0753C231.301 40.7571 232.629 41.098 234.249 41.098C235.839 41.098 237.118 40.7926 238.084 40.1818C239.064 39.5568 239.561 38.7543 239.575 37.7741C239.561 36.9503 239.213 36.2756 238.531 35.75C237.849 35.2102 236.798 34.7983 235.378 34.5142L229.71 33.3849C226.514 32.7457 224.135 31.6378 222.572 30.0611C221.024 28.4844 220.25 26.4744 220.25 24.0312C220.25 21.929 220.818 20.1179 221.955 18.598C223.105 17.0781 224.717 15.9063 226.791 15.0824C228.879 14.2585 231.322 13.8466 234.121 13.8466C238.254 13.8466 241.507 14.7202 243.879 16.4673C246.266 18.2145 247.658 20.5937 248.055 23.6051ZM271.924 14.2727V21.0909H252.216V14.2727H271.924ZM256.69 6.43182H265.767V36.9432C265.767 37.7812 265.895 38.4347 266.15 38.9034C266.406 39.358 266.761 39.6776 267.216 39.8622C267.684 40.0469 268.224 40.1392 268.835 40.1392C269.261 40.1392 269.687 40.1037 270.113 40.0327C270.539 39.9474 270.866 39.8835 271.093 39.8409L272.521 46.5952C272.066 46.7372 271.427 46.9006 270.603 47.0852C269.779 47.2841 268.778 47.4048 267.599 47.4474C265.412 47.5327 263.494 47.2415 261.846 46.5739C260.213 45.9062 258.941 44.8693 258.032 43.4631C257.123 42.0568 256.676 40.2812 256.69 38.1364V6.43182ZM287.169 47.6179C285.081 47.6179 283.221 47.2557 281.587 46.5312C279.953 45.7926 278.661 44.706 277.709 43.2713C276.772 41.8224 276.303 40.0185 276.303 37.8594C276.303 36.0412 276.637 34.5142 277.304 33.2784C277.972 32.0426 278.881 31.0483 280.032 30.2955C281.182 29.5426 282.489 28.9744 283.952 28.5909C285.429 28.2074 286.978 27.9375 288.597 27.7812C290.5 27.5824 292.034 27.3977 293.199 27.2273C294.364 27.0426 295.209 26.7727 295.735 26.4176C296.26 26.0625 296.523 25.5369 296.523 24.8409V24.7131C296.523 23.3636 296.097 22.3196 295.245 21.581C294.407 20.8423 293.213 20.473 291.665 20.473C290.032 20.473 288.732 20.8352 287.766 21.5597C286.8 22.2699 286.161 23.1648 285.848 24.2443L277.453 23.5625C277.88 21.5739 278.718 19.8551 279.968 18.4062C281.218 16.9432 282.83 15.821 284.804 15.0398C286.793 14.2443 289.094 13.8466 291.708 13.8466C293.526 13.8466 295.266 14.0597 296.928 14.4858C298.604 14.9119 300.088 15.5724 301.381 16.4673C302.688 17.3622 303.718 18.5128 304.471 19.919C305.223 21.3111 305.6 22.9801 305.6 24.9261V47H296.992V42.4616H296.736C296.211 43.4844 295.507 44.3864 294.627 45.1676C293.746 45.9347 292.688 46.5384 291.452 46.9787C290.216 47.4048 288.789 47.6179 287.169 47.6179ZM289.769 41.3537C291.104 41.3537 292.283 41.0909 293.306 40.5653C294.328 40.0256 295.131 39.3011 295.713 38.392C296.296 37.483 296.587 36.4531 296.587 35.3026V31.8295C296.303 32.0142 295.912 32.1847 295.415 32.3409C294.932 32.483 294.385 32.6179 293.775 32.7457C293.164 32.8594 292.553 32.9659 291.942 33.0653C291.331 33.1506 290.777 33.2287 290.28 33.2997C289.215 33.456 288.284 33.7045 287.489 34.0455C286.694 34.3864 286.076 34.848 285.635 35.4304C285.195 35.9986 284.975 36.7088 284.975 37.5611C284.975 38.7969 285.422 39.7415 286.317 40.3949C287.226 41.0341 288.377 41.3537 289.769 41.3537ZM321.718 28.0795V47H312.642V14.2727H321.292V20.0469H321.676C322.4 18.1435 323.615 16.6378 325.319 15.5298C327.024 14.4077 329.091 13.8466 331.52 13.8466C333.792 13.8466 335.774 14.3437 337.464 15.3381C339.154 16.3324 340.468 17.7528 341.406 19.5994C342.343 21.4318 342.812 23.6193 342.812 26.1619V47H333.735V27.7812C333.75 25.7784 333.238 24.2159 332.201 23.0938C331.164 21.9574 329.737 21.3892 327.919 21.3892C326.697 21.3892 325.618 21.652 324.68 22.1776C323.757 22.7031 323.032 23.4702 322.507 24.4787C321.995 25.473 321.733 26.6733 321.718 28.0795ZM367.374 14.2727V21.0909H347.665V14.2727H367.374ZM352.139 6.43182H361.216V36.9432C361.216 37.7812 361.344 38.4347 361.599 38.9034C361.855 39.358 362.21 39.6776 362.665 39.8622C363.134 40.0469 363.673 40.1392 364.284 40.1392C364.71 40.1392 365.136 40.1037 365.562 40.0327C365.989 39.9474 366.315 39.8835 366.543 39.8409L367.97 46.5952C367.516 46.7372 366.876 46.9006 366.053 47.0852C365.229 47.2841 364.227 47.4048 363.048 47.4474C360.861 47.5327 358.943 47.2415 357.295 46.5739C355.662 45.9062 354.391 44.8693 353.482 43.4631C352.572 42.0568 352.125 40.2812 352.139 38.1364V6.43182ZM11.6989 101.08V120H2.62216V76.3636H11.4432V93.0469H11.8267C12.5653 91.1151 13.7585 89.6023 15.4062 88.5085C17.054 87.4006 19.1207 86.8466 21.6065 86.8466C23.8793 86.8466 25.8608 87.3438 27.5511 88.3381C29.2557 89.3182 30.5767 90.7315 31.5142 92.5781C32.4659 94.4105 32.9347 96.6051 32.9205 99.1619V120H23.8438V100.781C23.858 98.7642 23.3466 97.1946 22.3097 96.0724C21.2869 94.9503 19.8523 94.3892 18.0057 94.3892C16.7699 94.3892 15.6761 94.652 14.7244 95.1776C13.7869 95.7031 13.0483 96.4702 12.5085 97.4787C11.983 98.473 11.7131 99.6733 11.6989 101.08ZM54.9783 120.639C51.6119 120.639 48.7141 119.957 46.2852 118.594C43.8704 117.216 42.0096 115.27 40.7028 112.756C39.396 110.227 38.7425 107.237 38.7425 103.786C38.7425 100.419 39.396 97.4645 40.7028 94.9219C42.0096 92.3793 43.8491 90.3977 46.2212 88.9773C48.6076 87.5568 51.4059 86.8466 54.6161 86.8466C56.7752 86.8466 58.7852 87.1946 60.646 87.8906C62.521 88.5724 64.1545 89.6023 65.5465 90.9801C66.9528 92.358 68.0465 94.0909 68.8278 96.179C69.609 98.2528 69.9996 100.682 69.9996 103.466V105.959H42.3647V100.334H61.4556C61.4556 99.027 61.1715 97.8693 60.6033 96.8608C60.0352 95.8523 59.2468 95.0639 58.2383 94.4957C57.244 93.9134 56.0863 93.6222 54.7653 93.6222C53.3874 93.6222 52.1658 93.9418 51.1005 94.581C50.0494 95.206 49.2255 96.0511 48.6289 97.1165C48.0323 98.1676 47.7269 99.3395 47.7127 100.632V105.98C47.7127 107.599 48.011 108.999 48.6076 110.178C49.2184 111.357 50.0778 112.266 51.1857 112.905C52.2937 113.544 53.6076 113.864 55.1275 113.864C56.136 113.864 57.0593 113.722 57.8974 113.438C58.7354 113.153 59.4528 112.727 60.0494 112.159C60.646 111.591 61.1005 110.895 61.413 110.071L69.8079 110.625C69.3817 112.642 68.5082 114.403 67.1871 115.909C65.8803 117.401 64.19 118.565 62.1161 119.403C60.0565 120.227 57.6772 120.639 54.9783 120.639ZM85.2553 120.618C83.1673 120.618 81.3065 120.256 79.6729 119.531C78.0394 118.793 76.7468 117.706 75.7951 116.271C74.8576 114.822 74.3888 113.018 74.3888 110.859C74.3888 109.041 74.7227 107.514 75.3903 106.278C76.0579 105.043 76.967 104.048 78.1175 103.295C79.2681 102.543 80.5749 101.974 82.038 101.591C83.5153 101.207 85.0636 100.938 86.6829 100.781C88.5863 100.582 90.1204 100.398 91.2852 100.227C92.4499 100.043 93.2951 99.7727 93.8207 99.4176C94.3462 99.0625 94.609 98.5369 94.609 97.8409V97.7131C94.609 96.3636 94.1829 95.3196 93.3306 94.581C92.4925 93.8423 91.2994 93.473 89.7511 93.473C88.1175 93.473 86.8178 93.8352 85.8519 94.5597C84.886 95.2699 84.2468 96.1648 83.9343 97.2443L75.5394 96.5625C75.9656 94.5739 76.8036 92.8551 78.0536 91.4062C79.3036 89.9432 80.9158 88.821 82.8903 88.0398C84.8789 87.2443 87.18 86.8466 89.7937 86.8466C91.6119 86.8466 93.3519 87.0597 95.0139 87.4858C96.69 87.9119 98.1744 88.5724 99.467 89.4673C100.774 90.3622 101.804 91.5128 102.556 92.919C103.309 94.3111 103.686 95.9801 103.686 97.9261V120H95.0778V115.462H94.8221C94.2965 116.484 93.5934 117.386 92.7127 118.168C91.832 118.935 90.7738 119.538 89.538 119.979C88.3022 120.405 86.8746 120.618 85.2553 120.618ZM87.8548 114.354C89.19 114.354 90.369 114.091 91.3917 113.565C92.4144 113.026 93.217 112.301 93.7994 111.392C94.3817 110.483 94.6729 109.453 94.6729 108.303V104.83C94.3889 105.014 93.9982 105.185 93.5011 105.341C93.0181 105.483 92.4712 105.618 91.8604 105.746C91.2496 105.859 90.6388 105.966 90.0281 106.065C89.4173 106.151 88.8633 106.229 88.3661 106.3C87.3008 106.456 86.3704 106.705 85.5749 107.045C84.7795 107.386 84.1616 107.848 83.7212 108.43C83.2809 108.999 83.0607 109.709 83.0607 110.561C83.0607 111.797 83.5082 112.741 84.4031 113.395C85.3121 114.034 86.4627 114.354 87.8548 114.354ZM110.728 120V87.2727H119.527V92.983H119.868C120.465 90.9517 121.466 89.4176 122.873 88.3807C124.279 87.3295 125.898 86.804 127.73 86.804C128.185 86.804 128.675 86.8324 129.201 86.8892C129.726 86.946 130.188 87.0241 130.586 87.1236V95.1776C130.159 95.0497 129.57 94.9361 128.817 94.8366C128.064 94.7372 127.375 94.6875 126.75 94.6875C125.415 94.6875 124.222 94.9787 123.171 95.5611C122.134 96.1293 121.31 96.9247 120.699 97.9474C120.103 98.9702 119.804 100.149 119.804 101.484V120H110.728ZM154.327 87.2727V94.0909H134.618V87.2727H154.327ZM139.092 79.4318H148.169V109.943C148.169 110.781 148.297 111.435 148.553 111.903C148.808 112.358 149.163 112.678 149.618 112.862C150.087 113.047 150.626 113.139 151.237 113.139C151.663 113.139 152.089 113.104 152.516 113.033C152.942 112.947 153.268 112.884 153.496 112.841L154.923 119.595C154.469 119.737 153.83 119.901 153.006 120.085C152.182 120.284 151.18 120.405 150.001 120.447C147.814 120.533 145.896 120.241 144.249 119.574C142.615 118.906 141.344 117.869 140.435 116.463C139.526 115.057 139.078 113.281 139.092 111.136V79.4318ZM177.839 87.2727V94.0909H157.64V87.2727H177.839ZM162.263 120V84.9077C162.263 82.5355 162.725 80.5682 163.648 79.0057C164.586 77.4432 165.864 76.2713 167.484 75.4901C169.103 74.7088 170.942 74.3182 173.002 74.3182C174.394 74.3182 175.665 74.4247 176.816 74.6378C177.981 74.8509 178.847 75.0426 179.415 75.2131L177.796 82.0312C177.441 81.9176 177.001 81.8111 176.475 81.7116C175.964 81.6122 175.438 81.5625 174.898 81.5625C173.563 81.5625 172.633 81.875 172.107 82.5C171.582 83.1108 171.319 83.9702 171.319 85.0781V120H162.263ZM197.127 120.639C193.76 120.639 190.863 119.957 188.434 118.594C186.019 117.216 184.158 115.27 182.851 112.756C181.544 110.227 180.891 107.237 180.891 103.786C180.891 100.419 181.544 97.4645 182.851 94.9219C184.158 92.3793 185.998 90.3977 188.37 88.9773C190.756 87.5568 193.554 86.8466 196.765 86.8466C198.924 86.8466 200.934 87.1946 202.794 87.8906C204.669 88.5724 206.303 89.6023 207.695 90.9801C209.101 92.358 210.195 94.0909 210.976 96.179C211.757 98.2528 212.148 100.682 212.148 103.466V105.959H184.513V100.334H203.604C203.604 99.027 203.32 97.8693 202.752 96.8608C202.184 95.8523 201.395 95.0639 200.387 94.4957C199.392 93.9134 198.235 93.6222 196.914 93.6222C195.536 93.6222 194.314 93.9418 193.249 94.581C192.198 95.206 191.374 96.0511 190.777 97.1165C190.181 98.1676 189.875 99.3395 189.861 100.632V105.98C189.861 107.599 190.159 108.999 190.756 110.178C191.367 111.357 192.226 112.266 193.334 112.905C194.442 113.544 195.756 113.864 197.276 113.864C198.284 113.864 199.208 113.722 200.046 113.438C200.884 113.153 201.601 112.727 202.198 112.159C202.794 111.591 203.249 110.895 203.561 110.071L211.956 110.625C211.53 112.642 210.657 114.403 209.336 115.909C208.029 117.401 206.338 118.565 204.265 119.403C202.205 120.227 199.826 120.639 197.127 120.639ZM227.148 76.3636V120H218.071V76.3636H227.148ZM251.827 87.2727V94.0909H232.118V87.2727H251.827ZM236.592 79.4318H245.669V109.943C245.669 110.781 245.797 111.435 246.053 111.903C246.308 112.358 246.663 112.678 247.118 112.862C247.587 113.047 248.126 113.139 248.737 113.139C249.163 113.139 249.589 113.104 250.016 113.033C250.442 112.947 250.768 112.884 250.996 112.841L252.423 119.595C251.969 119.737 251.33 119.901 250.506 120.085C249.682 120.284 248.68 120.405 247.501 120.447C245.314 120.533 243.396 120.241 241.749 119.574C240.115 118.906 238.844 117.869 237.935 116.463C237.026 115.057 236.578 113.281 236.592 111.136V79.4318ZM271.626 120V87.2727H280.426V92.983H280.767C281.363 90.9517 282.365 89.4176 283.771 88.3807C285.177 87.3295 286.797 86.804 288.629 86.804C289.083 86.804 289.574 86.8324 290.099 86.8892C290.625 86.946 291.086 87.0241 291.484 87.1236V95.1776C291.058 95.0497 290.468 94.9361 289.716 94.8366C288.963 94.7372 288.274 94.6875 287.649 94.6875C286.314 94.6875 285.12 94.9787 284.069 95.5611C283.032 96.1293 282.208 96.9247 281.598 97.9474C281.001 98.9702 280.703 100.149 280.703 101.484V120H271.626ZM309.568 120.639C306.202 120.639 303.304 119.957 300.875 118.594C298.46 117.216 296.599 115.27 295.293 112.756C293.986 110.227 293.332 107.237 293.332 103.786C293.332 100.419 293.986 97.4645 295.293 94.9219C296.599 92.3793 298.439 90.3977 300.811 88.9773C303.197 87.5568 305.996 86.8466 309.206 86.8466C311.365 86.8466 313.375 87.1946 315.236 87.8906C317.111 88.5724 318.744 89.6023 320.136 90.9801C321.543 92.358 322.636 94.0909 323.418 96.179C324.199 98.2528 324.589 100.682 324.589 103.466V105.959H296.955V100.334H316.045C316.045 99.027 315.761 97.8693 315.193 96.8608C314.625 95.8523 313.837 95.0639 312.828 94.4957C311.834 93.9134 310.676 93.6222 309.355 93.6222C307.977 93.6222 306.756 93.9418 305.69 94.581C304.639 95.206 303.815 96.0511 303.219 97.1165C302.622 98.1676 302.317 99.3395 302.303 100.632V105.98C302.303 107.599 302.601 108.999 303.197 110.178C303.808 111.357 304.668 112.266 305.776 112.905C306.884 113.544 308.197 113.864 309.717 113.864C310.726 113.864 311.649 113.722 312.487 113.438C313.325 113.153 314.043 112.727 314.639 112.159C315.236 111.591 315.69 110.895 316.003 110.071L324.398 110.625C323.972 112.642 323.098 114.403 321.777 115.909C320.47 117.401 318.78 118.565 316.706 119.403C314.646 120.227 312.267 120.639 309.568 120.639ZM336.734 120L327.828 87.2727H337.011L342.082 109.261H342.381L347.665 87.2727H356.678L362.047 109.134H362.324L367.31 87.2727H376.472L367.587 120H357.977L352.352 99.4176H351.947L346.322 120H336.734ZM390.646 120.618C388.558 120.618 386.697 120.256 385.064 119.531C383.43 118.793 382.137 117.706 381.186 116.271C380.248 114.822 379.779 113.018 379.779 110.859C379.779 109.041 380.113 107.514 380.781 106.278C381.449 105.043 382.358 104.048 383.508 103.295C384.659 102.543 385.966 101.974 387.429 101.591C388.906 101.207 390.454 100.938 392.074 100.781C393.977 100.582 395.511 100.398 396.676 100.227C397.841 100.043 398.686 99.7727 399.211 99.4176C399.737 99.0625 400 98.5369 400 97.8409V97.7131C400 96.3636 399.574 95.3196 398.721 94.581C397.883 93.8423 396.69 93.473 395.142 93.473C393.508 93.473 392.208 93.8352 391.243 94.5597C390.277 95.2699 389.637 96.1648 389.325 97.2443L380.93 96.5625C381.356 94.5739 382.194 92.8551 383.444 91.4062C384.694 89.9432 386.306 88.821 388.281 88.0398C390.27 87.2443 392.571 86.8466 395.184 86.8466C397.002 86.8466 398.743 87.0597 400.404 87.4858C402.081 87.9119 403.565 88.5724 404.858 89.4673C406.164 90.3622 407.194 91.5128 407.947 92.919C408.7 94.3111 409.076 95.9801 409.076 97.9261V120H400.468V115.462H400.213C399.687 116.484 398.984 117.386 398.103 118.168C397.223 118.935 396.164 119.538 394.929 119.979C393.693 120.405 392.265 120.618 390.646 120.618ZM393.245 114.354C394.581 114.354 395.76 114.091 396.782 113.565C397.805 113.026 398.608 112.301 399.19 111.392C399.772 110.483 400.064 109.453 400.064 108.303V104.83C399.779 105.014 399.389 105.185 398.892 105.341C398.409 105.483 397.862 105.618 397.251 105.746C396.64 105.859 396.029 105.966 395.419 106.065C394.808 106.151 394.254 106.229 393.757 106.3C392.691 106.456 391.761 106.705 390.966 107.045C390.17 107.386 389.552 107.848 389.112 108.43C388.672 108.999 388.451 109.709 388.451 110.561C388.451 111.797 388.899 112.741 389.794 113.395C390.703 114.034 391.853 114.354 393.245 114.354ZM416.118 120V87.2727H424.918V92.983H425.259C425.855 90.9517 426.857 89.4176 428.263 88.3807C429.669 87.3295 431.289 86.804 433.121 86.804C433.576 86.804 434.066 86.8324 434.591 86.8892C435.117 86.946 435.578 87.0241 435.976 87.1236V95.1776C435.55 95.0497 434.961 94.9361 434.208 94.8366C433.455 94.7372 432.766 94.6875 432.141 94.6875C430.806 94.6875 429.613 94.9787 428.561 95.5611C427.525 96.1293 426.701 96.9247 426.09 97.9474C425.493 98.9702 425.195 100.149 425.195 101.484V120H416.118ZM451.205 120.533C448.719 120.533 446.468 119.893 444.451 118.615C442.448 117.322 440.857 115.426 439.678 112.926C438.513 110.412 437.931 107.33 437.931 103.679C437.931 99.929 438.535 96.8111 439.742 94.3253C440.95 91.8253 442.555 89.9574 444.558 88.7216C446.575 87.4716 448.783 86.8466 451.184 86.8466C453.016 86.8466 454.543 87.1591 455.765 87.7841C457.001 88.3949 457.995 89.1619 458.748 90.0852C459.515 90.9943 460.097 91.8892 460.495 92.7699H460.772V76.3636H469.827V120H460.879V114.759H460.495C460.069 115.668 459.465 116.57 458.684 117.464C457.917 118.345 456.915 119.077 455.68 119.659C454.458 120.241 452.967 120.533 451.205 120.533ZM454.082 113.31C455.545 113.31 456.781 112.912 457.789 112.116C458.812 111.307 459.593 110.178 460.133 108.729C460.687 107.28 460.964 105.582 460.964 103.636C460.964 101.69 460.694 100 460.154 98.5653C459.614 97.1307 458.833 96.0227 457.81 95.2415C456.788 94.4602 455.545 94.0696 454.082 94.0696C452.59 94.0696 451.333 94.4744 450.31 95.2841C449.288 96.0937 448.513 97.2159 447.988 98.6506C447.462 100.085 447.2 101.747 447.2 103.636C447.2 105.54 447.462 107.223 447.988 108.686C448.528 110.135 449.302 111.271 450.31 112.095C451.333 112.905 452.59 113.31 454.082 113.31ZM504.52 96.6051L496.211 97.1165C496.069 96.4062 495.763 95.767 495.294 95.1989C494.826 94.6165 494.208 94.1548 493.441 93.8139C492.688 93.4588 491.786 93.2812 490.735 93.2812C489.328 93.2812 488.142 93.5795 487.176 94.1761C486.211 94.7585 485.728 95.5398 485.728 96.5199C485.728 97.3011 486.04 97.9616 486.665 98.5014C487.29 99.0412 488.363 99.4744 489.882 99.8011L495.806 100.994C498.988 101.648 501.36 102.699 502.922 104.148C504.485 105.597 505.266 107.5 505.266 109.858C505.266 112.003 504.634 113.885 503.37 115.504C502.12 117.124 500.401 118.388 498.213 119.297C496.04 120.192 493.533 120.639 490.692 120.639C486.36 120.639 482.908 119.737 480.337 117.933C477.78 116.115 476.282 113.643 475.841 110.518L484.769 110.05C485.039 111.371 485.692 112.379 486.729 113.075C487.766 113.757 489.094 114.098 490.713 114.098C492.304 114.098 493.583 113.793 494.549 113.182C495.529 112.557 496.026 111.754 496.04 110.774C496.026 109.95 495.678 109.276 494.996 108.75C494.314 108.21 493.263 107.798 491.843 107.514L486.175 106.385C482.979 105.746 480.6 104.638 479.037 103.061C477.489 101.484 476.715 99.4744 476.715 97.0312C476.715 94.929 477.283 93.1179 478.419 91.598C479.57 90.0781 481.182 88.9062 483.256 88.0824C485.344 87.2585 487.787 86.8466 490.586 86.8466C494.719 86.8466 497.972 87.7202 500.344 89.4673C502.73 91.2145 504.123 93.5937 504.52 96.6051ZM20.0298 160.273V167.091H0.321023V160.273H20.0298ZM4.79545 152.432H13.8722V182.943C13.8722 183.781 14 184.435 14.2557 184.903C14.5114 185.358 14.8665 185.678 15.321 185.862C15.7898 186.047 16.3295 186.139 16.9403 186.139C17.3665 186.139 17.7926 186.104 18.2188 186.033C18.6449 185.947 18.9716 185.884 19.1989 185.841L20.6264 192.595C20.1719 192.737 19.5327 192.901 18.7088 193.085C17.8849 193.284 16.8835 193.405 15.7045 193.447C13.517 193.533 11.5994 193.241 9.95171 192.574C8.31818 191.906 7.04688 190.869 6.13778 189.463C5.22869 188.057 4.78125 186.281 4.79545 184.136V152.432ZM40.3778 193.639C37.0682 193.639 34.206 192.936 31.7912 191.53C29.3906 190.109 27.5369 188.135 26.2301 185.607C24.9233 183.064 24.2699 180.116 24.2699 176.764C24.2699 173.384 24.9233 170.429 26.2301 167.901C27.5369 165.358 29.3906 163.384 31.7912 161.977C34.206 160.557 37.0682 159.847 40.3778 159.847C43.6875 159.847 46.5426 160.557 48.9432 161.977C51.358 163.384 53.2188 165.358 54.5256 167.901C55.8324 170.429 56.4858 173.384 56.4858 176.764C56.4858 180.116 55.8324 183.064 54.5256 185.607C53.2188 188.135 51.358 190.109 48.9432 191.53C46.5426 192.936 43.6875 193.639 40.3778 193.639ZM40.4205 186.608C41.9261 186.608 43.1832 186.182 44.1918 185.33C45.2003 184.463 45.9602 183.284 46.4716 181.793C46.9972 180.301 47.2599 178.604 47.2599 176.7C47.2599 174.797 46.9972 173.099 46.4716 171.608C45.9602 170.116 45.2003 168.937 44.1918 168.071C43.1832 167.205 41.9261 166.771 40.4205 166.771C38.9006 166.771 37.6222 167.205 36.5852 168.071C35.5625 168.937 34.7884 170.116 34.2628 171.608C33.7514 173.099 33.4957 174.797 33.4957 176.7C33.4957 178.604 33.7514 180.301 34.2628 181.793C34.7884 183.284 35.5625 184.463 36.5852 185.33C37.6222 186.182 38.9006 186.608 40.4205 186.608ZM81.8782 205.273C80.7276 205.273 79.6481 205.18 78.6396 204.996C77.6452 204.825 76.8214 204.605 76.168 204.335L78.2134 197.56C79.2788 197.886 80.2376 198.064 81.0898 198.092C81.9563 198.121 82.7021 197.922 83.3271 197.496C83.9663 197.07 84.4847 196.345 84.8825 195.322L85.4151 193.938L73.6751 160.273H83.2205L89.9961 184.307H90.337L97.1765 160.273H106.786L94.0657 196.537C93.4549 198.298 92.6239 199.832 91.5728 201.139C90.5359 202.46 89.2219 203.476 87.631 204.186C86.0401 204.911 84.1225 205.273 81.8782 205.273ZM125.163 193.639C121.853 193.639 118.991 192.936 116.576 191.53C114.176 190.109 112.322 188.135 111.015 185.607C109.708 183.064 109.055 180.116 109.055 176.764C109.055 173.384 109.708 170.429 111.015 167.901C112.322 165.358 114.176 163.384 116.576 161.977C118.991 160.557 121.853 159.847 125.163 159.847C128.473 159.847 131.328 160.557 133.728 161.977C136.143 163.384 138.004 165.358 139.311 167.901C140.618 170.429 141.271 173.384 141.271 176.764C141.271 180.116 140.618 183.064 139.311 185.607C138.004 188.135 136.143 190.109 133.728 191.53C131.328 192.936 128.473 193.639 125.163 193.639ZM125.206 186.608C126.711 186.608 127.968 186.182 128.977 185.33C129.985 184.463 130.745 183.284 131.257 181.793C131.782 180.301 132.045 178.604 132.045 176.7C132.045 174.797 131.782 173.099 131.257 171.608C130.745 170.116 129.985 168.937 128.977 168.071C127.968 167.205 126.711 166.771 125.206 166.771C123.686 166.771 122.407 167.205 121.37 168.071C120.348 168.937 119.574 170.116 119.048 171.608C118.537 173.099 118.281 174.797 118.281 176.7C118.281 178.604 118.537 180.301 119.048 181.793C119.574 183.284 120.348 184.463 121.37 185.33C122.407 186.182 123.686 186.608 125.206 186.608ZM168.16 179.065V160.273H177.237V193H168.522V187.055H168.181C167.443 188.973 166.214 190.514 164.495 191.679C162.791 192.844 160.71 193.426 158.252 193.426C156.065 193.426 154.14 192.929 152.478 191.935C150.816 190.94 149.517 189.527 148.579 187.695C147.656 185.862 147.187 183.668 147.173 181.111V160.273H156.25V179.491C156.264 181.423 156.782 182.95 157.805 184.072C158.828 185.195 160.199 185.756 161.917 185.756C163.011 185.756 164.034 185.507 164.985 185.01C165.937 184.499 166.704 183.746 167.287 182.751C167.883 181.757 168.174 180.528 168.16 179.065ZM184.497 193V160.273H193.297V165.983H193.638C194.234 163.952 195.236 162.418 196.642 161.381C198.048 160.33 199.668 159.804 201.5 159.804C201.955 159.804 202.445 159.832 202.97 159.889C203.496 159.946 203.957 160.024 204.355 160.124V168.178C203.929 168.05 203.339 167.936 202.587 167.837C201.834 167.737 201.145 167.688 200.52 167.688C199.185 167.688 197.991 167.979 196.94 168.561C195.903 169.129 195.08 169.925 194.469 170.947C193.872 171.97 193.574 173.149 193.574 174.484V193H184.497ZM240.342 160.273V167.091H220.634V160.273H240.342ZM225.108 152.432H234.185V182.943C234.185 183.781 234.313 184.435 234.568 184.903C234.824 185.358 235.179 185.678 235.634 185.862C236.102 186.047 236.642 186.139 237.253 186.139C237.679 186.139 238.105 186.104 238.531 186.033C238.957 185.947 239.284 185.884 239.511 185.841L240.939 192.595C240.484 192.737 239.845 192.901 239.021 193.085C238.197 193.284 237.196 193.405 236.017 193.447C233.83 193.533 231.912 193.241 230.264 192.574C228.631 191.906 227.359 190.869 226.45 189.463C225.541 188.057 225.094 186.281 225.108 184.136V152.432ZM260.818 193.639C257.452 193.639 254.554 192.957 252.125 191.594C249.71 190.216 247.849 188.27 246.543 185.756C245.236 183.227 244.582 180.237 244.582 176.786C244.582 173.419 245.236 170.464 246.543 167.922C247.849 165.379 249.689 163.398 252.061 161.977C254.447 160.557 257.246 159.847 260.456 159.847C262.615 159.847 264.625 160.195 266.486 160.891C268.361 161.572 269.994 162.602 271.386 163.98C272.793 165.358 273.886 167.091 274.668 169.179C275.449 171.253 275.839 173.682 275.839 176.466V178.959H248.205V173.334H267.295C267.295 172.027 267.011 170.869 266.443 169.861C265.875 168.852 265.087 168.064 264.078 167.496C263.084 166.913 261.926 166.622 260.605 166.622C259.227 166.622 258.006 166.942 256.94 167.581C255.889 168.206 255.065 169.051 254.469 170.116C253.872 171.168 253.567 172.339 253.553 173.632V178.98C253.553 180.599 253.851 181.999 254.447 183.178C255.058 184.357 255.918 185.266 257.026 185.905C258.134 186.544 259.447 186.864 260.967 186.864C261.976 186.864 262.899 186.722 263.737 186.438C264.575 186.153 265.293 185.727 265.889 185.159C266.486 184.591 266.94 183.895 267.253 183.071L275.648 183.625C275.222 185.642 274.348 187.403 273.027 188.909C271.72 190.401 270.03 191.565 267.956 192.403C265.896 193.227 263.517 193.639 260.818 193.639ZM291.095 193.618C289.007 193.618 287.146 193.256 285.513 192.531C283.879 191.793 282.587 190.706 281.635 189.271C280.697 187.822 280.229 186.018 280.229 183.859C280.229 182.041 280.563 180.514 281.23 179.278C281.898 178.043 282.807 177.048 283.957 176.295C285.108 175.543 286.415 174.974 287.878 174.591C289.355 174.207 290.903 173.938 292.523 173.781C294.426 173.582 295.96 173.398 297.125 173.227C298.29 173.043 299.135 172.773 299.661 172.418C300.186 172.062 300.449 171.537 300.449 170.841V170.713C300.449 169.364 300.023 168.32 299.17 167.581C298.332 166.842 297.139 166.473 295.591 166.473C293.957 166.473 292.658 166.835 291.692 167.56C290.726 168.27 290.087 169.165 289.774 170.244L281.379 169.562C281.805 167.574 282.643 165.855 283.893 164.406C285.143 162.943 286.756 161.821 288.73 161.04C290.719 160.244 293.02 159.847 295.634 159.847C297.452 159.847 299.192 160.06 300.854 160.486C302.53 160.912 304.014 161.572 305.307 162.467C306.614 163.362 307.643 164.513 308.396 165.919C309.149 167.311 309.526 168.98 309.526 170.926V193H300.918V188.462H300.662C300.136 189.484 299.433 190.386 298.553 191.168C297.672 191.935 296.614 192.538 295.378 192.979C294.142 193.405 292.714 193.618 291.095 193.618ZM293.695 187.354C295.03 187.354 296.209 187.091 297.232 186.565C298.254 186.026 299.057 185.301 299.639 184.392C300.222 183.483 300.513 182.453 300.513 181.303V177.83C300.229 178.014 299.838 178.185 299.341 178.341C298.858 178.483 298.311 178.618 297.7 178.746C297.089 178.859 296.479 178.966 295.868 179.065C295.257 179.151 294.703 179.229 294.206 179.3C293.141 179.456 292.21 179.705 291.415 180.045C290.619 180.386 290.001 180.848 289.561 181.43C289.121 181.999 288.901 182.709 288.901 183.561C288.901 184.797 289.348 185.741 290.243 186.395C291.152 187.034 292.303 187.354 293.695 187.354ZM331.354 193.639C328.002 193.639 325.119 192.929 322.704 191.509C320.303 190.074 318.457 188.085 317.164 185.543C315.886 183 315.246 180.074 315.246 176.764C315.246 173.412 315.893 170.472 317.185 167.943C318.492 165.401 320.346 163.419 322.746 161.999C325.147 160.564 328.002 159.847 331.312 159.847C334.167 159.847 336.667 160.365 338.812 161.402C340.957 162.439 342.654 163.895 343.904 165.77C345.154 167.645 345.843 169.847 345.971 172.375H337.406C337.164 170.741 336.525 169.428 335.488 168.433C334.465 167.425 333.123 166.92 331.461 166.92C330.055 166.92 328.826 167.304 327.775 168.071C326.738 168.824 325.928 169.925 325.346 171.374C324.763 172.822 324.472 174.577 324.472 176.636C324.472 178.724 324.756 180.5 325.325 181.963C325.907 183.426 326.724 184.541 327.775 185.308C328.826 186.075 330.055 186.459 331.461 186.459C332.498 186.459 333.428 186.246 334.252 185.82C335.09 185.393 335.779 184.776 336.319 183.966C336.873 183.142 337.235 182.155 337.406 181.004H345.971C345.829 183.504 345.147 185.706 343.925 187.609C342.718 189.499 341.049 190.976 338.918 192.041C336.788 193.107 334.266 193.639 331.354 193.639ZM360.859 174.08V193H351.782V149.364H360.603V166.047H360.987C361.725 164.115 362.919 162.602 364.566 161.509C366.214 160.401 368.281 159.847 370.767 159.847C373.039 159.847 375.021 160.344 376.711 161.338C378.416 162.318 379.737 163.732 380.674 165.578C381.626 167.411 382.095 169.605 382.081 172.162V193H373.004V173.781C373.018 171.764 372.507 170.195 371.47 169.072C370.447 167.95 369.012 167.389 367.166 167.389C365.93 167.389 364.836 167.652 363.885 168.178C362.947 168.703 362.208 169.47 361.669 170.479C361.143 171.473 360.873 172.673 360.859 174.08ZM404.138 193.639C400.772 193.639 397.874 192.957 395.445 191.594C393.031 190.216 391.17 188.27 389.863 185.756C388.556 183.227 387.903 180.237 387.903 176.786C387.903 173.419 388.556 170.464 389.863 167.922C391.17 165.379 393.009 163.398 395.381 161.977C397.768 160.557 400.566 159.847 403.776 159.847C405.935 159.847 407.945 160.195 409.806 160.891C411.681 161.572 413.315 162.602 414.707 163.98C416.113 165.358 417.207 167.091 417.988 169.179C418.769 171.253 419.16 173.682 419.16 176.466V178.959H391.525V173.334H410.616C410.616 172.027 410.332 170.869 409.763 169.861C409.195 168.852 408.407 168.064 407.398 167.496C406.404 166.913 405.246 166.622 403.925 166.622C402.548 166.622 401.326 166.942 400.261 167.581C399.21 168.206 398.386 169.051 397.789 170.116C397.192 171.168 396.887 172.339 396.873 173.632V178.98C396.873 180.599 397.171 181.999 397.768 183.178C398.379 184.357 399.238 185.266 400.346 185.905C401.454 186.544 402.768 186.864 404.288 186.864C405.296 186.864 406.219 186.722 407.058 186.438C407.896 186.153 408.613 185.727 409.21 185.159C409.806 184.591 410.261 183.895 410.573 183.071L418.968 183.625C418.542 185.642 417.668 187.403 416.347 188.909C415.04 190.401 413.35 191.565 411.276 192.403C409.217 193.227 406.837 193.639 404.138 193.639ZM425.083 193V160.273H433.883V165.983H434.224C434.82 163.952 435.822 162.418 437.228 161.381C438.634 160.33 440.254 159.804 442.086 159.804C442.54 159.804 443.031 159.832 443.556 159.889C444.082 159.946 444.543 160.024 444.941 160.124V168.178C444.515 168.05 443.925 167.936 443.173 167.837C442.42 167.737 441.731 167.688 441.106 167.688C439.771 167.688 438.577 167.979 437.526 168.561C436.489 169.129 435.665 169.925 435.055 170.947C434.458 171.97 434.16 173.149 434.16 174.484V193H425.083ZM476.864 169.605L468.554 170.116C468.412 169.406 468.107 168.767 467.638 168.199C467.169 167.616 466.551 167.155 465.784 166.814C465.032 166.459 464.13 166.281 463.078 166.281C461.672 166.281 460.486 166.58 459.52 167.176C458.554 167.759 458.071 168.54 458.071 169.52C458.071 170.301 458.384 170.962 459.009 171.501C459.634 172.041 460.706 172.474 462.226 172.801L468.15 173.994C471.331 174.648 473.703 175.699 475.266 177.148C476.828 178.597 477.61 180.5 477.61 182.858C477.61 185.003 476.978 186.885 475.713 188.504C474.463 190.124 472.745 191.388 470.557 192.297C468.384 193.192 465.877 193.639 463.036 193.639C458.703 193.639 455.252 192.737 452.681 190.933C450.124 189.115 448.625 186.643 448.185 183.518L457.113 183.05C457.382 184.371 458.036 185.379 459.073 186.075C460.11 186.757 461.438 187.098 463.057 187.098C464.648 187.098 465.926 186.793 466.892 186.182C467.873 185.557 468.37 184.754 468.384 183.774C468.37 182.95 468.022 182.276 467.34 181.75C466.658 181.21 465.607 180.798 464.186 180.514L458.519 179.385C455.323 178.746 452.944 177.638 451.381 176.061C449.833 174.484 449.059 172.474 449.059 170.031C449.059 167.929 449.627 166.118 450.763 164.598C451.914 163.078 453.526 161.906 455.6 161.082C457.688 160.259 460.131 159.847 462.929 159.847C467.063 159.847 470.316 160.72 472.688 162.467C475.074 164.214 476.466 166.594 476.864 169.605Z" fill="url(#paint0_linear_14_91)"/>
<defs>
<linearGradient id="paint0_linear_14_91" x1="208.782" y1="-11" x2="366.798" y2="87.1108" gradientUnits="userSpaceOnUse">
<stop stop-color="#80B918"/>
<stop offset="1" stop-color="#55A630"/>
</linearGradient>
</defs>
</svg>
