<svg width="245" height="23" viewBox="0 0 245 23" fill="none" xmlns="http://www.w3.org/2000/svg">
<path d="M0.721591 18V0.545454H7.26705C8.60795 0.545454 9.73295 0.778409 10.642 1.24432C11.5568 1.71023 12.2472 2.36364 12.7131 3.20454C13.1847 4.03977 13.4205 5.0142 13.4205 6.12784C13.4205 7.24716 13.1818 8.21875 12.7045 9.04261C12.233 9.8608 11.5369 10.4943 10.6165 10.9432C9.69602 11.3864 8.56534 11.608 7.22443 11.608H2.5625V8.98295H6.7983C7.58239 8.98295 8.22443 8.875 8.72443 8.65909C9.22443 8.4375 9.59375 8.11648 9.83239 7.69602C10.0767 7.26989 10.1989 6.74716 10.1989 6.12784C10.1989 5.50852 10.0767 4.98011 9.83239 4.54261C9.58807 4.09943 9.21591 3.7642 8.71591 3.53693C8.21591 3.30398 7.57102 3.1875 6.78125 3.1875H3.88352V18H0.721591ZM9.73864 10.0909L14.0597 18H10.5312L6.28693 10.0909H9.73864ZM21.8026 18.2557C20.4901 18.2557 19.3565 17.983 18.402 17.4375C17.4531 16.8864 16.723 16.108 16.2116 15.1023C15.7003 14.0909 15.4446 12.9006 15.4446 11.5312C15.4446 10.1847 15.7003 9.00284 16.2116 7.9858C16.7287 6.96307 17.4503 6.16761 18.3764 5.59943C19.3026 5.02557 20.3906 4.73864 21.6406 4.73864C22.4474 4.73864 23.2088 4.86932 23.9247 5.13068C24.6463 5.38636 25.2827 5.78409 25.8338 6.32386C26.3906 6.86364 26.8281 7.55114 27.1463 8.38636C27.4645 9.21591 27.6236 10.2045 27.6236 11.3523V12.2983H16.8935V10.2188H24.6662C24.6605 9.62784 24.5327 9.10227 24.2827 8.64205C24.0327 8.17614 23.6832 7.80966 23.2344 7.54261C22.7912 7.27557 22.2741 7.14205 21.6832 7.14205C21.0526 7.14205 20.4986 7.29545 20.0213 7.60227C19.544 7.90341 19.1719 8.30114 18.9048 8.79545C18.6435 9.28409 18.5099 9.82102 18.5043 10.4062V12.2216C18.5043 12.983 18.6435 13.6364 18.9219 14.1818C19.2003 14.7216 19.5895 15.1364 20.0895 15.4261C20.5895 15.7102 21.1747 15.8523 21.8452 15.8523C22.294 15.8523 22.7003 15.7898 23.0639 15.6648C23.4276 15.5341 23.7429 15.3438 24.0099 15.0938C24.277 14.8438 24.4787 14.5341 24.6151 14.1648L27.4957 14.4886C27.3139 15.25 26.9673 15.9148 26.456 16.483C25.9503 17.0455 25.3026 17.483 24.5128 17.7955C23.723 18.1023 22.8196 18.2557 21.8026 18.2557ZM32.8651 18L29.1662 4.90909H32.3111L34.6122 14.1136H34.7315L37.0838 4.90909H40.1946L42.5469 14.0625H42.6747L44.9418 4.90909H48.0952L44.3878 18H41.1747L38.7202 9.15341H38.5412L36.0866 18H32.8651ZM54.0163 18.2642C53.1868 18.2642 52.4396 18.1165 51.7749 17.821C51.1158 17.5199 50.593 17.0767 50.2067 16.4915C49.826 15.9062 49.6357 15.1847 49.6357 14.3267C49.6357 13.5881 49.772 12.9773 50.0447 12.4943C50.3175 12.0114 50.6896 11.625 51.1612 11.3352C51.6328 11.0455 52.1641 10.8267 52.755 10.679C53.3516 10.5256 53.968 10.4148 54.6044 10.3466C55.3714 10.267 55.9936 10.196 56.4709 10.1335C56.9482 10.0653 57.2947 9.96307 57.5107 9.8267C57.7322 9.68466 57.843 9.46591 57.843 9.17045V9.11932C57.843 8.47727 57.6527 7.98011 57.272 7.62784C56.8913 7.27557 56.343 7.09943 55.6271 7.09943C54.8714 7.09943 54.272 7.2642 53.8288 7.59375C53.3913 7.9233 53.0959 8.3125 52.9425 8.76136L50.0618 8.35227C50.2891 7.55682 50.6641 6.89205 51.1868 6.35795C51.7095 5.81818 52.3487 5.41477 53.1044 5.14773C53.8601 4.875 54.6953 4.73864 55.6101 4.73864C56.2408 4.73864 56.8686 4.8125 57.4936 4.96023C58.1186 5.10795 58.6896 5.35227 59.2067 5.69318C59.7237 6.02841 60.1385 6.4858 60.451 7.06534C60.7692 7.64489 60.9283 8.36932 60.9283 9.23864V18H57.9624V16.2017H57.8601C57.6726 16.5653 57.4084 16.9062 57.0675 17.2244C56.7322 17.5369 56.3089 17.7898 55.7976 17.983C55.2919 18.1705 54.6982 18.2642 54.0163 18.2642ZM54.8175 15.9972C55.4368 15.9972 55.9737 15.875 56.4283 15.6307C56.8828 15.3807 57.2322 15.0511 57.4766 14.642C57.7266 14.233 57.8516 13.7869 57.8516 13.304V11.7614C57.755 11.8409 57.5902 11.9148 57.3572 11.983C57.13 12.0511 56.8743 12.1108 56.5902 12.1619C56.3061 12.2131 56.0249 12.2585 55.7464 12.2983C55.468 12.3381 55.2266 12.3722 55.022 12.4006C54.5618 12.4631 54.1499 12.5653 53.7862 12.7074C53.4226 12.8494 53.1357 13.0483 52.9254 13.304C52.7152 13.554 52.6101 13.8778 52.6101 14.2756C52.6101 14.8438 52.8175 15.2727 53.2322 15.5625C53.647 15.8523 54.1754 15.9972 54.8175 15.9972ZM64.0305 18V4.90909H67.022V7.09091H67.1584C67.397 6.33523 67.8061 5.75284 68.3857 5.34375C68.9709 4.92898 69.6385 4.72159 70.3885 4.72159C70.5589 4.72159 70.7493 4.73011 70.9595 4.74716C71.1754 4.75852 71.3544 4.77841 71.4964 4.80682V7.64489C71.3658 7.59943 71.1584 7.55966 70.8743 7.52557C70.5959 7.4858 70.326 7.46591 70.0646 7.46591C69.5021 7.46591 68.9964 7.58807 68.5476 7.83239C68.1044 8.07102 67.755 8.40341 67.4993 8.82955C67.2436 9.25568 67.1158 9.74716 67.1158 10.304V18H64.0305ZM77.8651 18.2301C76.8366 18.2301 75.9162 17.9659 75.1037 17.4375C74.2912 16.9091 73.6491 16.142 73.1776 15.1364C72.706 14.1307 72.4702 12.9091 72.4702 11.4716C72.4702 10.017 72.7088 8.78977 73.1861 7.78977C73.669 6.78409 74.3196 6.02557 75.1378 5.5142C75.956 4.99716 76.8679 4.73864 77.8736 4.73864C78.6406 4.73864 79.2713 4.86932 79.7656 5.13068C80.2599 5.38636 80.652 5.69602 80.9418 6.05966C81.2315 6.41761 81.456 6.75568 81.6151 7.07386H81.7429V0.545454H84.8366V18H81.8026V15.9375H81.6151C81.456 16.2557 81.2259 16.5937 80.9247 16.9517C80.6236 17.304 80.2259 17.6051 79.7315 17.8551C79.2372 18.1051 78.6151 18.2301 77.8651 18.2301ZM78.7259 15.6989C79.3793 15.6989 79.9361 15.5227 80.3963 15.1705C80.8565 14.8125 81.206 14.3153 81.4446 13.679C81.6832 13.0426 81.8026 12.3011 81.8026 11.4545C81.8026 10.608 81.6832 9.87216 81.4446 9.24716C81.2116 8.62216 80.8651 8.13636 80.4048 7.78977C79.9503 7.44318 79.3906 7.26989 78.7259 7.26989C78.0384 7.26989 77.4645 7.44886 77.0043 7.80682C76.544 8.16477 76.1974 8.65909 75.9645 9.28977C75.7315 9.92045 75.6151 10.642 75.6151 11.4545C75.6151 12.2727 75.7315 13.0028 75.9645 13.6449C76.2031 14.2812 76.5526 14.7841 77.0128 15.1534C77.4787 15.517 78.0497 15.6989 78.7259 15.6989ZM95.995 22.9091C95.5746 22.9091 95.1854 22.875 94.8274 22.8068C94.4751 22.7443 94.1939 22.6705 93.9837 22.5852L94.6996 20.1818C95.1484 20.3125 95.549 20.375 95.9013 20.3693C96.2536 20.3636 96.5632 20.2528 96.8303 20.0369C97.103 19.8267 97.3331 19.4744 97.5206 18.9801L97.7848 18.2727L93.0376 4.90909H96.3104L99.3274 14.7955H99.4638L102.489 4.90909H105.771L100.529 19.5852C100.285 20.2784 99.9609 20.8722 99.5575 21.3665C99.1541 21.8665 98.6598 22.2472 98.0746 22.5085C97.495 22.7756 96.8018 22.9091 95.995 22.9091ZM113.17 18.2557C111.892 18.2557 110.784 17.9744 109.847 17.4119C108.909 16.8494 108.182 16.0625 107.665 15.0511C107.153 14.0398 106.898 12.858 106.898 11.5057C106.898 10.1534 107.153 8.96875 107.665 7.9517C108.182 6.93466 108.909 6.14489 109.847 5.58239C110.784 5.01989 111.892 4.73864 113.17 4.73864C114.449 4.73864 115.557 5.01989 116.494 5.58239C117.432 6.14489 118.156 6.93466 118.668 7.9517C119.185 8.96875 119.443 10.1534 119.443 11.5057C119.443 12.858 119.185 14.0398 118.668 15.0511C118.156 16.0625 117.432 16.8494 116.494 17.4119C115.557 17.9744 114.449 18.2557 113.17 18.2557ZM113.188 15.7841C113.881 15.7841 114.46 15.5937 114.926 15.2131C115.392 14.8267 115.739 14.3097 115.966 13.6619C116.199 13.0142 116.315 12.2926 116.315 11.4972C116.315 10.696 116.199 9.97159 115.966 9.32386C115.739 8.67045 115.392 8.15057 114.926 7.7642C114.46 7.37784 113.881 7.18466 113.188 7.18466C112.477 7.18466 111.886 7.37784 111.415 7.7642C110.949 8.15057 110.599 8.67045 110.366 9.32386C110.139 9.97159 110.026 10.696 110.026 11.4972C110.026 12.2926 110.139 13.0142 110.366 13.6619C110.599 14.3097 110.949 14.8267 111.415 15.2131C111.886 15.5937 112.477 15.7841 113.188 15.7841ZM130.406 12.4943V4.90909H133.491V18H130.499V15.6733H130.363C130.067 16.4062 129.582 17.0057 128.906 17.4716C128.235 17.9375 127.408 18.1705 126.425 18.1705C125.567 18.1705 124.809 17.9801 124.15 17.5994C123.496 17.2131 122.985 16.6534 122.616 15.9205C122.246 15.1818 122.062 14.2898 122.062 13.2443V4.90909H125.147V12.767C125.147 13.5966 125.374 14.2557 125.829 14.7443C126.283 15.233 126.88 15.4773 127.619 15.4773C128.073 15.4773 128.513 15.3665 128.94 15.1449C129.366 14.9233 129.715 14.5938 129.988 14.1562C130.266 13.7131 130.406 13.1591 130.406 12.4943ZM136.663 18V4.90909H139.655V7.09091H139.791C140.03 6.33523 140.439 5.75284 141.018 5.34375C141.604 4.92898 142.271 4.72159 143.021 4.72159C143.192 4.72159 143.382 4.73011 143.592 4.74716C143.808 4.75852 143.987 4.77841 144.129 4.80682V7.64489C143.999 7.59943 143.791 7.55966 143.507 7.52557C143.229 7.4858 142.959 7.46591 142.697 7.46591C142.135 7.46591 141.629 7.58807 141.18 7.83239C140.737 8.07102 140.388 8.40341 140.132 8.82955C139.876 9.25568 139.749 9.74716 139.749 10.304V18H136.663ZM151.501 3.19602V0.545454H165.428V3.19602H160.033V18H156.896V3.19602H151.501ZM171.873 18.2557C170.56 18.2557 169.427 17.983 168.472 17.4375C167.523 16.8864 166.793 16.108 166.282 15.1023C165.771 14.0909 165.515 12.9006 165.515 11.5312C165.515 10.1847 165.771 9.00284 166.282 7.9858C166.799 6.96307 167.521 6.16761 168.447 5.59943C169.373 5.02557 170.461 4.73864 171.711 4.73864C172.518 4.73864 173.279 4.86932 173.995 5.13068C174.717 5.38636 175.353 5.78409 175.904 6.32386C176.461 6.86364 176.898 7.55114 177.217 8.38636C177.535 9.21591 177.694 10.2045 177.694 11.3523V12.2983H166.964V10.2188H174.737C174.731 9.62784 174.603 9.10227 174.353 8.64205C174.103 8.17614 173.754 7.80966 173.305 7.54261C172.862 7.27557 172.344 7.14205 171.754 7.14205C171.123 7.14205 170.569 7.29545 170.092 7.60227C169.614 7.90341 169.242 8.30114 168.975 8.79545C168.714 9.28409 168.58 9.82102 168.575 10.4062V12.2216C168.575 12.983 168.714 13.6364 168.992 14.1818C169.271 14.7216 169.66 15.1364 170.16 15.4261C170.66 15.7102 171.245 15.8523 171.915 15.8523C172.364 15.8523 172.771 15.7898 173.134 15.6648C173.498 15.5341 173.813 15.3438 174.08 15.0938C174.347 14.8438 174.549 14.5341 174.685 14.1648L177.566 14.4886C177.384 15.25 177.038 15.9148 176.526 16.483C176.021 17.0455 175.373 17.483 174.583 17.7955C173.793 18.1023 172.89 18.2557 171.873 18.2557ZM184.071 18.2642C183.241 18.2642 182.494 18.1165 181.83 17.821C181.17 17.5199 180.648 17.0767 180.261 16.4915C179.881 15.9062 179.69 15.1847 179.69 14.3267C179.69 13.5881 179.827 12.9773 180.099 12.4943C180.372 12.0114 180.744 11.625 181.216 11.3352C181.688 11.0455 182.219 10.8267 182.81 10.679C183.406 10.5256 184.023 10.4148 184.659 10.3466C185.426 10.267 186.048 10.196 186.526 10.1335C187.003 10.0653 187.349 9.96307 187.565 9.8267C187.787 9.68466 187.898 9.46591 187.898 9.17045V9.11932C187.898 8.47727 187.707 7.98011 187.327 7.62784C186.946 7.27557 186.398 7.09943 185.682 7.09943C184.926 7.09943 184.327 7.2642 183.884 7.59375C183.446 7.9233 183.151 8.3125 182.997 8.76136L180.116 8.35227C180.344 7.55682 180.719 6.89205 181.241 6.35795C181.764 5.81818 182.403 5.41477 183.159 5.14773C183.915 4.875 184.75 4.73864 185.665 4.73864C186.295 4.73864 186.923 4.8125 187.548 4.96023C188.173 5.10795 188.744 5.35227 189.261 5.69318C189.778 6.02841 190.193 6.4858 190.506 7.06534C190.824 7.64489 190.983 8.36932 190.983 9.23864V18H188.017V16.2017H187.915C187.727 16.5653 187.463 16.9062 187.122 17.2244C186.787 17.5369 186.364 17.7898 185.852 17.983C185.347 18.1705 184.753 18.2642 184.071 18.2642ZM184.872 15.9972C185.491 15.9972 186.028 15.875 186.483 15.6307C186.938 15.3807 187.287 15.0511 187.531 14.642C187.781 14.233 187.906 13.7869 187.906 13.304V11.7614C187.81 11.8409 187.645 11.9148 187.412 11.983C187.185 12.0511 186.929 12.1108 186.645 12.1619C186.361 12.2131 186.08 12.2585 185.801 12.2983C185.523 12.3381 185.281 12.3722 185.077 12.4006C184.616 12.4631 184.205 12.5653 183.841 12.7074C183.477 12.8494 183.19 13.0483 182.98 13.304C182.77 13.554 182.665 13.8778 182.665 14.2756C182.665 14.8438 182.872 15.2727 183.287 15.5625C183.702 15.8523 184.23 15.9972 184.872 15.9972ZM199.795 18.2557C198.489 18.2557 197.366 17.9688 196.429 17.3949C195.497 16.821 194.778 16.0284 194.273 15.017C193.773 14 193.523 12.8295 193.523 11.5057C193.523 10.1761 193.778 9.00284 194.29 7.9858C194.801 6.96307 195.523 6.16761 196.455 5.59943C197.392 5.02557 198.5 4.73864 199.778 4.73864C200.841 4.73864 201.781 4.93466 202.599 5.3267C203.423 5.71307 204.08 6.26136 204.568 6.97159C205.057 7.67614 205.335 8.5 205.403 9.44318H202.455C202.335 8.8125 202.051 8.28693 201.602 7.86648C201.159 7.44034 200.565 7.22727 199.821 7.22727C199.19 7.22727 198.636 7.39773 198.159 7.73864C197.682 8.07386 197.31 8.55682 197.043 9.1875C196.781 9.81818 196.651 10.5739 196.651 11.4545C196.651 12.3466 196.781 13.1136 197.043 13.7557C197.304 14.392 197.67 14.8835 198.142 15.2301C198.619 15.571 199.179 15.7415 199.821 15.7415C200.276 15.7415 200.682 15.6562 201.04 15.4858C201.403 15.3097 201.707 15.0568 201.952 14.7273C202.196 14.3977 202.364 13.9972 202.455 13.5256H205.403C205.33 14.4517 205.057 15.2727 204.585 15.9886C204.114 16.6989 203.472 17.2557 202.659 17.6591C201.847 18.0568 200.892 18.2557 199.795 18.2557ZM211.022 10.3295V18H207.937V0.545454H210.954V7.13352H211.107C211.414 6.39489 211.888 5.8125 212.531 5.38636C213.178 4.95455 214.002 4.73864 215.002 4.73864C215.911 4.73864 216.704 4.92898 217.38 5.30966C218.056 5.69034 218.579 6.24716 218.948 6.98011C219.323 7.71307 219.511 8.60795 219.511 9.66477V18H216.425V10.142C216.425 9.26136 216.198 8.5767 215.744 8.08807C215.295 7.59375 214.664 7.34659 213.852 7.34659C213.306 7.34659 212.817 7.46591 212.386 7.70455C211.96 7.9375 211.624 8.27557 211.38 8.71875C211.141 9.16193 211.022 9.69886 211.022 10.3295ZM228.451 18.2557C227.138 18.2557 226.005 17.983 225.05 17.4375C224.102 16.8864 223.371 16.108 222.86 15.1023C222.349 14.0909 222.093 12.9006 222.093 11.5312C222.093 10.1847 222.349 9.00284 222.86 7.9858C223.377 6.96307 224.099 6.16761 225.025 5.59943C225.951 5.02557 227.039 4.73864 228.289 4.73864C229.096 4.73864 229.857 4.86932 230.573 5.13068C231.295 5.38636 231.931 5.78409 232.482 6.32386C233.039 6.86364 233.477 7.55114 233.795 8.38636C234.113 9.21591 234.272 10.2045 234.272 11.3523V12.2983H223.542V10.2188H231.315C231.309 9.62784 231.181 9.10227 230.931 8.64205C230.681 8.17614 230.332 7.80966 229.883 7.54261C229.44 7.27557 228.923 7.14205 228.332 7.14205C227.701 7.14205 227.147 7.29545 226.67 7.60227C226.192 7.90341 225.82 8.30114 225.553 8.79545C225.292 9.28409 225.158 9.82102 225.153 10.4062V12.2216C225.153 12.983 225.292 13.6364 225.57 14.1818C225.849 14.7216 226.238 15.1364 226.738 15.4261C227.238 15.7102 227.823 15.8523 228.494 15.8523C228.942 15.8523 229.349 15.7898 229.712 15.6648C230.076 15.5341 230.391 15.3438 230.658 15.0938C230.925 14.8438 231.127 14.5341 231.263 14.1648L234.144 14.4886C233.962 15.25 233.616 15.9148 233.104 16.483C232.599 17.0455 231.951 17.483 231.161 17.7955C230.371 18.1023 229.468 18.2557 228.451 18.2557ZM236.882 18V4.90909H239.874V7.09091H240.01C240.249 6.33523 240.658 5.75284 241.237 5.34375C241.822 4.92898 242.49 4.72159 243.24 4.72159C243.411 4.72159 243.601 4.73011 243.811 4.74716C244.027 4.75852 244.206 4.77841 244.348 4.80682V7.64489C244.217 7.59943 244.01 7.55966 243.726 7.52557C243.447 7.4858 243.178 7.46591 242.916 7.46591C242.354 7.46591 241.848 7.58807 241.399 7.83239C240.956 8.07102 240.607 8.40341 240.351 8.82955C240.095 9.25568 239.967 9.74716 239.967 10.304V18H236.882Z" fill="#55A630"/>
</svg>
